<svg xmlns="http://www.w3.org/2000/svg" width="1920" height="1080"><path d="M162,1321L-70,1308L334,1340Z" fill="#917039" stroke="#917039" stroke-width="1.51"/><path d="M188,-263L680,-179L854,-179Z" fill="#e0784a" stroke="#e0784a" stroke-width="1.51"/><path d="M1179,1296L632,1326L1374,1304Z" fill="#88b772" stroke="#88b772" stroke-width="1.51"/><path d="M854,-179L1083,-181L1655,-264Z" fill="#d49156" stroke="#d49156" stroke-width="1.51"/><path d="M188,-263L854,-179L1655,-264Z" fill="#e19168" stroke="#e19168" stroke-width="1.51"/><path d="M1083,-181L1230,-183L1655,-264Z" fill="#c88d4e" stroke="#c88d4e" stroke-width="1.51"/><path d="M1646,1240L1374,1304L1833,1276Z" fill="#4ba355" stroke="#4ba355" stroke-width="1.51"/><path d="M1825,-243L1887,-211L2065,-194Z" fill="#8a6c39" stroke="#8a6c39" stroke-width="1.51"/><path d="M1945,1108L1924,1269L2101,1111Z" fill="#24954e" stroke="#24954e" stroke-width="1.51"/><path d="M2091,395L1963,380L2104,557Z" fill="#93b570" stroke="#93b570" stroke-width="1.51"/><path d="M1963,380L1902,529L2104,557Z" fill="#96c07a" stroke="#96c07a" stroke-width="1.51"/><path d="M2051,72L1966,263L2105,267Z" fill="#999851" stroke="#999851" stroke-width="1.51"/><path d="M2091,395L2104,557L2105,267Z" fill="#91ad67" stroke="#91ad67" stroke-width="1.51"/><path d="M1911,859L2071,979L2106,795Z" fill="#63ac57" stroke="#63ac57" stroke-width="1.51"/><path d="M2071,979L2101,1111L2106,795Z" fill="#4f9e52" stroke="#4f9e52" stroke-width="1.51"/><path d="M2104,557L1972,643L2108,685Z" fill="#87b870" stroke="#87b870" stroke-width="1.51"/><path d="M2065,-194L1982,-45L2121,-35Z" fill="#906b36" stroke="#906b36" stroke-width="1.51"/><path d="M2051,72L2105,267L2121,-35Z" fill="#968245" stroke="#968245" stroke-width="1.51"/><path d="M2104,557L2108,685L2121,-35Z" fill="#90ab66" stroke="#90ab66" stroke-width="1.51"/><path d="M2105,267L2104,557L2121,-35Z" fill="#939a54" stroke="#939a54" stroke-width="1.51"/><path d="M1833,1276L1374,1304L2127,1273Z" fill="#31964f" stroke="#31964f" stroke-width="1.51"/><path d="M1924,1269L1833,1276L2127,1273Z" fill="#138948" stroke="#138948" stroke-width="1.51"/><path d="M2101,1111L1924,1269L2127,1273Z" fill="#128847" stroke="#128847" stroke-width="1.51"/><path d="M2106,795L2101,1111L2127,1273Z" fill="#38934e" stroke="#38934e" stroke-width="1.51"/><path d="M2108,685L2106,795L2127,1273Z" fill="#57a052" stroke="#57a052" stroke-width="1.51"/><path d="M2121,-35L2108,685L2127,1273Z" fill="#82b16b" stroke="#82b16b" stroke-width="1.51"/><path d="M1963,380L2091,395L2105,267Z" fill="#94ab62" stroke="#94ab62" stroke-width="1.51"/><path d="M1966,263L1963,380L2105,267Z" fill="#98a95f" stroke="#98a95f" stroke-width="1.51"/><path d="M1972,643L2106,795L2108,685Z" fill="#7db464" stroke="#7db464" stroke-width="1.51"/><path d="M1982,-45L2051,72L2121,-35Z" fill="#96773e" stroke="#96773e" stroke-width="1.51"/><path d="M2071,979L1945,1108L2101,1111Z" fill="#3a9b51" stroke="#3a9b51" stroke-width="1.51"/><path d="M1972,643L1911,859L2106,795Z" fill="#78b763" stroke="#78b763" stroke-width="1.51"/><path d="M1902,529L1972,643L2104,557Z" fill="#91c27c" stroke="#91c27c" stroke-width="1.51"/><path d="M1230,-183L1302,-180L1655,-264Z" fill="#c28a49" stroke="#c28a49" stroke-width="1.51"/><path d="M1915,77L1966,263L2051,72Z" fill="#9e944e" stroke="#9e944e" stroke-width="1.51"/><path d="M1911,859L1910,964L2071,979Z" fill="#5bae59" stroke="#5bae59" stroke-width="1.51"/><path d="M1302,-180L1465,-197L1655,-264Z" fill="#b88746" stroke="#b88746" stroke-width="1.51"/><path d="M1887,-211L1982,-45L2065,-194Z" fill="#906c37" stroke="#906c37" stroke-width="1.51"/><path d="M1910,964L1945,1108L2071,979Z" fill="#48a657" stroke="#48a657" stroke-width="1.51"/><path d="M1982,-45L1915,77L2051,72Z" fill="#9d8344" stroke="#9d8344" stroke-width="1.51"/><path d="M1802,1188L1924,1269L1945,1108Z" fill="#259c51" stroke="#259c51" stroke-width="1.51"/><path d="M1915,77L1748,199L1966,263Z" fill="#a6a557" stroke="#a6a557" stroke-width="1.51"/><path d="M1794,356L1963,380L1966,263Z" fill="#9fb868" stroke="#9fb868" stroke-width="1.51"/><path d="M1815,834L1911,859L1972,643Z" fill="#7cc067" stroke="#7cc067" stroke-width="1.51"/><path d="M1747,687L1815,834L1972,643Z" fill="#8cc96e" stroke="#8cc96e" stroke-width="1.51"/><path d="M1811,-57L1915,77L1982,-45Z" fill="#a18545" stroke="#a18545" stroke-width="1.51"/><path d="M1887,-211L1811,-57L1982,-45Z" fill="#9c793d" stroke="#9c793d" stroke-width="1.51"/><path d="M714,1302L632,1326L1179,1296Z" fill="#91b470" stroke="#91b470" stroke-width="1.51"/><path d="M1801,500L1902,529L1963,380Z" fill="#9ec87c" stroke="#9ec87c" stroke-width="1.51"/><path d="M1794,356L1801,500L1963,380Z" fill="#a3c675" stroke="#a3c675" stroke-width="1.51"/><path d="M1902,529L1747,687L1972,643Z" fill="#95cb7c" stroke="#95cb7c" stroke-width="1.51"/><path d="M1748,199L1794,356L1966,263Z" fill="#a8b564" stroke="#a8b564" stroke-width="1.51"/><path d="M1775,72L1748,199L1915,77Z" fill="#ad9f54" stroke="#ad9f54" stroke-width="1.51"/><path d="M1802,1188L1833,1276L1924,1269Z" fill="#27964f" stroke="#27964f" stroke-width="1.51"/><path d="M1910,964L1752,970L1945,1108Z" fill="#52b05c" stroke="#52b05c" stroke-width="1.51"/><path d="M1752,970L1802,1188L1945,1108Z" fill="#47ab5a" stroke="#47ab5a" stroke-width="1.51"/><path d="M1801,500L1747,687L1902,529Z" fill="#a1d285" stroke="#a1d285" stroke-width="1.51"/><path d="M1815,834L1910,964L1911,859Z" fill="#6cba5e" stroke="#6cba5e" stroke-width="1.51"/><path d="M1811,-57L1775,72L1915,77Z" fill="#ab8f4b" stroke="#ab8f4b" stroke-width="1.51"/><path d="M1815,834L1752,970L1910,964Z" fill="#6cbb5f" stroke="#6cbb5f" stroke-width="1.51"/><path d="M1825,-243L1811,-57L1887,-211Z" fill="#99763d" stroke="#99763d" stroke-width="1.51"/><path d="M1653,499L1747,687L1801,500Z" fill="#acd98b" stroke="#acd98b" stroke-width="1.51"/><path d="M1794,356L1683,435L1801,500Z" fill="#adce7c" stroke="#adce7c" stroke-width="1.51"/><path d="M1752,970L1661,1042L1802,1188Z" fill="#59b55e" stroke="#59b55e" stroke-width="1.51"/><path d="M1661,1042L1639,1115L1802,1188Z" fill="#54b25d" stroke="#54b25d" stroke-width="1.51"/><path d="M1655,-264L1656,-24L1811,-57Z" fill="#af8543" stroke="#af8543" stroke-width="1.51"/><path d="M1655,-264L1811,-57L1825,-243Z" fill="#9e793f" stroke="#9e793f" stroke-width="1.51"/><path d="M1802,1188L1646,1240L1833,1276Z" fill="#389f54" stroke="#389f54" stroke-width="1.51"/><path d="M1656,-24L1775,72L1811,-57Z" fill="#b2914b" stroke="#b2914b" stroke-width="1.51"/><path d="M1596,847L1752,970L1815,834Z" fill="#80c765" stroke="#80c765" stroke-width="1.51"/><path d="M1747,687L1596,847L1815,834Z" fill="#90ce6d" stroke="#90ce6d" stroke-width="1.51"/><path d="M1748,199L1660,206L1794,356Z" fill="#b4bb65" stroke="#b4bb65" stroke-width="1.51"/><path d="M1685,88L1748,199L1775,72Z" fill="#b5a557" stroke="#b5a557" stroke-width="1.51"/><path d="M1639,1115L1646,1240L1802,1188Z" fill="#48ab5a" stroke="#48ab5a" stroke-width="1.51"/><path d="M1683,435L1653,499L1801,500Z" fill="#b2d685" stroke="#b2d685" stroke-width="1.51"/><path d="M1656,-24L1685,88L1775,72Z" fill="#b99b51" stroke="#b99b51" stroke-width="1.51"/><path d="M1660,206L1683,435L1794,356Z" fill="#b4c770" stroke="#b4c770" stroke-width="1.51"/><path d="M188,-263L419,-196L680,-179Z" fill="#dd663f" stroke="#dd663f" stroke-width="1.51"/><path d="M1653,499L1588,652L1747,687Z" fill="#aedc85" stroke="#aedc85" stroke-width="1.51"/><path d="M1588,652L1596,847L1747,687Z" fill="#a2d775" stroke="#a2d775" stroke-width="1.51"/><path d="M1685,88L1660,206L1748,199Z" fill="#b9af5d" stroke="#b9af5d" stroke-width="1.51"/><path d="M1596,847L1661,1042L1752,970Z" fill="#78c565" stroke="#78c565" stroke-width="1.51"/><path d="M1588,652L1503,717L1596,847Z" fill="#acdb75" stroke="#acdb75" stroke-width="1.51"/><path d="M1433,1237L1374,1304L1646,1240Z" fill="#60ac58" stroke="#60ac58" stroke-width="1.51"/><path d="M1655,-264L1465,-197L1656,-24Z" fill="#b48644" stroke="#b48644" stroke-width="1.51"/><path d="M1465,-197L1474,-23L1656,-24Z" fill="#c49248" stroke="#c49248" stroke-width="1.51"/><path d="M1480,238L1487,339L1660,206Z" fill="#c9c76a" stroke="#c9c76a" stroke-width="1.51"/><path d="M1596,847L1529,1014L1661,1042Z" fill="#80c866" stroke="#80c866" stroke-width="1.51"/><path d="M1660,206L1487,339L1683,435Z" fill="#c0cc72" stroke="#c0cc72" stroke-width="1.51"/><path d="M1656,-24L1474,-23L1685,88Z" fill="#c29c50" stroke="#c29c50" stroke-width="1.51"/><path d="M1474,-23L1453,140L1685,88Z" fill="#cba856" stroke="#cba856" stroke-width="1.51"/><path d="M1453,140L1660,206L1685,88Z" fill="#c4b15d" stroke="#c4b15d" stroke-width="1.51"/><path d="M1487,339L1653,499L1683,435Z" fill="#bfd880" stroke="#bfd880" stroke-width="1.51"/><path d="M1487,1193L1433,1237L1646,1240Z" fill="#5db05a" stroke="#5db05a" stroke-width="1.51"/><path d="M1639,1115L1487,1193L1646,1240Z" fill="#58b15c" stroke="#58b15c" stroke-width="1.51"/><path d="M1436,529L1588,652L1653,499Z" fill="#c1e490" stroke="#c1e490" stroke-width="1.51"/><path d="M1487,339L1436,529L1653,499Z" fill="#c9e086" stroke="#c9e086" stroke-width="1.51"/><path d="M1453,140L1480,238L1660,206Z" fill="#cbbd62" stroke="#cbbd62" stroke-width="1.51"/><path d="M1529,1014L1639,1115L1661,1042Z" fill="#6cbe62" stroke="#6cbe62" stroke-width="1.51"/><path d="M1529,1014L1487,1193L1639,1115Z" fill="#6bbc61" stroke="#6bbc61" stroke-width="1.51"/><path d="M1443,834L1529,1014L1596,847Z" fill="#97d269" stroke="#97d269" stroke-width="1.51"/><path d="M1503,717L1443,834L1596,847Z" fill="#a8d970" stroke="#a8d970" stroke-width="1.51"/><path d="M1436,529L1503,717L1588,652Z" fill="#bfe485" stroke="#bfe485" stroke-width="1.51"/><path d="M1436,529L1302,672L1503,717Z" fill="#cae887" stroke="#cae887" stroke-width="1.51"/><path d="M1372,1018L1487,1193L1529,1014Z" fill="#7dc564" stroke="#7dc564" stroke-width="1.51"/><path d="M1443,834L1372,1018L1529,1014Z" fill="#95d268" stroke="#95d268" stroke-width="1.51"/><path d="M1030,1254L714,1302L1179,1296Z" fill="#91be7d" stroke="#91be7d" stroke-width="1.51"/><path d="M1309,40L1453,140L1474,-23Z" fill="#d9ab58" stroke="#d9ab58" stroke-width="1.51"/><path d="M1465,-197L1332,-78L1474,-23Z" fill="#ce9549" stroke="#ce9549" stroke-width="1.51"/><path d="M1323,385L1436,529L1487,339Z" fill="#d6e283" stroke="#d6e283" stroke-width="1.51"/><path d="M1372,1018L1294,1125L1487,1193Z" fill="#80c566" stroke="#80c566" stroke-width="1.51"/><path d="M1302,672L1443,834L1503,717Z" fill="#bde378" stroke="#bde378" stroke-width="1.51"/><path d="M1453,140L1341,237L1480,238Z" fill="#d7c566" stroke="#d7c566" stroke-width="1.51"/><path d="M1480,238L1341,237L1487,339Z" fill="#d6ce6d" stroke="#d6ce6d" stroke-width="1.51"/><path d="M1341,237L1323,385L1487,339Z" fill="#dad877" stroke="#dad877" stroke-width="1.51"/><path d="M1294,1125L1433,1237L1487,1193Z" fill="#72bb60" stroke="#72bb60" stroke-width="1.51"/><path d="M1302,672L1285,804L1443,834Z" fill="#c0e47b" stroke="#c0e47b" stroke-width="1.51"/><path d="M1302,-180L1332,-78L1465,-197Z" fill="#cd914b" stroke="#cd914b" stroke-width="1.51"/><path d="M1332,-78L1309,40L1474,-23Z" fill="#d8a254" stroke="#d8a254" stroke-width="1.51"/><path d="M1285,804L1372,1018L1443,834Z" fill="#abdb6e" stroke="#abdb6e" stroke-width="1.51"/><path d="M1323,385L1293,526L1436,529Z" fill="#dceb91" stroke="#dceb91" stroke-width="1.51"/><path d="M1293,526L1302,672L1436,529Z" fill="#d9ef96" stroke="#d9ef96" stroke-width="1.51"/><path d="M1309,40L1341,237L1453,140Z" fill="#debc64" stroke="#debc64" stroke-width="1.51"/><path d="M1294,1125L1374,1304L1433,1237Z" fill="#72b860" stroke="#72b860" stroke-width="1.51"/><path d="M1285,804L1231,838L1372,1018Z" fill="#b3de73" stroke="#b3de73" stroke-width="1.51"/><path d="M1309,40L1185,140L1341,237Z" fill="#e6c069" stroke="#e6c069" stroke-width="1.51"/><path d="M1229,338L1323,385L1341,237Z" fill="#e3db7d" stroke="#e3db7d" stroke-width="1.51"/><path d="M1231,838L1172,988L1372,1018Z" fill="#abdb75" stroke="#abdb75" stroke-width="1.51"/><path d="M1294,1125L1179,1296L1374,1304Z" fill="#7ab964" stroke="#7ab964" stroke-width="1.51"/><path d="M1172,988L1294,1125L1372,1018Z" fill="#97d271" stroke="#97d271" stroke-width="1.51"/><path d="M1169,1175L1179,1296L1294,1125Z" fill="#84c36c" stroke="#84c36c" stroke-width="1.51"/><path d="M1293,526L1193,633L1302,672Z" fill="#def196" stroke="#def196" stroke-width="1.51"/><path d="M1191,-57L1309,40L1332,-78Z" fill="#e1a459" stroke="#e1a459" stroke-width="1.51"/><path d="M1185,140L1229,257L1341,237Z" fill="#e9cd72" stroke="#e9cd72" stroke-width="1.51"/><path d="M1229,257L1229,338L1341,237Z" fill="#e7d77a" stroke="#e7d77a" stroke-width="1.51"/><path d="M1229,338L1293,526L1323,385Z" fill="#e4e88c" stroke="#e4e88c" stroke-width="1.51"/><path d="M1302,-180L1230,-183L1332,-78Z" fill="#d59450" stroke="#d59450" stroke-width="1.51"/><path d="M1230,-183L1191,-57L1332,-78Z" fill="#de9a54" stroke="#de9a54" stroke-width="1.51"/><path d="M1229,338L1147,527L1293,526Z" fill="#eaef98" stroke="#eaef98" stroke-width="1.51"/><path d="M1193,633L1231,838L1285,804Z" fill="#cdea83" stroke="#cdea83" stroke-width="1.51"/><path d="M1193,633L1285,804L1302,672Z" fill="#d3ed87" stroke="#d3ed87" stroke-width="1.51"/><path d="M1191,-57L1185,140L1309,40Z" fill="#eab063" stroke="#eab063" stroke-width="1.51"/><path d="M1172,988L1169,1175L1294,1125Z" fill="#96cf72" stroke="#96cf72" stroke-width="1.51"/><path d="M859,1244L714,1302L1030,1254Z" fill="#94bb77" stroke="#94bb77" stroke-width="1.51"/><path d="M1147,527L1193,633L1293,526Z" fill="#e9f6a1" stroke="#e9f6a1" stroke-width="1.51"/><path d="M1056,55L1185,140L1191,-57Z" fill="#f2b36b" stroke="#f2b36b" stroke-width="1.51"/><path d="M1185,140L1067,337L1229,257Z" fill="#f1d67f" stroke="#f1d67f" stroke-width="1.51"/><path d="M1229,257L1067,337L1229,338Z" fill="#efdf85" stroke="#efdf85" stroke-width="1.51"/><path d="M1067,337L1147,527L1229,338Z" fill="#f0ec94" stroke="#f0ec94" stroke-width="1.51"/><path d="M1083,-181L1191,-57L1230,-183Z" fill="#e19959" stroke="#e19959" stroke-width="1.51"/><path d="M1050,939L1172,988L1231,838Z" fill="#bae17f" stroke="#bae17f" stroke-width="1.51"/><path d="M1007,890L1050,939L1231,838Z" fill="#c5e685" stroke="#c5e685" stroke-width="1.51"/><path d="M1193,633L1009,647L1231,838Z" fill="#def191" stroke="#def191" stroke-width="1.51"/><path d="M1009,647L1007,890L1231,838Z" fill="#d5ed90" stroke="#d5ed90" stroke-width="1.51"/><path d="M1000,245L1067,337L1185,140Z" fill="#f7d786" stroke="#f7d786" stroke-width="1.51"/><path d="M989,1099L1169,1175L1172,988Z" fill="#a0d37d" stroke="#a0d37d" stroke-width="1.51"/><path d="M1169,1175L1030,1254L1179,1296Z" fill="#89c071" stroke="#89c071" stroke-width="1.51"/><path d="M1083,-181L1040,-109L1191,-57Z" fill="#ea9d61" stroke="#ea9d61" stroke-width="1.51"/><path d="M1040,-109L1056,55L1191,-57Z" fill="#f0a869" stroke="#f0a869" stroke-width="1.51"/><path d="M1147,527L1045,551L1193,633Z" fill="#eef8a8" stroke="#eef8a8" stroke-width="1.51"/><path d="M1045,551L1009,647L1193,633Z" fill="#eef8a7" stroke="#eef8a7" stroke-width="1.51"/><path d="M1050,939L989,1099L1172,988Z" fill="#b1dd85" stroke="#b1dd85" stroke-width="1.51"/><path d="M1056,55L1000,245L1185,140Z" fill="#f7c77c" stroke="#f7c77c" stroke-width="1.51"/><path d="M1067,337L1045,551L1147,527Z" fill="#f5f5a7" stroke="#f5f5a7" stroke-width="1.51"/><path d="M989,1099L1030,1254L1169,1175Z" fill="#95cb7d" stroke="#95cb7d" stroke-width="1.51"/><path d="M882,824L1007,890L1009,647Z" fill="#dff29d" stroke="#dff29d" stroke-width="1.51"/><path d="M937,945L989,1099L1050,939Z" fill="#bae18e" stroke="#bae18e" stroke-width="1.51"/><path d="M924,118L1000,245L1056,55Z" fill="#fec985" stroke="#fec985" stroke-width="1.51"/><path d="M1040,-109L940,-108L1056,55Z" fill="#f5a870" stroke="#f5a870" stroke-width="1.51"/><path d="M857,409L904,496L1067,337Z" fill="#fff2a9" stroke="#fff2a9" stroke-width="1.51"/><path d="M904,496L1045,551L1067,337Z" fill="#fcf6ad" stroke="#fcf6ad" stroke-width="1.51"/><path d="M940,-108L1040,-109L1083,-181Z" fill="#ee9d69" stroke="#ee9d69" stroke-width="1.51"/><path d="M854,-179L940,-108L1083,-181Z" fill="#ef9c6e" stroke="#ef9c6e" stroke-width="1.51"/><path d="M1000,245L857,409L1067,337Z" fill="#ffe89d" stroke="#ffe89d" stroke-width="1.51"/><path d="M884,258L857,409L1000,245Z" fill="#ffe297" stroke="#ffe297" stroke-width="1.51"/><path d="M940,-108L924,118L1056,55Z" fill="#feb47b" stroke="#feb47b" stroke-width="1.51"/><path d="M844,690L882,824L1009,647Z" fill="#eaf39e" stroke="#eaf39e" stroke-width="1.51"/><path d="M989,1099L859,1244L1030,1254Z" fill="#99cc86" stroke="#99cc86" stroke-width="1.51"/><path d="M1007,890L937,945L1050,939Z" fill="#c6e68f" stroke="#c6e68f" stroke-width="1.51"/><path d="M904,496L1009,647L1045,551Z" fill="#fafdb8" stroke="#fafdb8" stroke-width="1.51"/><path d="M937,945L835,1088L989,1099Z" fill="#b4db8b" stroke="#b4db8b" stroke-width="1.51"/><path d="M924,118L884,258L1000,245Z" fill="#ffd58c" stroke="#ffd58c" stroke-width="1.51"/><path d="M882,824L937,945L1007,890Z" fill="#d0ea92" stroke="#d0ea92" stroke-width="1.51"/><path d="M904,496L844,690L1009,647Z" fill="#f7f9b0" stroke="#f7f9b0" stroke-width="1.51"/><path d="M835,1088L859,1244L989,1099Z" fill="#a3ce82" stroke="#a3ce82" stroke-width="1.51"/><path d="M769,633L844,690L904,496Z" fill="#f8f4a7" stroke="#f8f4a7" stroke-width="1.51"/><path d="M882,824L761,893L937,945Z" fill="#d0e489" stroke="#d0e489" stroke-width="1.51"/><path d="M761,893L835,1088L937,945Z" fill="#c0dc86" stroke="#c0dc86" stroke-width="1.51"/><path d="M854,-179L720,-114L940,-108Z" fill="#f09763" stroke="#f09763" stroke-width="1.51"/><path d="M700,49L924,118L940,-108Z" fill="#fdae72" stroke="#fdae72" stroke-width="1.51"/><path d="M720,-114L700,49L940,-108Z" fill="#f69e63" stroke="#f69e63" stroke-width="1.51"/><path d="M758,521L769,633L904,496Z" fill="#fef5ad" stroke="#fef5ad" stroke-width="1.51"/><path d="M734,250L884,258L924,118Z" fill="#ffcf84" stroke="#ffcf84" stroke-width="1.51"/><path d="M700,49L734,250L924,118Z" fill="#ffbe76" stroke="#ffbe76" stroke-width="1.51"/><path d="M761,893L706,989L835,1088Z" fill="#bfd67d" stroke="#bfd67d" stroke-width="1.51"/><path d="M835,1088L785,1100L859,1244Z" fill="#a4ca7b" stroke="#a4ca7b" stroke-width="1.51"/><path d="M734,250L857,409L884,258Z" fill="#ffdc8d" stroke="#ffdc8d" stroke-width="1.51"/><path d="M857,409L758,521L904,496Z" fill="#fff1a8" stroke="#fff1a8" stroke-width="1.51"/><path d="M734,250L700,393L857,409Z" fill="#ffdf8c" stroke="#ffdf8c" stroke-width="1.51"/><path d="M844,690L761,893L882,824Z" fill="#dee88e" stroke="#dee88e" stroke-width="1.51"/><path d="M419,-196L559,-158L680,-179Z" fill="#e47849" stroke="#e47849" stroke-width="1.51"/><path d="M706,989L785,1100L835,1088Z" fill="#b3d17b" stroke="#b3d17b" stroke-width="1.51"/><path d="M769,633L761,893L844,690Z" fill="#e7ea8f" stroke="#e7ea8f" stroke-width="1.51"/><path d="M700,393L758,521L857,409Z" fill="#ffe99b" stroke="#ffe99b" stroke-width="1.51"/><path d="M785,1100L714,1302L859,1244Z" fill="#9abe72" stroke="#9abe72" stroke-width="1.51"/><path d="M680,-179L720,-114L854,-179Z" fill="#eb8f59" stroke="#eb8f59" stroke-width="1.51"/><path d="M620,866L761,893L769,633Z" fill="#dfe181" stroke="#dfe181" stroke-width="1.51"/><path d="M622,643L620,866L769,633Z" fill="#ebe285" stroke="#ebe285" stroke-width="1.51"/><path d="M551,1090L714,1302L785,1100Z" fill="#a3be6b" stroke="#a3be6b" stroke-width="1.51"/><path d="M706,989L551,1090L785,1100Z" fill="#b3c972" stroke="#b3c972" stroke-width="1.51"/><path d="M551,1090L632,1326L714,1302Z" fill="#9aaf62" stroke="#9aaf62" stroke-width="1.51"/><path d="M700,49L571,258L734,250Z" fill="#febd6f" stroke="#febd6f" stroke-width="1.51"/><path d="M700,393L631,502L758,521Z" fill="#ffe698" stroke="#ffe698" stroke-width="1.51"/><path d="M631,502L622,643L758,521Z" fill="#feea9e" stroke="#feea9e" stroke-width="1.51"/><path d="M758,521L622,643L769,633Z" fill="#f9ec9b" stroke="#f9ec9b" stroke-width="1.51"/><path d="M536,96L571,258L700,49Z" fill="#fdad64" stroke="#fdad64" stroke-width="1.51"/><path d="M620,866L706,989L761,893Z" fill="#ccd777" stroke="#ccd777" stroke-width="1.51"/><path d="M620,866L588,944L706,989Z" fill="#cad071" stroke="#cad071" stroke-width="1.51"/><path d="M561,-100L700,49L720,-114Z" fill="#f49457" stroke="#f49457" stroke-width="1.51"/><path d="M571,258L700,393L734,250Z" fill="#fed07d" stroke="#fed07d" stroke-width="1.51"/><path d="M571,258L571,406L700,393Z" fill="#fed27e" stroke="#fed27e" stroke-width="1.51"/><path d="M680,-179L561,-100L720,-114Z" fill="#ed8851" stroke="#ed8851" stroke-width="1.51"/><path d="M551,1090L482,1268L632,1326Z" fill="#9daa5c" stroke="#9daa5c" stroke-width="1.51"/><path d="M588,944L551,1090L706,989Z" fill="#bdc86e" stroke="#bdc86e" stroke-width="1.51"/><path d="M561,-100L536,96L700,49Z" fill="#f99759" stroke="#f99759" stroke-width="1.51"/><path d="M571,406L631,502L700,393Z" fill="#ffdc8c" stroke="#ffdc8c" stroke-width="1.51"/><path d="M482,1268L334,1340L632,1326Z" fill="#96964f" stroke="#96964f" stroke-width="1.51"/><path d="M559,-158L561,-100L680,-179Z" fill="#ea814c" stroke="#ea814c" stroke-width="1.51"/><path d="M452,854L620,866L622,643Z" fill="#e1d375" stroke="#e1d375" stroke-width="1.51"/><path d="M382,661L452,854L622,643Z" fill="#eccf75" stroke="#eccf75" stroke-width="1.51"/><path d="M422,563L622,643L631,502Z" fill="#fddd92" stroke="#fddd92" stroke-width="1.51"/><path d="M571,406L422,563L631,502Z" fill="#ffd98d" stroke="#ffd98d" stroke-width="1.51"/><path d="M422,563L382,661L622,643Z" fill="#f8d282" stroke="#f8d282" stroke-width="1.51"/><path d="M460,1112L482,1268L551,1090Z" fill="#a7ad5c" stroke="#a7ad5c" stroke-width="1.51"/><path d="M452,854L588,944L620,866Z" fill="#d2cb6b" stroke="#d2cb6b" stroke-width="1.51"/><path d="M380,-9L536,96L561,-100Z" fill="#f6894e" stroke="#f6894e" stroke-width="1.51"/><path d="M536,96L412,189L571,258Z" fill="#fdac61" stroke="#fdac61" stroke-width="1.51"/><path d="M571,258L422,412L571,406Z" fill="#fec977" stroke="#fec977" stroke-width="1.51"/><path d="M422,412L422,563L571,406Z" fill="#ffce83" stroke="#ffce83" stroke-width="1.51"/><path d="M461,934L551,1090L588,944Z" fill="#c2c167" stroke="#c2c167" stroke-width="1.51"/><path d="M452,854L461,934L588,944Z" fill="#cfc466" stroke="#cfc466" stroke-width="1.51"/><path d="M380,-9L438,110L536,96Z" fill="#f98f52" stroke="#f98f52" stroke-width="1.51"/><path d="M438,110L412,189L536,96Z" fill="#fc9d58" stroke="#fc9d58" stroke-width="1.51"/><path d="M461,934L460,1112L551,1090Z" fill="#b9b862" stroke="#b9b862" stroke-width="1.51"/><path d="M412,189L422,412L571,258Z" fill="#feb869" stroke="#feb869" stroke-width="1.51"/><path d="M559,-158L419,-196L561,-100Z" fill="#e87645" stroke="#e87645" stroke-width="1.51"/><path d="M419,-196L380,-9L561,-100Z" fill="#ed7443" stroke="#ed7443" stroke-width="1.51"/><path d="M188,-263L245,-205L419,-196Z" fill="#d74f37" stroke="#d74f37" stroke-width="1.51"/><path d="M412,189L276,283L422,412Z" fill="#fdad64" stroke="#fdad64" stroke-width="1.51"/><path d="M382,661L283,731L452,854Z" fill="#e8c06a" stroke="#e8c06a" stroke-width="1.51"/><path d="M241,1042L299,1136L460,1112Z" fill="#b2a155" stroke="#b2a155" stroke-width="1.51"/><path d="M241,1042L460,1112L461,934Z" fill="#bcae5c" stroke="#bcae5c" stroke-width="1.51"/><path d="M322,892L241,1042L461,934Z" fill="#c8ae5a" stroke="#c8ae5a" stroke-width="1.51"/><path d="M460,1112L299,1136L482,1268Z" fill="#a6a255" stroke="#a6a255" stroke-width="1.51"/><path d="M299,1136L334,1340L482,1268Z" fill="#9d934e" stroke="#9d934e" stroke-width="1.51"/><path d="M380,-9L339,41L438,110Z" fill="#f7834c" stroke="#f7834c" stroke-width="1.51"/><path d="M283,731L322,892L452,854Z" fill="#ddb961" stroke="#ddb961" stroke-width="1.51"/><path d="M452,854L322,892L461,934Z" fill="#d2bb60" stroke="#d2bb60" stroke-width="1.51"/><path d="M276,283L264,375L422,412Z" fill="#fdb069" stroke="#fdb069" stroke-width="1.51"/><path d="M245,-205L258,-16L380,-9Z" fill="#eb623c" stroke="#eb623c" stroke-width="1.51"/><path d="M245,-205L380,-9L419,-196Z" fill="#e6603b" stroke="#e6603b" stroke-width="1.51"/><path d="M230,519L422,563L422,412Z" fill="#ffc380" stroke="#ffc380" stroke-width="1.51"/><path d="M339,41L412,189L438,110Z" fill="#fa9152" stroke="#fa9152" stroke-width="1.51"/><path d="M230,519L382,661L422,563Z" fill="#fcc480" stroke="#fcc480" stroke-width="1.51"/><path d="M264,375L230,519L422,412Z" fill="#feb773" stroke="#feb773" stroke-width="1.51"/><path d="M339,41L172,138L412,189Z" fill="#f8874e" stroke="#f8874e" stroke-width="1.51"/><path d="M172,138L276,283L412,189Z" fill="#fa9454" stroke="#fa9454" stroke-width="1.51"/><path d="M230,519L283,731L382,661Z" fill="#f6bc74" stroke="#f6bc74" stroke-width="1.51"/><path d="M258,-16L339,41L380,-9Z" fill="#f37344" stroke="#f37344" stroke-width="1.51"/><path d="M283,731L155,882L322,892Z" fill="#dbac5a" stroke="#dbac5a" stroke-width="1.51"/><path d="M299,1136L162,1321L334,1340Z" fill="#9c8445" stroke="#9c8445" stroke-width="1.51"/><path d="M258,-16L172,138L339,41Z" fill="#f57245" stroke="#f57245" stroke-width="1.51"/><path d="M230,519L103,636L283,731Z" fill="#f5b16f" stroke="#f5b16f" stroke-width="1.51"/><path d="M155,882L241,1042L322,892Z" fill="#cba354" stroke="#cba354" stroke-width="1.51"/><path d="M131,1125L162,1321L299,1136Z" fill="#a28847" stroke="#a28847" stroke-width="1.51"/><path d="M245,-205L101,-40L258,-16Z" fill="#e65235" stroke="#e65235" stroke-width="1.51"/><path d="M172,138L138,238L276,283Z" fill="#f78c50" stroke="#f78c50" stroke-width="1.51"/><path d="M241,1042L131,1125L299,1136Z" fill="#b1944d" stroke="#b1944d" stroke-width="1.51"/><path d="M155,882L118,986L241,1042Z" fill="#c39a4f" stroke="#c39a4f" stroke-width="1.51"/><path d="M103,636L155,882L283,731Z" fill="#e4aa5d" stroke="#e4aa5d" stroke-width="1.51"/><path d="M91,515L230,519L264,375Z" fill="#fdad72" stroke="#fdad72" stroke-width="1.51"/><path d="M95,334L91,515L264,375Z" fill="#f9a265" stroke="#f9a265" stroke-width="1.51"/><path d="M95,334L264,375L276,283Z" fill="#fa9f5f" stroke="#fa9f5f" stroke-width="1.51"/><path d="M138,238L95,334L276,283Z" fill="#f79357" stroke="#f79357" stroke-width="1.51"/><path d="M101,-40L172,138L258,-16Z" fill="#ef633d" stroke="#ef633d" stroke-width="1.51"/><path d="M103,636L24,826L155,882Z" fill="#dc9f55" stroke="#dc9f55" stroke-width="1.51"/><path d="M91,515L103,636L230,519Z" fill="#f9ad76" stroke="#f9ad76" stroke-width="1.51"/><path d="M188,-263L101,-40L245,-205Z" fill="#db4531" stroke="#db4531" stroke-width="1.51"/><path d="M118,986L131,1125L241,1042Z" fill="#b6934c" stroke="#b6934c" stroke-width="1.51"/><path d="M35,372L91,515L95,334Z" fill="#f59b60" stroke="#f59b60" stroke-width="1.51"/><path d="M131,1125L-70,1308L162,1321Z" fill="#96753b" stroke="#96753b" stroke-width="1.51"/><path d="M101,-40L12,52L172,138Z" fill="#ec5e3b" stroke="#ec5e3b" stroke-width="1.51"/><path d="M-56,-248L101,-40L188,-263Z" fill="#d2352b" stroke="#d2352b" stroke-width="1.51"/><path d="M-56,-248L-56,-76L101,-40Z" fill="#d63027" stroke="#d63027" stroke-width="1.51"/><path d="M-28,1110L-70,1308L131,1125Z" fill="#9b783c" stroke="#9b783c" stroke-width="1.51"/><path d="M-27,195L138,238L172,138Z" fill="#f17c47" stroke="#f17c47" stroke-width="1.51"/><path d="M12,52L-27,195L172,138Z" fill="#ec6a3f" stroke="#ec6a3f" stroke-width="1.51"/><path d="M24,826L118,986L155,882Z" fill="#cb994c" stroke="#cb994c" stroke-width="1.51"/><path d="M-53,721L24,826L103,636Z" fill="#e09b55" stroke="#e09b55" stroke-width="1.51"/><path d="M24,826L-32,983L118,986Z" fill="#c39147" stroke="#c39147" stroke-width="1.51"/><path d="M118,986L-28,1110L131,1125Z" fill="#af8845" stroke="#af8845" stroke-width="1.51"/><path d="M-27,195L95,334L138,238Z" fill="#f1844c" stroke="#f1844c" stroke-width="1.51"/><path d="M-32,983L-28,1110L118,986Z" fill="#b38844" stroke="#b38844" stroke-width="1.51"/><path d="M91,515L-67,538L103,636Z" fill="#f4a36e" stroke="#f4a36e" stroke-width="1.51"/><path d="M35,372L-67,538L91,515Z" fill="#f49c66" stroke="#f49c66" stroke-width="1.51"/><path d="M-27,195L35,372L95,334Z" fill="#f08850" stroke="#f08850" stroke-width="1.51"/><path d="M-67,538L-53,721L103,636Z" fill="#ea9c61" stroke="#ea9c61" stroke-width="1.51"/><path d="M-56,-76L12,52L101,-40Z" fill="#e14730" stroke="#e14730" stroke-width="1.51"/><path d="M-127,1259L-70,1308L-28,1110Z" fill="#8e6c38" stroke="#8e6c38" stroke-width="1.51"/><path d="M-116,1130L-127,1259L-28,1110Z" fill="#94733c" stroke="#94733c" stroke-width="1.51"/><path d="M-130,838L-32,983L24,826Z" fill="#c48d46" stroke="#c48d46" stroke-width="1.51"/><path d="M-167,372L-67,538L35,372Z" fill="#ea915e" stroke="#ea915e" stroke-width="1.51"/><path d="M-27,195L-144,247L35,372Z" fill="#e97d4a" stroke="#e97d4a" stroke-width="1.51"/><path d="M-144,247L-167,372L35,372Z" fill="#e58350" stroke="#e58350" stroke-width="1.51"/><path d="M-151,103L-27,195L12,52Z" fill="#e35e3b" stroke="#e35e3b" stroke-width="1.51"/><path d="M-53,721L-130,838L24,826Z" fill="#d0924d" stroke="#d0924d" stroke-width="1.51"/><path d="M-56,-76L-148,-35L12,52Z" fill="#d9412f" stroke="#d9412f" stroke-width="1.51"/><path d="M-148,-35L-151,103L12,52Z" fill="#db4a34" stroke="#db4a34" stroke-width="1.51"/><path d="M-182,-189L-56,-76L-56,-248Z" fill="#c42227" stroke="#c42227" stroke-width="1.51"/><path d="M-67,538L-175,683L-53,721Z" fill="#dd965e" stroke="#dd965e" stroke-width="1.51"/><path d="M-213,984L-116,1130L-32,983Z" fill="#a57e43" stroke="#a57e43" stroke-width="1.51"/><path d="M-130,838L-213,984L-32,983Z" fill="#b48545" stroke="#b48545" stroke-width="1.51"/><path d="M-32,983L-116,1130L-28,1110Z" fill="#a57e40" stroke="#a57e40" stroke-width="1.51"/><path d="M-151,103L-144,247L-27,195Z" fill="#df6940" stroke="#df6940" stroke-width="1.51"/><path d="M-167,372L-210,580L-67,538Z" fill="#e39267" stroke="#e39267" stroke-width="1.51"/><path d="M-210,580L-175,683L-67,538Z" fill="#dd9465" stroke="#dd9465" stroke-width="1.51"/><path d="M-182,-189L-148,-35L-56,-76Z" fill="#cb2b29" stroke="#cb2b29" stroke-width="1.51"/><path d="M-175,683L-130,838L-53,721Z" fill="#cf9052" stroke="#cf9052" stroke-width="1.51"/><path d="M-213,984L-127,1259L-116,1130Z" fill="#94733e" stroke="#94733e" stroke-width="1.51"/><path d="M-175,683L-213,984L-130,838Z" fill="#be8849" stroke="#be8849" stroke-width="1.51"/><path d="M-151,103L-167,372L-144,247Z" fill="#dd7146" stroke="#dd7146" stroke-width="1.51"/><path d="M-182,-189L-151,103L-148,-35Z" fill="#cd362d" stroke="#cd362d" stroke-width="1.51"/><path d="M-210,580L-167,372L-151,103Z" fill="#dc8153" stroke="#dc8153" stroke-width="1.51"/><path d="M-182,-189L-210,580L-151,103Z" fill="#d7613e" stroke="#d7613e" stroke-width="1.51"/><path d="M-210,580L-213,984L-175,683Z" fill="#c68a51" stroke="#c68a51" stroke-width="1.51"/></svg>