<svg xmlns="http://www.w3.org/2000/svg" width="1920" height="1080"><path d="M98,-169L289,-150L790,-175Z" fill="#dbe9f6" stroke="#dbe9f6" stroke-width="1.51"/><path d="M819,1222L679,1238L1096,1231Z" fill="#4b75a9" stroke="#4b75a9" stroke-width="1.51"/><path d="M790,-175L912,-173L1128,-179Z" fill="#b4d3eb" stroke="#b4d3eb" stroke-width="1.51"/><path d="M790,-175L1128,-179L1237,-185Z" fill="#adcee8" stroke="#adcee8" stroke-width="1.51"/><path d="M98,-169L790,-175L1237,-185Z" fill="#c6dfef" stroke="#c6dfef" stroke-width="1.51"/><path d="M1096,1231L679,1238L1597,1255Z" fill="#3469a1" stroke="#3469a1" stroke-width="1.51"/><path d="M679,1238L332,1260L1597,1255Z" fill="#4973a5" stroke="#4973a5" stroke-width="1.51"/><path d="M1340,1236L1096,1231L1597,1255Z" fill="#245e9b" stroke="#245e9b" stroke-width="1.51"/><path d="M1597,1255L332,1260L1719,1263Z" fill="#2c639c" stroke="#2c639c" stroke-width="1.51"/><path d="M1562,-173L1734,-179L1858,-189Z" fill="#92a6d1" stroke="#92a6d1" stroke-width="1.51"/><path d="M1237,-185L1562,-173L1858,-189Z" fill="#97b1d9" stroke="#97b1d9" stroke-width="1.51"/><path d="M1842,1219L1719,1263L2014,1254Z" fill="#084286" stroke="#084286" stroke-width="1.51"/><path d="M1858,-189L1959,-121L2052,-154Z" fill="#8996c0" stroke="#8996c0" stroke-width="1.51"/><path d="M2016,-33L2049,101L2052,-154Z" fill="#7e8cb6" stroke="#7e8cb6" stroke-width="1.51"/><path d="M2023,906L2024,965L2056,792Z" fill="#1a5697" stroke="#1a5697" stroke-width="1.51"/><path d="M2024,965L1975,1090L2076,1131Z" fill="#0c488d" stroke="#0c488d" stroke-width="1.51"/><path d="M2056,792L2024,965L2076,1131Z" fill="#134e91" stroke="#134e91" stroke-width="1.51"/><path d="M2049,101L2053,232L2084,339Z" fill="#6a81ae" stroke="#6a81ae" stroke-width="1.51"/><path d="M2052,-154L2049,101L2084,339Z" fill="#7585b1" stroke="#7585b1" stroke-width="1.51"/><path d="M2053,232L1940,313L2084,339Z" fill="#6380ae" stroke="#6380ae" stroke-width="1.51"/><path d="M1960,786L2056,792L2088,687Z" fill="#28619d" stroke="#28619d" stroke-width="1.51"/><path d="M1916,655L1960,786L2088,687Z" fill="#2c68a3" stroke="#2c68a3" stroke-width="1.51"/><path d="M2056,792L2076,1131L2088,687Z" fill="#1b5594" stroke="#1b5594" stroke-width="1.51"/><path d="M1916,655L2088,687L2089,554Z" fill="#366aa2" stroke="#366aa2" stroke-width="1.51"/><path d="M1962,505L1916,655L2089,554Z" fill="#3e71a8" stroke="#3e71a8" stroke-width="1.51"/><path d="M2061,418L1962,505L2089,554Z" fill="#4873a7" stroke="#4873a7" stroke-width="1.51"/><path d="M2084,339L2061,418L2089,554Z" fill="#4f75a5" stroke="#4f75a5" stroke-width="1.51"/><path d="M1932,1198L2014,1254L2076,1131Z" fill="#093d7f" stroke="#093d7f" stroke-width="1.51"/><path d="M1959,-121L2016,-33L2052,-154Z" fill="#8491ba" stroke="#8491ba" stroke-width="1.51"/><path d="M1940,313L2061,418L2084,339Z" fill="#5c7dac" stroke="#5c7dac" stroke-width="1.51"/><path d="M2049,101L1932,220L2053,232Z" fill="#7085b3" stroke="#7085b3" stroke-width="1.51"/><path d="M1975,1090L1932,1198L2076,1131Z" fill="#094387" stroke="#094387" stroke-width="1.51"/><path d="M2016,-33L1938,-33L2049,101Z" fill="#7c8db8" stroke="#7c8db8" stroke-width="1.51"/><path d="M1938,-33L1911,112L2049,101Z" fill="#7a8dbb" stroke="#7a8dbb" stroke-width="1.51"/><path d="M1911,112L1932,220L2049,101Z" fill="#758ab9" stroke="#758ab9" stroke-width="1.51"/><path d="M1960,786L2023,906L2056,792Z" fill="#205c9b" stroke="#205c9b" stroke-width="1.51"/><path d="M1913,429L1962,505L2061,418Z" fill="#507aad" stroke="#507aad" stroke-width="1.51"/><path d="M1940,313L1913,429L2061,418Z" fill="#597fb0" stroke="#597fb0" stroke-width="1.51"/><path d="M1932,220L1940,313L2053,232Z" fill="#6985b4" stroke="#6985b4" stroke-width="1.51"/><path d="M1932,1198L1842,1219L2014,1254Z" fill="#093f82" stroke="#093f82" stroke-width="1.51"/><path d="M1959,-121L1938,-33L2016,-33Z" fill="#8292bd" stroke="#8292bd" stroke-width="1.51"/><path d="M1960,786L1945,916L2023,906Z" fill="#1c5b9d" stroke="#1c5b9d" stroke-width="1.51"/><path d="M1905,1032L1975,1090L2024,965Z" fill="#0f4e94" stroke="#0f4e94" stroke-width="1.51"/><path d="M1945,916L1905,1032L2024,965Z" fill="#135498" stroke="#135498" stroke-width="1.51"/><path d="M2023,906L1945,916L2024,965Z" fill="#165598" stroke="#165598" stroke-width="1.51"/><path d="M1826,-3L1911,112L1938,-33Z" fill="#7f94c2" stroke="#7f94c2" stroke-width="1.51"/><path d="M1916,655L1812,770L1960,786Z" fill="#2b6baa" stroke="#2b6baa" stroke-width="1.51"/><path d="M1818,888L1945,916L1960,786Z" fill="#1e60a3" stroke="#1e60a3" stroke-width="1.51"/><path d="M1853,637L1916,655L1962,505Z" fill="#3c74af" stroke="#3c74af" stroke-width="1.51"/><path d="M1857,1145L1932,1198L1975,1090Z" fill="#09478d" stroke="#09478d" stroke-width="1.51"/><path d="M1905,1032L1857,1145L1975,1090Z" fill="#0a4c95" stroke="#0a4c95" stroke-width="1.51"/><path d="M1836,996L1905,1032L1945,916Z" fill="#13569d" stroke="#13569d" stroke-width="1.51"/><path d="M1858,-189L1938,-33L1959,-121Z" fill="#8897c2" stroke="#8897c2" stroke-width="1.51"/><path d="M1812,770L1818,888L1960,786Z" fill="#2366a9" stroke="#2366a9" stroke-width="1.51"/><path d="M1913,429L1800,507L1962,505Z" fill="#4d7eb5" stroke="#4d7eb5" stroke-width="1.51"/><path d="M1800,507L1853,637L1962,505Z" fill="#437ab4" stroke="#437ab4" stroke-width="1.51"/><path d="M1814,454L1800,507L1913,429Z" fill="#5182ba" stroke="#5182ba" stroke-width="1.51"/><path d="M1911,112L1835,205L1932,220Z" fill="#748ebf" stroke="#748ebf" stroke-width="1.51"/><path d="M1858,-189L1826,-3L1938,-33Z" fill="#8699c6" stroke="#8699c6" stroke-width="1.51"/><path d="M1932,220L1840,279L1940,313Z" fill="#6a88ba" stroke="#6a88ba" stroke-width="1.51"/><path d="M1840,279L1913,429L1940,313Z" fill="#6286b8" stroke="#6286b8" stroke-width="1.51"/><path d="M1818,888L1836,996L1945,916Z" fill="#155da3" stroke="#155da3" stroke-width="1.51"/><path d="M1853,637L1812,770L1916,655Z" fill="#3271af" stroke="#3271af" stroke-width="1.51"/><path d="M1826,-3L1810,96L1911,112Z" fill="#7e95c5" stroke="#7e95c5" stroke-width="1.51"/><path d="M1840,279L1814,454L1913,429Z" fill="#5c86ba" stroke="#5c86ba" stroke-width="1.51"/><path d="M1857,1145L1842,1219L1932,1198Z" fill="#09468b" stroke="#09468b" stroke-width="1.51"/><path d="M1835,205L1840,279L1932,220Z" fill="#6f8dbf" stroke="#6f8dbf" stroke-width="1.51"/><path d="M1836,996L1857,1145L1905,1032Z" fill="#0c529b" stroke="#0c529b" stroke-width="1.51"/><path d="M1810,96L1835,205L1911,112Z" fill="#7991c3" stroke="#7991c3" stroke-width="1.51"/><path d="M1237,-185L1477,-155L1562,-173Z" fill="#9bb8dc" stroke="#9bb8dc" stroke-width="1.51"/><path d="M1734,-179L1826,-3L1858,-189Z" fill="#8c9fcc" stroke="#8c9fcc" stroke-width="1.51"/><path d="M1726,311L1711,417L1814,454Z" fill="#5e8cc0" stroke="#5e8cc0" stroke-width="1.51"/><path d="M1734,-179L1689,-10L1826,-3Z" fill="#8aa0cd" stroke="#8aa0cd" stroke-width="1.51"/><path d="M1726,311L1814,454L1840,279Z" fill="#648cc0" stroke="#648cc0" stroke-width="1.51"/><path d="M1800,507L1738,536L1853,637Z" fill="#437eb9" stroke="#437eb9" stroke-width="1.51"/><path d="M1669,685L1812,770L1853,637Z" fill="#3275b4" stroke="#3275b4" stroke-width="1.51"/><path d="M1836,996L1743,1014L1857,1145Z" fill="#0d55a0" stroke="#0d55a0" stroke-width="1.51"/><path d="M1743,1014L1716,1122L1857,1145Z" fill="#0c549e" stroke="#0c549e" stroke-width="1.51"/><path d="M1716,1122L1842,1219L1857,1145Z" fill="#0a4c95" stroke="#0a4c95" stroke-width="1.51"/><path d="M1818,888L1741,905L1836,996Z" fill="#1761a8" stroke="#1761a8" stroke-width="1.51"/><path d="M1738,536L1669,685L1853,637Z" fill="#3d7db8" stroke="#3d7db8" stroke-width="1.51"/><path d="M1812,770L1741,905L1818,888Z" fill="#2068ac" stroke="#2068ac" stroke-width="1.51"/><path d="M1810,96L1702,182L1835,205Z" fill="#7995c7" stroke="#7995c7" stroke-width="1.51"/><path d="M1741,905L1743,1014L1836,996Z" fill="#155ea6" stroke="#155ea6" stroke-width="1.51"/><path d="M1835,205L1726,311L1840,279Z" fill="#6d90c3" stroke="#6d90c3" stroke-width="1.51"/><path d="M1716,1122L1719,1263L1842,1219Z" fill="#0d4b91" stroke="#0d4b91" stroke-width="1.51"/><path d="M1669,685L1671,732L1812,770Z" fill="#2f77b5" stroke="#2f77b5" stroke-width="1.51"/><path d="M1702,182L1726,311L1835,205Z" fill="#7294c6" stroke="#7294c6" stroke-width="1.51"/><path d="M1712,109L1702,182L1810,96Z" fill="#7d99ca" stroke="#7d99ca" stroke-width="1.51"/><path d="M1689,-10L1810,96L1826,-3Z" fill="#839bca" stroke="#839bca" stroke-width="1.51"/><path d="M1689,-10L1712,109L1810,96Z" fill="#819ccb" stroke="#819ccb" stroke-width="1.51"/><path d="M289,-150L586,-142L790,-175Z" fill="#d0e4f2" stroke="#d0e4f2" stroke-width="1.51"/><path d="M1671,732L1741,905L1812,770Z" fill="#276fb1" stroke="#276fb1" stroke-width="1.51"/><path d="M1711,417L1800,507L1814,454Z" fill="#5386bd" stroke="#5386bd" stroke-width="1.51"/><path d="M1711,417L1738,536L1800,507Z" fill="#5086bd" stroke="#5086bd" stroke-width="1.51"/><path d="M912,-173L984,-168L1128,-179Z" fill="#afd0e9" stroke="#afd0e9" stroke-width="1.51"/><path d="M1716,1122L1597,1255L1719,1263Z" fill="#114f93" stroke="#114f93" stroke-width="1.51"/><path d="M1629,314L1711,417L1726,311Z" fill="#6693c5" stroke="#6693c5" stroke-width="1.51"/><path d="M1702,182L1629,314L1726,311Z" fill="#7097c8" stroke="#7097c8" stroke-width="1.51"/><path d="M1587,-37L1689,-10L1734,-179Z" fill="#8ca6d1" stroke="#8ca6d1" stroke-width="1.51"/><path d="M1562,-173L1587,-37L1734,-179Z" fill="#92aad5" stroke="#92aad5" stroke-width="1.51"/><path d="M1583,537L1669,685L1738,536Z" fill="#4384be" stroke="#4384be" stroke-width="1.51"/><path d="M1711,417L1625,414L1738,536Z" fill="#568bc1" stroke="#568bc1" stroke-width="1.51"/><path d="M1625,414L1583,537L1738,536Z" fill="#508bc2" stroke="#508bc2" stroke-width="1.51"/><path d="M1602,868L1567,975L1741,905Z" fill="#1e6bb0" stroke="#1e6bb0" stroke-width="1.51"/><path d="M1671,732L1602,868L1741,905Z" fill="#2670b2" stroke="#2670b2" stroke-width="1.51"/><path d="M1621,1087L1716,1122L1743,1014Z" fill="#125aa3" stroke="#125aa3" stroke-width="1.51"/><path d="M1741,905L1567,975L1743,1014Z" fill="#1a64ab" stroke="#1a64ab" stroke-width="1.51"/><path d="M1567,975L1621,1087L1743,1014Z" fill="#1861a8" stroke="#1861a8" stroke-width="1.51"/><path d="M1629,314L1625,414L1711,417Z" fill="#6393c5" stroke="#6393c5" stroke-width="1.51"/><path d="M1689,-10L1567,104L1712,109Z" fill="#83a0ce" stroke="#83a0ce" stroke-width="1.51"/><path d="M1621,1087L1597,1255L1716,1122Z" fill="#13569c" stroke="#13569c" stroke-width="1.51"/><path d="M1615,736L1602,868L1671,732Z" fill="#2d77b7" stroke="#2d77b7" stroke-width="1.51"/><path d="M1573,196L1629,314L1702,182Z" fill="#759bcb" stroke="#759bcb" stroke-width="1.51"/><path d="M1567,104L1702,182L1712,109Z" fill="#7e9ecd" stroke="#7e9ecd" stroke-width="1.51"/><path d="M1583,537L1588,690L1669,685Z" fill="#3e83be" stroke="#3e83be" stroke-width="1.51"/><path d="M1587,-37L1567,104L1689,-10Z" fill="#88a5d2" stroke="#88a5d2" stroke-width="1.51"/><path d="M1567,104L1573,196L1702,182Z" fill="#7e9fcf" stroke="#7e9fcf" stroke-width="1.51"/><path d="M1669,685L1615,736L1671,732Z" fill="#327bb9" stroke="#327bb9" stroke-width="1.51"/><path d="M1508,1115L1597,1255L1621,1087Z" fill="#155a9f" stroke="#155a9f" stroke-width="1.51"/><path d="M1588,690L1615,736L1669,685Z" fill="#357eba" stroke="#357eba" stroke-width="1.51"/><path d="M1583,537L1505,559L1588,690Z" fill="#4589c2" stroke="#4589c2" stroke-width="1.51"/><path d="M1468,1195L1340,1236L1597,1255Z" fill="#1c5999" stroke="#1c5999" stroke-width="1.51"/><path d="M1508,1115L1468,1195L1597,1255Z" fill="#18599d" stroke="#18599d" stroke-width="1.51"/><path d="M1452,735L1602,868L1615,736Z" fill="#2e7cba" stroke="#2e7cba" stroke-width="1.51"/><path d="M1567,975L1508,1115L1621,1087Z" fill="#1863aa" stroke="#1863aa" stroke-width="1.51"/><path d="M1458,427L1583,537L1625,414Z" fill="#5993c7" stroke="#5993c7" stroke-width="1.51"/><path d="M1573,196L1449,300L1629,314Z" fill="#739fce" stroke="#739fce" stroke-width="1.51"/><path d="M1458,427L1625,414L1629,314Z" fill="#6498c9" stroke="#6498c9" stroke-width="1.51"/><path d="M1449,300L1458,427L1629,314Z" fill="#6b9ecc" stroke="#6b9ecc" stroke-width="1.51"/><path d="M1452,735L1489,902L1602,868Z" fill="#2b79b9" stroke="#2b79b9" stroke-width="1.51"/><path d="M1489,-35L1567,104L1587,-37Z" fill="#8aaad5" stroke="#8aaad5" stroke-width="1.51"/><path d="M1562,-173L1489,-35L1587,-37Z" fill="#90add7" stroke="#90add7" stroke-width="1.51"/><path d="M1505,559L1462,644L1588,690Z" fill="#4189c2" stroke="#4189c2" stroke-width="1.51"/><path d="M1489,902L1567,975L1602,868Z" fill="#2170b4" stroke="#2170b4" stroke-width="1.51"/><path d="M1588,690L1452,735L1615,736Z" fill="#3481be" stroke="#3481be" stroke-width="1.51"/><path d="M1237,-185L1400,-134L1477,-155Z" fill="#9cbcde" stroke="#9cbcde" stroke-width="1.51"/><path d="M1477,-155L1489,-35L1562,-173Z" fill="#94b1d9" stroke="#94b1d9" stroke-width="1.51"/><path d="M1458,427L1505,559L1583,537Z" fill="#5292c7" stroke="#5292c7" stroke-width="1.51"/><path d="M289,-150L414,-137L586,-142Z" fill="#d7e6f5" stroke="#d7e6f5" stroke-width="1.51"/><path d="M1489,-35L1454,101L1567,104Z" fill="#88abd6" stroke="#88abd6" stroke-width="1.51"/><path d="M1440,215L1449,300L1573,196Z" fill="#79a4d1" stroke="#79a4d1" stroke-width="1.51"/><path d="M1462,644L1452,735L1588,690Z" fill="#3a86c0" stroke="#3a86c0" stroke-width="1.51"/><path d="M1441,969L1508,1115L1567,975Z" fill="#1e69af" stroke="#1e69af" stroke-width="1.51"/><path d="M1567,104L1454,101L1573,196Z" fill="#82a6d3" stroke="#82a6d3" stroke-width="1.51"/><path d="M1454,101L1440,215L1573,196Z" fill="#81a7d4" stroke="#81a7d4" stroke-width="1.51"/><path d="M1489,902L1441,969L1567,975Z" fill="#2270b3" stroke="#2270b3" stroke-width="1.51"/><path d="M1348,1032L1352,1097L1441,969Z" fill="#276fb1" stroke="#276fb1" stroke-width="1.51"/><path d="M1333,773L1333,877L1452,735Z" fill="#3784c0" stroke="#3784c0" stroke-width="1.51"/><path d="M1477,-155L1400,-134L1489,-35Z" fill="#96b4db" stroke="#96b4db" stroke-width="1.51"/><path d="M1452,735L1333,877L1489,902Z" fill="#307dbc" stroke="#307dbc" stroke-width="1.51"/><path d="M1384,570L1462,644L1505,559Z" fill="#4a90c6" stroke="#4a90c6" stroke-width="1.51"/><path d="M1458,427L1384,570L1505,559Z" fill="#5395c9" stroke="#5395c9" stroke-width="1.51"/><path d="M1352,1097L1468,1195L1508,1115Z" fill="#1f63a6" stroke="#1f63a6" stroke-width="1.51"/><path d="M1441,969L1352,1097L1508,1115Z" fill="#226aae" stroke="#226aae" stroke-width="1.51"/><path d="M1329,-26L1454,101L1489,-35Z" fill="#8fb1d9" stroke="#8fb1d9" stroke-width="1.51"/><path d="M1329,-26L1366,109L1454,101Z" fill="#8db2d9" stroke="#8db2d9" stroke-width="1.51"/><path d="M1449,300L1391,408L1458,427Z" fill="#6aa1ce" stroke="#6aa1ce" stroke-width="1.51"/><path d="M1400,-134L1329,-26L1489,-35Z" fill="#95b6db" stroke="#95b6db" stroke-width="1.51"/><path d="M1333,877L1441,969L1489,902Z" fill="#2977b9" stroke="#2977b9" stroke-width="1.51"/><path d="M1393,302L1391,408L1449,300Z" fill="#70a4cf" stroke="#70a4cf" stroke-width="1.51"/><path d="M1366,109L1440,215L1454,101Z" fill="#85acd6" stroke="#85acd6" stroke-width="1.51"/><path d="M1391,408L1384,570L1458,427Z" fill="#5d9bcb" stroke="#5d9bcb" stroke-width="1.51"/><path d="M1375,666L1452,735L1462,644Z" fill="#3f8bc3" stroke="#3f8bc3" stroke-width="1.51"/><path d="M1440,215L1393,302L1449,300Z" fill="#77a6d1" stroke="#77a6d1" stroke-width="1.51"/><path d="M1352,1097L1340,1236L1468,1195Z" fill="#2262a3" stroke="#2262a3" stroke-width="1.51"/><path d="M1384,570L1375,666L1462,644Z" fill="#4790c6" stroke="#4790c6" stroke-width="1.51"/><path d="M1366,109L1334,217L1440,215Z" fill="#84add6" stroke="#84add6" stroke-width="1.51"/><path d="M1375,666L1333,773L1452,735Z" fill="#3c8ac2" stroke="#3c8ac2" stroke-width="1.51"/><path d="M-29,1214L-129,1217L332,1260Z" fill="#7f8eb8" stroke="#7f8eb8" stroke-width="1.51"/><path d="M1334,217L1393,302L1440,215Z" fill="#7caad4" stroke="#7caad4" stroke-width="1.51"/><path d="M1333,877L1348,1032L1441,969Z" fill="#2a76b7" stroke="#2a76b7" stroke-width="1.51"/><path d="M1227,1194L1096,1231L1340,1236Z" fill="#2c67a1" stroke="#2c67a1" stroke-width="1.51"/><path d="M1333,877L1251,963L1348,1032Z" fill="#2e7ab8" stroke="#2e7ab8" stroke-width="1.51"/><path d="M1329,-26L1262,73L1366,109Z" fill="#90b6db" stroke="#90b6db" stroke-width="1.51"/><path d="M1252,516L1384,570L1391,408Z" fill="#5b9dcc" stroke="#5b9dcc" stroke-width="1.51"/><path d="M1277,302L1391,408L1393,302Z" fill="#72a8d1" stroke="#72a8d1" stroke-width="1.51"/><path d="M1237,-185L1329,-26L1400,-134Z" fill="#9bbcdf" stroke="#9bbcdf" stroke-width="1.51"/><path d="M1258,659L1375,666L1384,570Z" fill="#4993c8" stroke="#4993c8" stroke-width="1.51"/><path d="M1277,302L1223,398L1391,408Z" fill="#70a9d2" stroke="#70a9d2" stroke-width="1.51"/><path d="M1223,398L1252,516L1391,408Z" fill="#66a5d0" stroke="#66a5d0" stroke-width="1.51"/><path d="M1334,217L1277,302L1393,302Z" fill="#7aacd4" stroke="#7aacd4" stroke-width="1.51"/><path d="M1252,1114L1340,1236L1352,1097Z" fill="#2768a8" stroke="#2768a8" stroke-width="1.51"/><path d="M1258,659L1333,773L1375,666Z" fill="#428fc5" stroke="#428fc5" stroke-width="1.51"/><path d="M1252,516L1258,659L1384,570Z" fill="#519acb" stroke="#519acb" stroke-width="1.51"/><path d="M67,1217L-29,1214L332,1260Z" fill="#7d8cb7" stroke="#7d8cb7" stroke-width="1.51"/><path d="M1237,-185L1226,-40L1329,-26Z" fill="#9bbfe0" stroke="#9bbfe0" stroke-width="1.51"/><path d="M1248,207L1334,217L1366,109Z" fill="#87b1d8" stroke="#87b1d8" stroke-width="1.51"/><path d="M1252,1114L1227,1194L1340,1236Z" fill="#2a67a5" stroke="#2a67a5" stroke-width="1.51"/><path d="M1262,73L1248,207L1366,109Z" fill="#8bb5da" stroke="#8bb5da" stroke-width="1.51"/><path d="M1270,780L1333,877L1333,773Z" fill="#3986c0" stroke="#3986c0" stroke-width="1.51"/><path d="M1258,659L1270,780L1333,773Z" fill="#3f8ec5" stroke="#3f8ec5" stroke-width="1.51"/><path d="M1348,1032L1252,1114L1352,1097Z" fill="#296eb0" stroke="#296eb0" stroke-width="1.51"/><path d="M1251,963L1252,1114L1348,1032Z" fill="#2d75b4" stroke="#2d75b4" stroke-width="1.51"/><path d="M1270,780L1237,878L1333,877Z" fill="#3785c0" stroke="#3785c0" stroke-width="1.51"/><path d="M1237,878L1251,963L1333,877Z" fill="#3380bd" stroke="#3380bd" stroke-width="1.51"/><path d="M1248,207L1277,302L1334,217Z" fill="#80b0d7" stroke="#80b0d7" stroke-width="1.51"/><path d="M1226,-40L1262,73L1329,-26Z" fill="#95bbde" stroke="#95bbde" stroke-width="1.51"/><path d="M884,1203L819,1222L1029,1207Z" fill="#4775ab" stroke="#4775ab" stroke-width="1.51"/><path d="M1029,1207L819,1222L1096,1231Z" fill="#3f72a8" stroke="#3f72a8" stroke-width="1.51"/><path d="M1103,102L1125,200L1248,207Z" fill="#8fbadd" stroke="#8fbadd" stroke-width="1.51"/><path d="M1251,963L1153,1002L1252,1114Z" fill="#3279b7" stroke="#3279b7" stroke-width="1.51"/><path d="M1153,1002L1134,1088L1252,1114Z" fill="#3477b5" stroke="#3477b5" stroke-width="1.51"/><path d="M1252,516L1139,617L1258,659Z" fill="#539dcd" stroke="#539dcd" stroke-width="1.51"/><path d="M1226,-40L1148,-4L1262,73Z" fill="#97bedf" stroke="#97bedf" stroke-width="1.51"/><path d="M1103,102L1248,207L1262,73Z" fill="#8fb9dd" stroke="#8fb9dd" stroke-width="1.51"/><path d="M1258,659L1112,772L1270,780Z" fill="#4592c6" stroke="#4592c6" stroke-width="1.51"/><path d="M1160,397L1223,398L1277,302Z" fill="#74aed4" stroke="#74aed4" stroke-width="1.51"/><path d="M1109,284L1160,397L1277,302Z" fill="#7cb2d7" stroke="#7cb2d7" stroke-width="1.51"/><path d="M1248,207L1109,284L1277,302Z" fill="#81b3d8" stroke="#81b3d8" stroke-width="1.51"/><path d="M1128,-179L1226,-40L1237,-185Z" fill="#a2c5e3" stroke="#a2c5e3" stroke-width="1.51"/><path d="M1112,772L1237,878L1270,780Z" fill="#3f8cc3" stroke="#3f8cc3" stroke-width="1.51"/><path d="M1125,200L1109,284L1248,207Z" fill="#89b7db" stroke="#89b7db" stroke-width="1.51"/><path d="M1237,878L1171,905L1251,963Z" fill="#3683bf" stroke="#3683bf" stroke-width="1.51"/><path d="M1223,398L1160,397L1252,516Z" fill="#6aa9d2" stroke="#6aa9d2" stroke-width="1.51"/><path d="M1139,617L1112,772L1258,659Z" fill="#4e99ca" stroke="#4e99ca" stroke-width="1.51"/><path d="M1148,-4L1103,102L1262,73Z" fill="#96bedf" stroke="#96bedf" stroke-width="1.51"/><path d="M1112,772L1171,905L1237,878Z" fill="#3f8ac3" stroke="#3f8ac3" stroke-width="1.51"/><path d="M1134,1088L1227,1194L1252,1114Z" fill="#306fae" stroke="#306fae" stroke-width="1.51"/><path d="M1160,397L1096,551L1252,516Z" fill="#65a8d2" stroke="#65a8d2" stroke-width="1.51"/><path d="M1096,551L1139,617L1252,516Z" fill="#5ba2d0" stroke="#5ba2d0" stroke-width="1.51"/><path d="M1171,905L1153,1002L1251,963Z" fill="#3780bc" stroke="#3780bc" stroke-width="1.51"/><path d="M1128,-179L1148,-4L1226,-40Z" fill="#a0c4e2" stroke="#a0c4e2" stroke-width="1.51"/><path d="M1134,1088L1096,1231L1227,1194Z" fill="#346eaa" stroke="#346eaa" stroke-width="1.51"/><path d="M1032,656L1112,772L1139,617Z" fill="#539dcc" stroke="#539dcc" stroke-width="1.51"/><path d="M1128,-179L993,-26L1148,-4Z" fill="#a4c7e4" stroke="#a4c7e4" stroke-width="1.51"/><path d="M1053,849L982,977L1153,1002Z" fill="#4287c1" stroke="#4287c1" stroke-width="1.51"/><path d="M999,508L1096,551L1160,397Z" fill="#6bacd4" stroke="#6bacd4" stroke-width="1.51"/><path d="M988,393L999,508L1160,397Z" fill="#75b1d7" stroke="#75b1d7" stroke-width="1.51"/><path d="M1053,849L1153,1002L1171,905Z" fill="#3f87c1" stroke="#3f87c1" stroke-width="1.51"/><path d="M1112,772L1053,849L1171,905Z" fill="#458ec5" stroke="#458ec5" stroke-width="1.51"/><path d="M1023,1107L1029,1207L1096,1231Z" fill="#3c72ab" stroke="#3c72ab" stroke-width="1.51"/><path d="M984,-168L993,-26L1128,-179Z" fill="#abcde7" stroke="#abcde7" stroke-width="1.51"/><path d="M1023,1107L1096,1231L1134,1088Z" fill="#3a74b0" stroke="#3a74b0" stroke-width="1.51"/><path d="M1109,284L1024,321L1160,397Z" fill="#80b6d8" stroke="#80b6d8" stroke-width="1.51"/><path d="M1024,321L988,393L1160,397Z" fill="#7eb5d9" stroke="#7eb5d9" stroke-width="1.51"/><path d="M1002,67L1103,102L1148,-4Z" fill="#9bc2e2" stroke="#9bc2e2" stroke-width="1.51"/><path d="M1023,1107L1134,1088L1153,1002Z" fill="#3b7bb7" stroke="#3b7bb7" stroke-width="1.51"/><path d="M982,977L1023,1107L1153,1002Z" fill="#4080bb" stroke="#4080bb" stroke-width="1.51"/><path d="M993,-26L1002,67L1148,-4Z" fill="#a0c6e4" stroke="#a0c6e4" stroke-width="1.51"/><path d="M1096,551L1032,656L1139,617Z" fill="#5ca2d0" stroke="#5ca2d0" stroke-width="1.51"/><path d="M1103,102L1013,194L1125,200Z" fill="#94bedf" stroke="#94bedf" stroke-width="1.51"/><path d="M1013,194L1109,284L1125,200Z" fill="#8dbcdd" stroke="#8dbcdd" stroke-width="1.51"/><path d="M1032,656L998,780L1112,772Z" fill="#519acb" stroke="#519acb" stroke-width="1.51"/><path d="M98,-169L234,-151L289,-150Z" fill="#e3eef9" stroke="#e3eef9" stroke-width="1.51"/><path d="M1013,194L1024,321L1109,284Z" fill="#8abbdc" stroke="#8abbdc" stroke-width="1.51"/><path d="M998,780L1053,849L1112,772Z" fill="#4c95c8" stroke="#4c95c8" stroke-width="1.51"/><path d="M1002,67L1013,194L1103,102Z" fill="#9ac2e2" stroke="#9ac2e2" stroke-width="1.51"/><path d="M999,508L1032,656L1096,551Z" fill="#63a7d2" stroke="#63a7d2" stroke-width="1.51"/><path d="M984,-168L933,-65L993,-26Z" fill="#accee8" stroke="#accee8" stroke-width="1.51"/><path d="M1002,67L938,167L1013,194Z" fill="#9bc4e3" stroke="#9bc4e3" stroke-width="1.51"/><path d="M999,508L928,527L1032,656Z" fill="#67aad4" stroke="#67aad4" stroke-width="1.51"/><path d="M998,780L875,883L1053,849Z" fill="#4f95c9" stroke="#4f95c9" stroke-width="1.51"/><path d="M875,883L982,977L1053,849Z" fill="#4c8fc6" stroke="#4c8fc6" stroke-width="1.51"/><path d="M875,883L916,969L982,977Z" fill="#4f8ec4" stroke="#4f8ec4" stroke-width="1.51"/><path d="M902,659L906,768L998,780Z" fill="#5aa0ce" stroke="#5aa0ce" stroke-width="1.51"/><path d="M988,393L913,451L999,508Z" fill="#77b4d9" stroke="#77b4d9" stroke-width="1.51"/><path d="M916,117L938,167L1002,67Z" fill="#9fc7e4" stroke="#9fc7e4" stroke-width="1.51"/><path d="M938,167L938,337L1013,194Z" fill="#93c1e0" stroke="#93c1e0" stroke-width="1.51"/><path d="M982,977L916,969L1023,1107Z" fill="#4785be" stroke="#4785be" stroke-width="1.51"/><path d="M1013,194L938,337L1024,321Z" fill="#8cbddd" stroke="#8cbddd" stroke-width="1.51"/><path d="M1023,1107L880,1150L1029,1207Z" fill="#4278b1" stroke="#4278b1" stroke-width="1.51"/><path d="M880,1150L884,1203L1029,1207Z" fill="#4677ad" stroke="#4677ad" stroke-width="1.51"/><path d="M902,659L998,780L1032,656Z" fill="#5aa1ce" stroke="#5aa1ce" stroke-width="1.51"/><path d="M928,527L902,659L1032,656Z" fill="#64a9d3" stroke="#64a9d3" stroke-width="1.51"/><path d="M916,969L880,1150L1023,1107Z" fill="#4881bb" stroke="#4881bb" stroke-width="1.51"/><path d="M938,337L988,393L1024,321Z" fill="#85bbdb" stroke="#85bbdb" stroke-width="1.51"/><path d="M906,768L875,883L998,780Z" fill="#569acb" stroke="#569acb" stroke-width="1.51"/><path d="M912,-173L933,-65L984,-168Z" fill="#b1d2ea" stroke="#b1d2ea" stroke-width="1.51"/><path d="M933,-65L916,117L993,-26Z" fill="#a6cbe6" stroke="#a6cbe6" stroke-width="1.51"/><path d="M913,451L928,527L999,508Z" fill="#73b2d8" stroke="#73b2d8" stroke-width="1.51"/><path d="M993,-26L916,117L1002,67Z" fill="#a2c9e5" stroke="#a2c9e5" stroke-width="1.51"/><path d="M938,337L913,451L988,393Z" fill="#82b9db" stroke="#82b9db" stroke-width="1.51"/><path d="M822,93L916,117L933,-65Z" fill="#a8cde7" stroke="#a8cde7" stroke-width="1.51"/><path d="M794,1019L880,1150L916,969Z" fill="#5187be" stroke="#5187be" stroke-width="1.51"/><path d="M757,536L902,659L928,527Z" fill="#71b0d7" stroke="#71b0d7" stroke-width="1.51"/><path d="M760,-61L822,93L933,-65Z" fill="#b1d2e9" stroke="#b1d2e9" stroke-width="1.51"/><path d="M912,-173L790,-175L933,-65Z" fill="#b6d5eb" stroke="#b6d5eb" stroke-width="1.51"/><path d="M790,-175L760,-61L933,-65Z" fill="#b8d6eb" stroke="#b8d6eb" stroke-width="1.51"/><path d="M916,117L822,93L938,167Z" fill="#a3c9e5" stroke="#a3c9e5" stroke-width="1.51"/><path d="M822,93L752,214L938,167Z" fill="#a6cbe5" stroke="#a6cbe5" stroke-width="1.51"/><path d="M780,391L913,451L938,337Z" fill="#88bddc" stroke="#88bddc" stroke-width="1.51"/><path d="M781,348L780,391L938,337Z" fill="#90c1de" stroke="#90c1de" stroke-width="1.51"/><path d="M938,167L752,214L938,337Z" fill="#9ac5e2" stroke="#9ac5e2" stroke-width="1.51"/><path d="M752,214L781,348L938,337Z" fill="#97c5e0" stroke="#97c5e0" stroke-width="1.51"/><path d="M757,536L754,631L902,659Z" fill="#73b0d6" stroke="#73b0d6" stroke-width="1.51"/><path d="M913,451L757,536L928,527Z" fill="#79b5d9" stroke="#79b5d9" stroke-width="1.51"/><path d="M902,659L786,790L906,768Z" fill="#61a3d0" stroke="#61a3d0" stroke-width="1.51"/><path d="M786,790L875,883L906,768Z" fill="#5e9ccc" stroke="#5e9ccc" stroke-width="1.51"/><path d="M875,883L794,1019L916,969Z" fill="#558fc5" stroke="#558fc5" stroke-width="1.51"/><path d="M586,-142L678,-136L790,-175Z" fill="#c6dfef" stroke="#c6dfef" stroke-width="1.51"/><path d="M780,391L757,536L913,451Z" fill="#84bbdc" stroke="#84bbdc" stroke-width="1.51"/><path d="M794,1019L750,1099L880,1150Z" fill="#5586bc" stroke="#5586bc" stroke-width="1.51"/><path d="M754,631L786,790L902,659Z" fill="#6aa9d3" stroke="#6aa9d3" stroke-width="1.51"/><path d="M761,868L794,1019L875,883Z" fill="#5c94c8" stroke="#5c94c8" stroke-width="1.51"/><path d="M786,790L761,868L875,883Z" fill="#609ccc" stroke="#609ccc" stroke-width="1.51"/><path d="M880,1150L819,1222L884,1203Z" fill="#4d7aae" stroke="#4d7aae" stroke-width="1.51"/><path d="M750,1099L819,1222L880,1150Z" fill="#527fb4" stroke="#527fb4" stroke-width="1.51"/><path d="M576,1206L332,1260L679,1238Z" fill="#6781af" stroke="#6781af" stroke-width="1.51"/><path d="M662,-18L696,104L760,-61Z" fill="#bad8eb" stroke="#bad8eb" stroke-width="1.51"/><path d="M697,516L757,536L780,391Z" fill="#87bddc" stroke="#87bddc" stroke-width="1.51"/><path d="M754,631L682,670L786,790Z" fill="#71acd4" stroke="#71acd4" stroke-width="1.51"/><path d="M750,1099L679,1238L819,1222Z" fill="#577fb1" stroke="#577fb1" stroke-width="1.51"/><path d="M760,-61L696,104L822,93Z" fill="#b3d3e9" stroke="#b3d3e9" stroke-width="1.51"/><path d="M696,104L752,214L822,93Z" fill="#aecfe7" stroke="#aecfe7" stroke-width="1.51"/><path d="M696,104L697,204L752,214Z" fill="#aed0e6" stroke="#aed0e6" stroke-width="1.51"/><path d="M645,865L675,1037L761,868Z" fill="#679aca" stroke="#679aca" stroke-width="1.51"/><path d="M667,405L697,516L780,391Z" fill="#90c1de" stroke="#90c1de" stroke-width="1.51"/><path d="M752,214L661,329L781,348Z" fill="#9fc9e2" stroke="#9fc9e2" stroke-width="1.51"/><path d="M682,670L648,763L786,790Z" fill="#71aad3" stroke="#71aad3" stroke-width="1.51"/><path d="M678,-136L760,-61L790,-175Z" fill="#c0dbec" stroke="#c0dbec" stroke-width="1.51"/><path d="M761,868L675,1037L794,1019Z" fill="#6093c6" stroke="#6093c6" stroke-width="1.51"/><path d="M675,1037L750,1099L794,1019Z" fill="#5e8cc1" stroke="#5e8cc1" stroke-width="1.51"/><path d="M648,763L761,868L786,790Z" fill="#6aa3cf" stroke="#6aa3cf" stroke-width="1.51"/><path d="M697,204L661,329L752,214Z" fill="#a7cde4" stroke="#a7cde4" stroke-width="1.51"/><path d="M648,763L645,865L761,868Z" fill="#6da3cf" stroke="#6da3cf" stroke-width="1.51"/><path d="M667,405L780,391L781,348Z" fill="#95c4df" stroke="#95c4df" stroke-width="1.51"/><path d="M661,329L667,405L781,348Z" fill="#9bc8e1" stroke="#9bc8e1" stroke-width="1.51"/><path d="M656,1077L679,1238L750,1099Z" fill="#5e86b9" stroke="#5e86b9" stroke-width="1.51"/><path d="M697,516L682,670L754,631Z" fill="#7cb5d8" stroke="#7cb5d8" stroke-width="1.51"/><path d="M697,516L754,631L757,536Z" fill="#7eb7da" stroke="#7eb7da" stroke-width="1.51"/><path d="M678,-136L662,-18L760,-61Z" fill="#c0dbec" stroke="#c0dbec" stroke-width="1.51"/><path d="M434,1204L332,1260L576,1206Z" fill="#6d84b2" stroke="#6d84b2" stroke-width="1.51"/><path d="M675,1037L656,1077L750,1099Z" fill="#618dc0" stroke="#618dc0" stroke-width="1.51"/><path d="M583,1087L576,1206L656,1077Z" fill="#678abd" stroke="#678abd" stroke-width="1.51"/><path d="M645,865L528,1003L675,1037Z" fill="#6c98c9" stroke="#6c98c9" stroke-width="1.51"/><path d="M569,-74L662,-18L678,-136Z" fill="#c4deee" stroke="#c4deee" stroke-width="1.51"/><path d="M656,1077L576,1206L679,1238Z" fill="#6285b5" stroke="#6285b5" stroke-width="1.51"/><path d="M534,546L531,638L682,670Z" fill="#85b8da" stroke="#85b8da" stroke-width="1.51"/><path d="M662,-18L562,116L696,104Z" fill="#bbd7eb" stroke="#bbd7eb" stroke-width="1.51"/><path d="M667,405L527,452L697,516Z" fill="#94c3df" stroke="#94c3df" stroke-width="1.51"/><path d="M527,452L534,546L697,516Z" fill="#90c1df" stroke="#90c1df" stroke-width="1.51"/><path d="M534,546L682,670L697,516Z" fill="#85badb" stroke="#85badb" stroke-width="1.51"/><path d="M593,330L661,329L697,204Z" fill="#a7cde4" stroke="#a7cde4" stroke-width="1.51"/><path d="M545,181L593,330L697,204Z" fill="#afd1e7" stroke="#afd1e7" stroke-width="1.51"/><path d="M696,104L562,116L697,204Z" fill="#b5d4e9" stroke="#b5d4e9" stroke-width="1.51"/><path d="M562,116L545,181L697,204Z" fill="#b7d4e9" stroke="#b7d4e9" stroke-width="1.51"/><path d="M586,-142L569,-74L678,-136Z" fill="#c9e0ef" stroke="#c9e0ef" stroke-width="1.51"/><path d="M531,638L648,763L682,670Z" fill="#7cb2d7" stroke="#7cb2d7" stroke-width="1.51"/><path d="M661,329L593,330L667,405Z" fill="#a1cbe2" stroke="#a1cbe2" stroke-width="1.51"/><path d="M528,1003L583,1087L675,1037Z" fill="#6b93c5" stroke="#6b93c5" stroke-width="1.51"/><path d="M526,866L528,1003L645,865Z" fill="#729fce" stroke="#729fce" stroke-width="1.51"/><path d="M583,1087L656,1077L675,1037Z" fill="#668fc1" stroke="#668fc1" stroke-width="1.51"/><path d="M569,-74L562,116L662,-18Z" fill="#c2dbed" stroke="#c2dbed" stroke-width="1.51"/><path d="M593,330L527,452L667,405Z" fill="#9ec9e2" stroke="#9ec9e2" stroke-width="1.51"/><path d="M525,783L645,865L648,763Z" fill="#75a8d2" stroke="#75a8d2" stroke-width="1.51"/><path d="M531,638L525,783L648,763Z" fill="#7db0d6" stroke="#7db0d6" stroke-width="1.51"/><path d="M525,783L526,866L645,865Z" fill="#76a6d1" stroke="#76a6d1" stroke-width="1.51"/><path d="M462,113L562,116L569,-74Z" fill="#c4dbee" stroke="#c4dbee" stroke-width="1.51"/><path d="M433,-56L462,113L569,-74Z" fill="#cadff0" stroke="#cadff0" stroke-width="1.51"/><path d="M449,1146L576,1206L583,1087Z" fill="#6b8abc" stroke="#6b8abc" stroke-width="1.51"/><path d="M447,392L527,452L593,330Z" fill="#a4cbe3" stroke="#a4cbe3" stroke-width="1.51"/><path d="M435,322L447,392L593,330Z" fill="#abcfe5" stroke="#abcfe5" stroke-width="1.51"/><path d="M545,181L435,322L593,330Z" fill="#b1d2e8" stroke="#b1d2e8" stroke-width="1.51"/><path d="M414,-137L569,-74L586,-142Z" fill="#cfe3f1" stroke="#cfe3f1" stroke-width="1.51"/><path d="M526,866L470,883L528,1003Z" fill="#76a0cf" stroke="#76a0cf" stroke-width="1.51"/><path d="M528,1003L449,1146L583,1087Z" fill="#6f91c3" stroke="#6f91c3" stroke-width="1.51"/><path d="M414,-137L433,-56L569,-74Z" fill="#d1e3f2" stroke="#d1e3f2" stroke-width="1.51"/><path d="M449,1146L434,1204L576,1206Z" fill="#6c87b7" stroke="#6c87b7" stroke-width="1.51"/><path d="M428,668L525,783L531,638Z" fill="#85b5da" stroke="#85b5da" stroke-width="1.51"/><path d="M433,175L435,322L545,181Z" fill="#bad6eb" stroke="#bad6eb" stroke-width="1.51"/><path d="M470,883L443,985L528,1003Z" fill="#779dcd" stroke="#779dcd" stroke-width="1.51"/><path d="M462,113L545,181L562,116Z" fill="#bfd8ec" stroke="#bfd8ec" stroke-width="1.51"/><path d="M428,668L412,748L525,783Z" fill="#84b3d9" stroke="#84b3d9" stroke-width="1.51"/><path d="M443,985L449,1146L528,1003Z" fill="#7495c7" stroke="#7495c7" stroke-width="1.51"/><path d="M421,515L428,668L531,638Z" fill="#8fbdde" stroke="#8fbdde" stroke-width="1.51"/><path d="M421,515L531,638L534,546Z" fill="#91bfdf" stroke="#91bfdf" stroke-width="1.51"/><path d="M527,452L421,515L534,546Z" fill="#98c4e1" stroke="#98c4e1" stroke-width="1.51"/><path d="M462,113L433,175L545,181Z" fill="#c0d8ec" stroke="#c0d8ec" stroke-width="1.51"/><path d="M525,783L470,883L526,866Z" fill="#7aa7d2" stroke="#7aa7d2" stroke-width="1.51"/><path d="M412,748L470,883L525,783Z" fill="#80acd5" stroke="#80acd5" stroke-width="1.51"/><path d="M447,392L421,515L527,452Z" fill="#a0c8e3" stroke="#a0c8e3" stroke-width="1.51"/><path d="M421,515L350,639L428,668Z" fill="#94bfdf" stroke="#94bfdf" stroke-width="1.51"/><path d="M301,-30L337,111L433,-56Z" fill="#d1e3f3" stroke="#d1e3f3" stroke-width="1.51"/><path d="M433,175L346,172L435,322Z" fill="#bfd8ec" stroke="#bfd8ec" stroke-width="1.51"/><path d="M443,985L324,1094L449,1146Z" fill="#7794c6" stroke="#7794c6" stroke-width="1.51"/><path d="M433,-56L337,111L462,113Z" fill="#ccdef1" stroke="#ccdef1" stroke-width="1.51"/><path d="M340,911L443,985L470,883Z" fill="#7da2d0" stroke="#7da2d0" stroke-width="1.51"/><path d="M412,748L340,911L470,883Z" fill="#82aad5" stroke="#82aad5" stroke-width="1.51"/><path d="M346,172L295,300L435,322Z" fill="#bdd7ec" stroke="#bdd7ec" stroke-width="1.51"/><path d="M312,1000L324,1094L443,985Z" fill="#7c9acb" stroke="#7c9acb" stroke-width="1.51"/><path d="M328,417L421,515L447,392Z" fill="#a6cbe5" stroke="#a6cbe5" stroke-width="1.51"/><path d="M337,111L433,175L462,113Z" fill="#c7dbef" stroke="#c7dbef" stroke-width="1.51"/><path d="M295,755L340,911L412,748Z" fill="#87afd8" stroke="#87afd8" stroke-width="1.51"/><path d="M337,111L346,172L433,175Z" fill="#c8dcef" stroke="#c8dcef" stroke-width="1.51"/><path d="M435,322L328,417L447,392Z" fill="#aed0e7" stroke="#aed0e7" stroke-width="1.51"/><path d="M324,1094L434,1204L449,1146Z" fill="#748dbe" stroke="#748dbe" stroke-width="1.51"/><path d="M340,911L312,1000L443,985Z" fill="#7ea0cf" stroke="#7ea0cf" stroke-width="1.51"/><path d="M291,575L350,639L421,515Z" fill="#99c2e2" stroke="#99c2e2" stroke-width="1.51"/><path d="M350,639L412,748L428,668Z" fill="#8db8dc" stroke="#8db8dc" stroke-width="1.51"/><path d="M414,-137L301,-30L433,-56Z" fill="#d6e5f4" stroke="#d6e5f4" stroke-width="1.51"/><path d="M324,1094L332,1260L434,1204Z" fill="#758bba" stroke="#758bba" stroke-width="1.51"/><path d="M295,300L328,417L435,322Z" fill="#b4d4e9" stroke="#b4d4e9" stroke-width="1.51"/><path d="M350,639L295,755L412,748Z" fill="#8db8dc" stroke="#8db8dc" stroke-width="1.51"/><path d="M289,-150L301,-30L414,-137Z" fill="#dae8f5" stroke="#dae8f5" stroke-width="1.51"/><path d="M328,417L291,575L421,515Z" fill="#a1c8e4" stroke="#a1c8e4" stroke-width="1.51"/><path d="M295,300L238,408L328,417Z" fill="#b3d3e9" stroke="#b3d3e9" stroke-width="1.51"/><path d="M238,408L291,575L328,417Z" fill="#a8cde6" stroke="#a8cde6" stroke-width="1.51"/><path d="M211,1196L67,1217L332,1260Z" fill="#798bb6" stroke="#798bb6" stroke-width="1.51"/><path d="M324,1094L211,1196L332,1260Z" fill="#788cbb" stroke="#788cbb" stroke-width="1.51"/><path d="M301,-30L211,-16L337,111Z" fill="#d4e4f4" stroke="#d4e4f4" stroke-width="1.51"/><path d="M211,-16L195,116L337,111Z" fill="#d2e3f3" stroke="#d2e3f3" stroke-width="1.51"/><path d="M295,755L217,792L340,911Z" fill="#89b0d8" stroke="#89b0d8" stroke-width="1.51"/><path d="M217,792L182,875L340,911Z" fill="#89add7" stroke="#89add7" stroke-width="1.51"/><path d="M239,282L295,300L346,172Z" fill="#c1d9ed" stroke="#c1d9ed" stroke-width="1.51"/><path d="M198,206L239,282L346,172Z" fill="#c6dcee" stroke="#c6dcee" stroke-width="1.51"/><path d="M234,658L295,755L350,639Z" fill="#92bbde" stroke="#92bbde" stroke-width="1.51"/><path d="M291,575L234,658L350,639Z" fill="#98c0e1" stroke="#98c0e1" stroke-width="1.51"/><path d="M337,111L195,116L346,172Z" fill="#ccdff1" stroke="#ccdff1" stroke-width="1.51"/><path d="M195,116L198,206L346,172Z" fill="#ccdff1" stroke="#ccdff1" stroke-width="1.51"/><path d="M199,966L312,1000L340,911Z" fill="#82a3d1" stroke="#82a3d1" stroke-width="1.51"/><path d="M182,875L199,966L340,911Z" fill="#86a7d4" stroke="#86a7d4" stroke-width="1.51"/><path d="M186,1132L211,1196L324,1094Z" fill="#7c92c2" stroke="#7c92c2" stroke-width="1.51"/><path d="M238,408L193,570L291,575Z" fill="#a4cae5" stroke="#a4cae5" stroke-width="1.51"/><path d="M289,-150L234,-151L301,-30Z" fill="#ddeaf7" stroke="#ddeaf7" stroke-width="1.51"/><path d="M199,966L186,1132L312,1000Z" fill="#829ccc" stroke="#829ccc" stroke-width="1.51"/><path d="M312,1000L186,1132L324,1094Z" fill="#7e98c8" stroke="#7e98c8" stroke-width="1.51"/><path d="M239,282L238,408L295,300Z" fill="#bad7eb" stroke="#bad7eb" stroke-width="1.51"/><path d="M234,-151L211,-16L301,-30Z" fill="#dbe9f6" stroke="#dbe9f6" stroke-width="1.51"/><path d="M234,658L217,792L295,755Z" fill="#90b9dc" stroke="#90b9dc" stroke-width="1.51"/><path d="M193,570L234,658L291,575Z" fill="#9cc4e2" stroke="#9cc4e2" stroke-width="1.51"/><path d="M93,1005L186,1132L199,966Z" fill="#859fcd" stroke="#859fcd" stroke-width="1.51"/><path d="M103,89L195,116L211,-16Z" fill="#d6e5f4" stroke="#d6e5f4" stroke-width="1.51"/><path d="M81,732L217,792L234,658Z" fill="#93bcde" stroke="#93bcde" stroke-width="1.51"/><path d="M92,-54L211,-16L234,-151Z" fill="#deebf7" stroke="#deebf7" stroke-width="1.51"/><path d="M98,-169L92,-54L234,-151Z" fill="#e3eef9" stroke="#e3eef9" stroke-width="1.51"/><path d="M85,511L193,570L238,408Z" fill="#aacde7" stroke="#aacde7" stroke-width="1.51"/><path d="M120,390L85,511L238,408Z" fill="#b2d2e9" stroke="#b2d2e9" stroke-width="1.51"/><path d="M116,329L120,390L238,408Z" fill="#b9d7ea" stroke="#b9d7ea" stroke-width="1.51"/><path d="M116,329L238,408L239,282Z" fill="#bcd8eb" stroke="#bcd8eb" stroke-width="1.51"/><path d="M198,206L116,329L239,282Z" fill="#c4dbee" stroke="#c4dbee" stroke-width="1.51"/><path d="M193,570L65,658L234,658Z" fill="#9dc3e2" stroke="#9dc3e2" stroke-width="1.51"/><path d="M65,658L81,732L234,658Z" fill="#9ac0e0" stroke="#9ac0e0" stroke-width="1.51"/><path d="M93,1005L65,1079L186,1132Z" fill="#859ccb" stroke="#859ccb" stroke-width="1.51"/><path d="M82,227L116,329L198,206Z" fill="#c7deef" stroke="#c7deef" stroke-width="1.51"/><path d="M98,882L182,875L217,792Z" fill="#8db0d8" stroke="#8db0d8" stroke-width="1.51"/><path d="M81,732L98,882L217,792Z" fill="#91b6db" stroke="#91b6db" stroke-width="1.51"/><path d="M92,-54L103,89L211,-16Z" fill="#dbe9f6" stroke="#dbe9f6" stroke-width="1.51"/><path d="M186,1132L67,1217L211,1196Z" fill="#7e90bd" stroke="#7e90bd" stroke-width="1.51"/><path d="M-113,-132L-46,-123L98,-169Z" fill="#ebf3fb" stroke="#ebf3fb" stroke-width="1.51"/><path d="M195,116L103,89L198,206Z" fill="#d1e2f3" stroke="#d1e2f3" stroke-width="1.51"/><path d="M103,89L82,227L198,206Z" fill="#d0e1f2" stroke="#d0e1f2" stroke-width="1.51"/><path d="M182,875L98,882L199,966Z" fill="#8aabd6" stroke="#8aabd6" stroke-width="1.51"/><path d="M98,882L93,1005L199,966Z" fill="#89a7d3" stroke="#89a7d3" stroke-width="1.51"/><path d="M85,511L65,658L193,570Z" fill="#a4c8e5" stroke="#a4c8e5" stroke-width="1.51"/><path d="M65,1079L67,1217L186,1132Z" fill="#8295c4" stroke="#8295c4" stroke-width="1.51"/><path d="M65,1079L3,1096L67,1217Z" fill="#8698c6" stroke="#8698c6" stroke-width="1.51"/><path d="M-42,569L65,658L85,511Z" fill="#a7cae6" stroke="#a7cae6" stroke-width="1.51"/><path d="M81,732L-11,750L98,882Z" fill="#96b9dc" stroke="#96b9dc" stroke-width="1.51"/><path d="M-15,912L93,1005L98,882Z" fill="#8dabd5" stroke="#8dabd5" stroke-width="1.51"/><path d="M16,-70L92,-54L98,-169Z" fill="#e5eff9" stroke="#e5eff9" stroke-width="1.51"/><path d="M92,-54L5,75L103,89Z" fill="#dce9f7" stroke="#dce9f7" stroke-width="1.51"/><path d="M5,75L82,227L103,89Z" fill="#d6e5f5" stroke="#d6e5f5" stroke-width="1.51"/><path d="M82,227L18,328L116,329Z" fill="#c6ddee" stroke="#c6ddee" stroke-width="1.51"/><path d="M0,424L85,511L120,390Z" fill="#b5d5ea" stroke="#b5d5ea" stroke-width="1.51"/><path d="M116,329L18,328L120,390Z" fill="#bfdbec" stroke="#bfdbec" stroke-width="1.51"/><path d="M18,328L0,424L120,390Z" fill="#bddaeb" stroke="#bddaeb" stroke-width="1.51"/><path d="M16,-70L5,75L92,-54Z" fill="#e0ecf8" stroke="#e0ecf8" stroke-width="1.51"/><path d="M5,75L-41,228L82,227Z" fill="#d5e5f4" stroke="#d5e5f4" stroke-width="1.51"/><path d="M-15,912L-17,1016L93,1005Z" fill="#8da7d3" stroke="#8da7d3" stroke-width="1.51"/><path d="M-11,750L-15,912L98,882Z" fill="#93b4da" stroke="#93b4da" stroke-width="1.51"/><path d="M-46,-123L16,-70L98,-169Z" fill="#e8f1fa" stroke="#e8f1fa" stroke-width="1.51"/><path d="M-42,569L-27,651L65,658Z" fill="#a5c8e5" stroke="#a5c8e5" stroke-width="1.51"/><path d="M-17,1016L65,1079L93,1005Z" fill="#8aa1ce" stroke="#8aa1ce" stroke-width="1.51"/><path d="M3,1096L-29,1214L67,1217Z" fill="#8494c0" stroke="#8494c0" stroke-width="1.51"/><path d="M65,658L-11,750L81,732Z" fill="#9bc0e0" stroke="#9bc0e0" stroke-width="1.51"/><path d="M-41,228L18,328L82,227Z" fill="#cce0f0" stroke="#cce0f0" stroke-width="1.51"/><path d="M0,424L-42,569L85,511Z" fill="#b0d2e9" stroke="#b0d2e9" stroke-width="1.51"/><path d="M-27,651L-11,750L65,658Z" fill="#9fc3e1" stroke="#9fc3e1" stroke-width="1.51"/><path d="M-17,1016L3,1096L65,1079Z" fill="#8a9fcd" stroke="#8a9fcd" stroke-width="1.51"/><path d="M-135,887L-15,912L-11,750Z" fill="#97b5db" stroke="#97b5db" stroke-width="1.51"/><path d="M-163,793L-135,887L-11,750Z" fill="#9bbbde" stroke="#9bbbde" stroke-width="1.51"/><path d="M-95,537L-42,569L0,424Z" fill="#b2d2ea" stroke="#b2d2ea" stroke-width="1.51"/><path d="M-136,105L-41,228L5,75Z" fill="#dbe9f6" stroke="#dbe9f6" stroke-width="1.51"/><path d="M-148,-35L5,75L16,-70Z" fill="#e4eef9" stroke="#e4eef9" stroke-width="1.51"/><path d="M-46,-123L-148,-35L16,-70Z" fill="#e9f2fa" stroke="#e9f2fa" stroke-width="1.51"/><path d="M-41,228L-168,298L18,328Z" fill="#cde2f0" stroke="#cde2f0" stroke-width="1.51"/><path d="M-144,415L0,424L18,328Z" fill="#c0dced" stroke="#c0dced" stroke-width="1.51"/><path d="M-168,298L-144,415L18,328Z" fill="#c8e0ee" stroke="#c8e0ee" stroke-width="1.51"/><path d="M-148,-35L-136,105L5,75Z" fill="#e2edf8" stroke="#e2edf8" stroke-width="1.51"/><path d="M-144,415L-95,537L0,424Z" fill="#b9d7ec" stroke="#b9d7ec" stroke-width="1.51"/><path d="M-17,1016L-157,1124L3,1096Z" fill="#8ca0cd" stroke="#8ca0cd" stroke-width="1.51"/><path d="M-157,1124L-29,1214L3,1096Z" fill="#8999c5" stroke="#8999c5" stroke-width="1.51"/><path d="M-157,1124L-129,1217L-29,1214Z" fill="#8996c0" stroke="#8996c0" stroke-width="1.51"/><path d="M-164,984L-17,1016L-15,912Z" fill="#91aad5" stroke="#91aad5" stroke-width="1.51"/><path d="M-164,984L-157,1124L-17,1016Z" fill="#90a5d0" stroke="#90a5d0" stroke-width="1.51"/><path d="M-135,887L-164,984L-15,912Z" fill="#95b0d8" stroke="#95b0d8" stroke-width="1.51"/><path d="M-27,651L-159,671L-11,750Z" fill="#a2c4e3" stroke="#a2c4e3" stroke-width="1.51"/><path d="M-159,671L-163,793L-11,750Z" fill="#a0c2e1" stroke="#a0c2e1" stroke-width="1.51"/><path d="M-113,-132L-148,-35L-46,-123Z" fill="#ebf3fb" stroke="#ebf3fb" stroke-width="1.51"/><path d="M-157,233L-168,298L-41,228Z" fill="#d3e5f2" stroke="#d3e5f2" stroke-width="1.51"/><path d="M-136,105L-157,233L-41,228Z" fill="#d9e8f5" stroke="#d9e8f5" stroke-width="1.51"/><path d="M-42,569L-159,671L-27,651Z" fill="#a7cae5" stroke="#a7cae5" stroke-width="1.51"/><path d="M-95,537L-159,671L-42,569Z" fill="#accde7" stroke="#accde7" stroke-width="1.51"/><path d="M-144,415L-159,671L-95,537Z" fill="#b2d2ea" stroke="#b2d2ea" stroke-width="1.51"/><path d="M-163,793L-164,984L-135,887Z" fill="#9ab4db" stroke="#9ab4db" stroke-width="1.51"/><path d="M-148,-35L-157,233L-136,105Z" fill="#e1edf8" stroke="#e1edf8" stroke-width="1.51"/><path d="M-168,298L-159,671L-144,415Z" fill="#bdd9ed" stroke="#bdd9ed" stroke-width="1.51"/><path d="M-168,298L-157,233L-148,-35Z" fill="#ddeaf7" stroke="#ddeaf7" stroke-width="1.51"/><path d="M-168,298L-163,793L-159,671Z" fill="#afd0e8" stroke="#afd0e8" stroke-width="1.51"/></svg>