<svg xmlns="http://www.w3.org/2000/svg" width="1920" height="1080"><path d="M98,-169L289,-150L790,-175Z" fill="#ffe99c" stroke="#ffe99c" stroke-width="1.51"/><path d="M819,1222L679,1238L1096,1231Z" fill="#c85834" stroke="#c85834" stroke-width="1.51"/><path d="M790,-175L912,-173L1128,-179Z" fill="#ffc680" stroke="#ffc680" stroke-width="1.51"/><path d="M790,-175L1128,-179L1237,-185Z" fill="#ffbd7d" stroke="#ffbd7d" stroke-width="1.51"/><path d="M98,-169L790,-175L1237,-185Z" fill="#ffd588" stroke="#ffd588" stroke-width="1.51"/><path d="M1096,1231L679,1238L1597,1255Z" fill="#c53e2d" stroke="#c53e2d" stroke-width="1.51"/><path d="M679,1238L332,1260L1597,1255Z" fill="#c55734" stroke="#c55734" stroke-width="1.51"/><path d="M1340,1236L1096,1231L1597,1255Z" fill="#c02427" stroke="#c02427" stroke-width="1.51"/><path d="M1597,1255L332,1260L1719,1263Z" fill="#c1302b" stroke="#c1302b" stroke-width="1.51"/><path d="M1562,-173L1734,-179L1858,-189Z" fill="#ef966f" stroke="#ef966f" stroke-width="1.51"/><path d="M1237,-185L1562,-173L1858,-189Z" fill="#fb9c6d" stroke="#fb9c6d" stroke-width="1.51"/><path d="M1842,1219L1719,1263L2014,1254Z" fill="#a10026" stroke="#a10026" stroke-width="1.51"/><path d="M1858,-189L1959,-121L2052,-154Z" fill="#d78c6e" stroke="#d78c6e" stroke-width="1.51"/><path d="M2016,-33L2049,101L2052,-154Z" fill="#cc8360" stroke="#cc8360" stroke-width="1.51"/><path d="M2023,906L2024,965L2056,792Z" fill="#bb1324" stroke="#bb1324" stroke-width="1.51"/><path d="M2024,965L1975,1090L2076,1131Z" fill="#ab0225" stroke="#ab0225" stroke-width="1.51"/><path d="M2056,792L2024,965L2076,1131Z" fill="#b20824" stroke="#b20824" stroke-width="1.51"/><path d="M2049,101L2053,232L2084,339Z" fill="#c67246" stroke="#c67246" stroke-width="1.51"/><path d="M2052,-154L2049,101L2084,339Z" fill="#c87c53" stroke="#c87c53" stroke-width="1.51"/><path d="M2053,232L1940,313L2084,339Z" fill="#ca6c3f" stroke="#ca6c3f" stroke-width="1.51"/><path d="M1960,786L2056,792L2088,687Z" fill="#c32928" stroke="#c32928" stroke-width="1.51"/><path d="M1916,655L1960,786L2088,687Z" fill="#ca312a" stroke="#ca312a" stroke-width="1.51"/><path d="M2056,792L2076,1131L2088,687Z" fill="#b71624" stroke="#b71624" stroke-width="1.51"/><path d="M1916,655L2088,687L2089,554Z" fill="#c5412e" stroke="#c5412e" stroke-width="1.51"/><path d="M1962,505L1916,655L2089,554Z" fill="#cb4d30" stroke="#cb4d30" stroke-width="1.51"/><path d="M2061,418L1962,505L2089,554Z" fill="#c65634" stroke="#c65634" stroke-width="1.51"/><path d="M2084,339L2061,418L2089,554Z" fill="#c25b36" stroke="#c25b36" stroke-width="1.51"/><path d="M1932,1198L2014,1254L2076,1131Z" fill="#990026" stroke="#990026" stroke-width="1.51"/><path d="M1959,-121L2016,-33L2052,-154Z" fill="#d08868" stroke="#d08868" stroke-width="1.51"/><path d="M1940,313L2061,418L2084,339Z" fill="#c86539" stroke="#c86539" stroke-width="1.51"/><path d="M2049,101L1932,220L2053,232Z" fill="#cc784a" stroke="#cc784a" stroke-width="1.51"/><path d="M1975,1090L1932,1198L2076,1131Z" fill="#a40026" stroke="#a40026" stroke-width="1.51"/><path d="M2016,-33L1938,-33L2049,101Z" fill="#d0835c" stroke="#d0835c" stroke-width="1.51"/><path d="M1938,-33L1911,112L2049,101Z" fill="#d38157" stroke="#d38157" stroke-width="1.51"/><path d="M1911,112L1932,220L2049,101Z" fill="#d27d4e" stroke="#d27d4e" stroke-width="1.51"/><path d="M1960,786L2023,906L2056,792Z" fill="#c11e25" stroke="#c11e25" stroke-width="1.51"/><path d="M1913,429L1962,505L2061,418Z" fill="#cd5c35" stroke="#cd5c35" stroke-width="1.51"/><path d="M1940,313L1913,429L2061,418Z" fill="#ce6438" stroke="#ce6438" stroke-width="1.51"/><path d="M1932,220L1940,313L2053,232Z" fill="#d07243" stroke="#d07243" stroke-width="1.51"/><path d="M1932,1198L1842,1219L2014,1254Z" fill="#9d0026" stroke="#9d0026" stroke-width="1.51"/><path d="M1959,-121L1938,-33L2016,-33Z" fill="#d48763" stroke="#d48763" stroke-width="1.51"/><path d="M1960,786L1945,916L2023,906Z" fill="#c21724" stroke="#c21724" stroke-width="1.51"/><path d="M1905,1032L1975,1090L2024,965Z" fill="#b40525" stroke="#b40525" stroke-width="1.51"/><path d="M1945,916L1905,1032L2024,965Z" fill="#bb0924" stroke="#bb0924" stroke-width="1.51"/><path d="M2023,906L1945,916L2024,965Z" fill="#bb0b23" stroke="#bb0b23" stroke-width="1.51"/><path d="M1826,-3L1911,112L1938,-33Z" fill="#dc865a" stroke="#dc865a" stroke-width="1.51"/><path d="M1916,655L1812,770L1960,786Z" fill="#d32e28" stroke="#d32e28" stroke-width="1.51"/><path d="M1818,888L1945,916L1960,786Z" fill="#ca1924" stroke="#ca1924" stroke-width="1.51"/><path d="M1853,637L1916,655L1962,505Z" fill="#d34a2f" stroke="#d34a2f" stroke-width="1.51"/><path d="M1857,1145L1932,1198L1975,1090Z" fill="#ab0026" stroke="#ab0026" stroke-width="1.51"/><path d="M1905,1032L1857,1145L1975,1090Z" fill="#b40126" stroke="#b40126" stroke-width="1.51"/><path d="M1836,996L1905,1032L1945,916Z" fill="#c10823" stroke="#c10823" stroke-width="1.51"/><path d="M1858,-189L1938,-33L1959,-121Z" fill="#db8c69" stroke="#db8c69" stroke-width="1.51"/><path d="M1812,770L1818,888L1960,786Z" fill="#d22325" stroke="#d22325" stroke-width="1.51"/><path d="M1913,429L1800,507L1962,505Z" fill="#d75c34" stroke="#d75c34" stroke-width="1.51"/><path d="M1800,507L1853,637L1962,505Z" fill="#d85431" stroke="#d85431" stroke-width="1.51"/><path d="M1814,454L1800,507L1913,429Z" fill="#dd5f34" stroke="#dd5f34" stroke-width="1.51"/><path d="M1911,112L1835,205L1932,220Z" fill="#da7d4a" stroke="#da7d4a" stroke-width="1.51"/><path d="M1858,-189L1826,-3L1938,-33Z" fill="#e08c65" stroke="#e08c65" stroke-width="1.51"/><path d="M1932,220L1840,279L1940,313Z" fill="#d77341" stroke="#d77341" stroke-width="1.51"/><path d="M1840,279L1913,429L1940,313Z" fill="#d76b3a" stroke="#d76b3a" stroke-width="1.51"/><path d="M1818,888L1836,996L1945,916Z" fill="#c90d22" stroke="#c90d22" stroke-width="1.51"/><path d="M1853,637L1812,770L1916,655Z" fill="#d93a2b" stroke="#d93a2b" stroke-width="1.51"/><path d="M1826,-3L1810,96L1911,112Z" fill="#e18556" stroke="#e18556" stroke-width="1.51"/><path d="M1840,279L1814,454L1913,429Z" fill="#dc6737" stroke="#dc6737" stroke-width="1.51"/><path d="M1857,1145L1842,1219L1932,1198Z" fill="#a80026" stroke="#a80026" stroke-width="1.51"/><path d="M1835,205L1840,279L1932,220Z" fill="#dc7845" stroke="#dc7845" stroke-width="1.51"/><path d="M1836,996L1857,1145L1905,1032Z" fill="#bd0325" stroke="#bd0325" stroke-width="1.51"/><path d="M1810,96L1835,205L1911,112Z" fill="#df824e" stroke="#df824e" stroke-width="1.51"/><path d="M1237,-185L1477,-155L1562,-173Z" fill="#ffa16f" stroke="#ffa16f" stroke-width="1.51"/><path d="M1734,-179L1826,-3L1858,-189Z" fill="#e8916a" stroke="#e8916a" stroke-width="1.51"/><path d="M1726,311L1711,417L1814,454Z" fill="#e46a35" stroke="#e46a35" stroke-width="1.51"/><path d="M1734,-179L1689,-10L1826,-3Z" fill="#eb9063" stroke="#eb9063" stroke-width="1.51"/><path d="M1726,311L1814,454L1840,279Z" fill="#e26e38" stroke="#e26e38" stroke-width="1.51"/><path d="M1800,507L1738,536L1853,637Z" fill="#df542f" stroke="#df542f" stroke-width="1.51"/><path d="M1669,685L1812,770L1853,637Z" fill="#df3929" stroke="#df3929" stroke-width="1.51"/><path d="M1836,996L1743,1014L1857,1145Z" fill="#c20425" stroke="#c20425" stroke-width="1.51"/><path d="M1743,1014L1716,1122L1857,1145Z" fill="#c10326" stroke="#c10326" stroke-width="1.51"/><path d="M1716,1122L1842,1219L1857,1145Z" fill="#b40126" stroke="#b40126" stroke-width="1.51"/><path d="M1818,888L1741,905L1836,996Z" fill="#d00e21" stroke="#d00e21" stroke-width="1.51"/><path d="M1738,536L1669,685L1853,637Z" fill="#e24b2c" stroke="#e24b2c" stroke-width="1.51"/><path d="M1812,770L1741,905L1818,888Z" fill="#d61e23" stroke="#d61e23" stroke-width="1.51"/><path d="M1810,96L1702,182L1835,205Z" fill="#e5834b" stroke="#e5834b" stroke-width="1.51"/><path d="M1741,905L1743,1014L1836,996Z" fill="#cd0c23" stroke="#cd0c23" stroke-width="1.51"/><path d="M1835,205L1726,311L1840,279Z" fill="#e37741" stroke="#e37741" stroke-width="1.51"/><path d="M1716,1122L1719,1263L1842,1219Z" fill="#b00225" stroke="#b00225" stroke-width="1.51"/><path d="M1669,685L1671,732L1812,770Z" fill="#e33327" stroke="#e33327" stroke-width="1.51"/><path d="M1702,182L1726,311L1835,205Z" fill="#e67c43" stroke="#e67c43" stroke-width="1.51"/><path d="M1712,109L1702,182L1810,96Z" fill="#e9864e" stroke="#e9864e" stroke-width="1.51"/><path d="M1689,-10L1810,96L1826,-3Z" fill="#e88a59" stroke="#e88a59" stroke-width="1.51"/><path d="M1689,-10L1712,109L1810,96Z" fill="#ea8955" stroke="#ea8955" stroke-width="1.51"/><path d="M289,-150L586,-142L790,-175Z" fill="#ffde8f" stroke="#ffde8f" stroke-width="1.51"/><path d="M1671,732L1741,905L1812,770Z" fill="#dd2824" stroke="#dd2824" stroke-width="1.51"/><path d="M1711,417L1800,507L1814,454Z" fill="#e26233" stroke="#e26233" stroke-width="1.51"/><path d="M1711,417L1738,536L1800,507Z" fill="#e46031" stroke="#e46031" stroke-width="1.51"/><path d="M912,-173L984,-168L1128,-179Z" fill="#ffc17e" stroke="#ffc17e" stroke-width="1.51"/><path d="M1716,1122L1597,1255L1719,1263Z" fill="#b40625" stroke="#b40625" stroke-width="1.51"/><path d="M1629,314L1711,417L1726,311Z" fill="#e97136" stroke="#e97136" stroke-width="1.51"/><path d="M1702,182L1629,314L1726,311Z" fill="#ea7a3e" stroke="#ea7a3e" stroke-width="1.51"/><path d="M1587,-37L1689,-10L1734,-179Z" fill="#f19263" stroke="#f19263" stroke-width="1.51"/><path d="M1562,-173L1587,-37L1734,-179Z" fill="#f59669" stroke="#f59669" stroke-width="1.51"/><path d="M1583,537L1669,685L1738,536Z" fill="#e8532c" stroke="#e8532c" stroke-width="1.51"/><path d="M1711,417L1625,414L1738,536Z" fill="#e76532" stroke="#e76532" stroke-width="1.51"/><path d="M1625,414L1583,537L1738,536Z" fill="#ea6130" stroke="#ea6130" stroke-width="1.51"/><path d="M1602,868L1567,975L1741,905Z" fill="#dc161e" stroke="#dc161e" stroke-width="1.51"/><path d="M1671,732L1602,868L1741,905Z" fill="#df2422" stroke="#df2422" stroke-width="1.51"/><path d="M1621,1087L1716,1122L1743,1014Z" fill="#c80824" stroke="#c80824" stroke-width="1.51"/><path d="M1741,905L1567,975L1743,1014Z" fill="#d41121" stroke="#d41121" stroke-width="1.51"/><path d="M1567,975L1621,1087L1743,1014Z" fill="#d00e22" stroke="#d00e22" stroke-width="1.51"/><path d="M1629,314L1625,414L1711,417Z" fill="#eb6e34" stroke="#eb6e34" stroke-width="1.51"/><path d="M1689,-10L1567,104L1712,109Z" fill="#f08c53" stroke="#f08c53" stroke-width="1.51"/><path d="M1621,1087L1597,1255L1716,1122Z" fill="#bf0823" stroke="#bf0823" stroke-width="1.51"/><path d="M1615,736L1602,868L1671,732Z" fill="#e52e23" stroke="#e52e23" stroke-width="1.51"/><path d="M1573,196L1629,314L1702,182Z" fill="#ef8042" stroke="#ef8042" stroke-width="1.51"/><path d="M1567,104L1702,182L1712,109Z" fill="#ee884c" stroke="#ee884c" stroke-width="1.51"/><path d="M1583,537L1588,690L1669,685Z" fill="#eb4b28" stroke="#eb4b28" stroke-width="1.51"/><path d="M1587,-37L1567,104L1689,-10Z" fill="#f39058" stroke="#f39058" stroke-width="1.51"/><path d="M1567,104L1573,196L1702,182Z" fill="#f18848" stroke="#f18848" stroke-width="1.51"/><path d="M1669,685L1615,736L1671,732Z" fill="#e73726" stroke="#e73726" stroke-width="1.51"/><path d="M1508,1115L1597,1255L1621,1087Z" fill="#c50c23" stroke="#c50c23" stroke-width="1.51"/><path d="M1588,690L1615,736L1669,685Z" fill="#ea3b26" stroke="#ea3b26" stroke-width="1.51"/><path d="M1583,537L1505,559L1588,690Z" fill="#ef5429" stroke="#ef5429" stroke-width="1.51"/><path d="M1468,1195L1340,1236L1597,1255Z" fill="#bd1724" stroke="#bd1724" stroke-width="1.51"/><path d="M1508,1115L1468,1195L1597,1255Z" fill="#c20f22" stroke="#c20f22" stroke-width="1.51"/><path d="M1452,735L1602,868L1615,736Z" fill="#eb3021" stroke="#eb3021" stroke-width="1.51"/><path d="M1567,975L1508,1115L1621,1087Z" fill="#d21021" stroke="#d21021" stroke-width="1.51"/><path d="M1458,427L1583,537L1625,414Z" fill="#f1682f" stroke="#f1682f" stroke-width="1.51"/><path d="M1573,196L1449,300L1629,314Z" fill="#f47e3c" stroke="#f47e3c" stroke-width="1.51"/><path d="M1458,427L1625,414L1629,314Z" fill="#f07032" stroke="#f07032" stroke-width="1.51"/><path d="M1449,300L1458,427L1629,314Z" fill="#f47633" stroke="#f47633" stroke-width="1.51"/><path d="M1452,735L1489,902L1602,868Z" fill="#ea2b1f" stroke="#ea2b1f" stroke-width="1.51"/><path d="M1489,-35L1567,104L1587,-37Z" fill="#f89258" stroke="#f89258" stroke-width="1.51"/><path d="M1562,-173L1489,-35L1587,-37Z" fill="#fa9762" stroke="#fa9762" stroke-width="1.51"/><path d="M1505,559L1462,644L1588,690Z" fill="#f14f28" stroke="#f14f28" stroke-width="1.51"/><path d="M1489,902L1567,975L1602,868Z" fill="#e21a1d" stroke="#e21a1d" stroke-width="1.51"/><path d="M1588,690L1452,735L1615,736Z" fill="#ef3a24" stroke="#ef3a24" stroke-width="1.51"/><path d="M1237,-185L1400,-134L1477,-155Z" fill="#ffa46f" stroke="#ffa46f" stroke-width="1.51"/><path d="M1477,-155L1489,-35L1562,-173Z" fill="#fc9b67" stroke="#fc9b67" stroke-width="1.51"/><path d="M1458,427L1505,559L1583,537Z" fill="#f2642d" stroke="#f2642d" stroke-width="1.51"/><path d="M289,-150L414,-137L586,-142Z" fill="#ffe697" stroke="#ffe697" stroke-width="1.51"/><path d="M1489,-35L1454,101L1567,104Z" fill="#fa9253" stroke="#fa9253" stroke-width="1.51"/><path d="M1440,215L1449,300L1573,196Z" fill="#f78440" stroke="#f78440" stroke-width="1.51"/><path d="M1462,644L1452,735L1588,690Z" fill="#f24425" stroke="#f24425" stroke-width="1.51"/><path d="M1441,969L1508,1115L1567,975Z" fill="#d91820" stroke="#d91820" stroke-width="1.51"/><path d="M1567,104L1454,101L1573,196Z" fill="#f78c4a" stroke="#f78c4a" stroke-width="1.51"/><path d="M1454,101L1440,215L1573,196Z" fill="#f88c47" stroke="#f88c47" stroke-width="1.51"/><path d="M1489,902L1441,969L1567,975Z" fill="#e11d1e" stroke="#e11d1e" stroke-width="1.51"/><path d="M1348,1032L1352,1097L1441,969Z" fill="#dd2723" stroke="#dd2723" stroke-width="1.51"/><path d="M1333,773L1333,877L1452,735Z" fill="#f23d24" stroke="#f23d24" stroke-width="1.51"/><path d="M1477,-155L1400,-134L1489,-35Z" fill="#fe9d67" stroke="#fe9d67" stroke-width="1.51"/><path d="M1452,735L1333,877L1489,902Z" fill="#ed3322" stroke="#ed3322" stroke-width="1.51"/><path d="M1384,570L1462,644L1505,559Z" fill="#f45b2b" stroke="#f45b2b" stroke-width="1.51"/><path d="M1458,427L1384,570L1505,559Z" fill="#f5672e" stroke="#f5672e" stroke-width="1.51"/><path d="M1352,1097L1468,1195L1508,1115Z" fill="#ce1c24" stroke="#ce1c24" stroke-width="1.51"/><path d="M1441,969L1352,1097L1508,1115Z" fill="#d82023" stroke="#d82023" stroke-width="1.51"/><path d="M1329,-26L1454,101L1489,-35Z" fill="#fd985a" stroke="#fd985a" stroke-width="1.51"/><path d="M1329,-26L1366,109L1454,101Z" fill="#fe9856" stroke="#fe9856" stroke-width="1.51"/><path d="M1449,300L1391,408L1458,427Z" fill="#f77834" stroke="#f77834" stroke-width="1.51"/><path d="M1400,-134L1329,-26L1489,-35Z" fill="#ff9d63" stroke="#ff9d63" stroke-width="1.51"/><path d="M1333,877L1441,969L1489,902Z" fill="#e8281e" stroke="#e8281e" stroke-width="1.51"/><path d="M1393,302L1391,408L1449,300Z" fill="#f87d38" stroke="#f87d38" stroke-width="1.51"/><path d="M1366,109L1440,215L1454,101Z" fill="#fb924c" stroke="#fb924c" stroke-width="1.51"/><path d="M1391,408L1384,570L1458,427Z" fill="#f76f31" stroke="#f76f31" stroke-width="1.51"/><path d="M1375,666L1452,735L1462,644Z" fill="#f54b27" stroke="#f54b27" stroke-width="1.51"/><path d="M1440,215L1393,302L1449,300Z" fill="#f9843e" stroke="#f9843e" stroke-width="1.51"/><path d="M1352,1097L1340,1236L1468,1195Z" fill="#c92126" stroke="#c92126" stroke-width="1.51"/><path d="M1384,570L1375,666L1462,644Z" fill="#f6572a" stroke="#f6572a" stroke-width="1.51"/><path d="M1366,109L1334,217L1440,215Z" fill="#fc9149" stroke="#fc9149" stroke-width="1.51"/><path d="M1375,666L1333,773L1452,735Z" fill="#f64426" stroke="#f64426" stroke-width="1.51"/><path d="M-29,1214L-129,1217L332,1260Z" fill="#ce8462" stroke="#ce8462" stroke-width="1.51"/><path d="M1334,217L1393,302L1440,215Z" fill="#fb8a42" stroke="#fb8a42" stroke-width="1.51"/><path d="M1333,877L1348,1032L1441,969Z" fill="#e52b21" stroke="#e52b21" stroke-width="1.51"/><path d="M1227,1194L1096,1231L1340,1236Z" fill="#c8312a" stroke="#c8312a" stroke-width="1.51"/><path d="M1333,877L1251,963L1348,1032Z" fill="#e83123" stroke="#e83123" stroke-width="1.51"/><path d="M1329,-26L1262,73L1366,109Z" fill="#ff9c59" stroke="#ff9c59" stroke-width="1.51"/><path d="M1252,516L1384,570L1391,408Z" fill="#fa7032" stroke="#fa7032" stroke-width="1.51"/><path d="M1277,302L1391,408L1393,302Z" fill="#fb8039" stroke="#fb8039" stroke-width="1.51"/><path d="M1237,-185L1329,-26L1400,-134Z" fill="#ffa46c" stroke="#ffa46c" stroke-width="1.51"/><path d="M1258,659L1375,666L1384,570Z" fill="#f95b2c" stroke="#f95b2c" stroke-width="1.51"/><path d="M1277,302L1223,398L1391,408Z" fill="#fd8039" stroke="#fd8039" stroke-width="1.51"/><path d="M1223,398L1252,516L1391,408Z" fill="#fc7935" stroke="#fc7935" stroke-width="1.51"/><path d="M1334,217L1277,302L1393,302Z" fill="#fd8941" stroke="#fd8941" stroke-width="1.51"/><path d="M1252,1114L1340,1236L1352,1097Z" fill="#d12927" stroke="#d12927" stroke-width="1.51"/><path d="M1258,659L1333,773L1375,666Z" fill="#f94e29" stroke="#f94e29" stroke-width="1.51"/><path d="M1252,516L1258,659L1384,570Z" fill="#fb672f" stroke="#fb672f" stroke-width="1.51"/><path d="M67,1217L-29,1214L332,1260Z" fill="#cd825d" stroke="#cd825d" stroke-width="1.51"/><path d="M1237,-185L1226,-40L1329,-26Z" fill="#ffa66a" stroke="#ffa66a" stroke-width="1.51"/><path d="M1248,207L1334,217L1366,109Z" fill="#ff954b" stroke="#ff954b" stroke-width="1.51"/><path d="M1252,1114L1227,1194L1340,1236Z" fill="#cd2b29" stroke="#cd2b29" stroke-width="1.51"/><path d="M1262,73L1248,207L1366,109Z" fill="#ff9a51" stroke="#ff9a51" stroke-width="1.51"/><path d="M1270,780L1333,877L1333,773Z" fill="#f44025" stroke="#f44025" stroke-width="1.51"/><path d="M1258,659L1270,780L1333,773Z" fill="#fa4a28" stroke="#fa4a28" stroke-width="1.51"/><path d="M1348,1032L1252,1114L1352,1097Z" fill="#db2b26" stroke="#db2b26" stroke-width="1.51"/><path d="M1251,963L1252,1114L1348,1032Z" fill="#e13026" stroke="#e13026" stroke-width="1.51"/><path d="M1270,780L1237,878L1333,877Z" fill="#f33e24" stroke="#f33e24" stroke-width="1.51"/><path d="M1237,878L1251,963L1333,877Z" fill="#ef3723" stroke="#ef3723" stroke-width="1.51"/><path d="M1248,207L1277,302L1334,217Z" fill="#ff8f45" stroke="#ff8f45" stroke-width="1.51"/><path d="M1226,-40L1262,73L1329,-26Z" fill="#ffa260" stroke="#ffa260" stroke-width="1.51"/><path d="M884,1203L819,1222L1029,1207Z" fill="#cb5633" stroke="#cb5633" stroke-width="1.51"/><path d="M1029,1207L819,1222L1096,1231Z" fill="#c94f31" stroke="#c94f31" stroke-width="1.51"/><path d="M1103,102L1125,200L1248,207Z" fill="#ffa151" stroke="#ffa151" stroke-width="1.51"/><path d="M1251,963L1153,1002L1252,1114Z" fill="#e43828" stroke="#e43828" stroke-width="1.51"/><path d="M1153,1002L1134,1088L1252,1114Z" fill="#e03c2a" stroke="#e03c2a" stroke-width="1.51"/><path d="M1252,516L1139,617L1258,659Z" fill="#fd6a31" stroke="#fd6a31" stroke-width="1.51"/><path d="M1226,-40L1148,-4L1262,73Z" fill="#ffa661" stroke="#ffa661" stroke-width="1.51"/><path d="M1103,102L1248,207L1262,73Z" fill="#ffa055" stroke="#ffa055" stroke-width="1.51"/><path d="M1258,659L1112,772L1270,780Z" fill="#fc522a" stroke="#fc522a" stroke-width="1.51"/><path d="M1160,397L1223,398L1277,302Z" fill="#ff863b" stroke="#ff863b" stroke-width="1.51"/><path d="M1109,284L1160,397L1277,302Z" fill="#ff8e3f" stroke="#ff8e3f" stroke-width="1.51"/><path d="M1248,207L1109,284L1277,302Z" fill="#ff9345" stroke="#ff9345" stroke-width="1.51"/><path d="M1128,-179L1226,-40L1237,-185Z" fill="#ffae72" stroke="#ffae72" stroke-width="1.51"/><path d="M1112,772L1237,878L1270,780Z" fill="#f74b28" stroke="#f74b28" stroke-width="1.51"/><path d="M1125,200L1109,284L1248,207Z" fill="#ff9b4b" stroke="#ff9b4b" stroke-width="1.51"/><path d="M1237,878L1171,905L1251,963Z" fill="#f03d24" stroke="#f03d24" stroke-width="1.51"/><path d="M1223,398L1160,397L1252,516Z" fill="#fe7f38" stroke="#fe7f38" stroke-width="1.51"/><path d="M1139,617L1112,772L1258,659Z" fill="#fd612e" stroke="#fd612e" stroke-width="1.51"/><path d="M1148,-4L1103,102L1262,73Z" fill="#ffa75e" stroke="#ffa75e" stroke-width="1.51"/><path d="M1112,772L1171,905L1237,878Z" fill="#f44b27" stroke="#f44b27" stroke-width="1.51"/><path d="M1134,1088L1227,1194L1252,1114Z" fill="#d7362a" stroke="#d7362a" stroke-width="1.51"/><path d="M1160,397L1096,551L1252,516Z" fill="#fe7f37" stroke="#fe7f37" stroke-width="1.51"/><path d="M1096,551L1139,617L1252,516Z" fill="#fd7634" stroke="#fd7634" stroke-width="1.51"/><path d="M1171,905L1153,1002L1251,963Z" fill="#ec3f26" stroke="#ec3f26" stroke-width="1.51"/><path d="M1128,-179L1148,-4L1226,-40Z" fill="#ffae6d" stroke="#ffae6d" stroke-width="1.51"/><path d="M1134,1088L1096,1231L1227,1194Z" fill="#d13d2c" stroke="#d13d2c" stroke-width="1.51"/><path d="M1032,656L1112,772L1139,617Z" fill="#fd6930" stroke="#fd6930" stroke-width="1.51"/><path d="M1128,-179L993,-26L1148,-4Z" fill="#ffb56f" stroke="#ffb56f" stroke-width="1.51"/><path d="M1053,849L982,977L1153,1002Z" fill="#ee5229" stroke="#ee5229" stroke-width="1.51"/><path d="M999,508L1096,551L1160,397Z" fill="#fe873a" stroke="#fe873a" stroke-width="1.51"/><path d="M988,393L999,508L1160,397Z" fill="#fe903d" stroke="#fe903d" stroke-width="1.51"/><path d="M1053,849L1153,1002L1171,905Z" fill="#f04b26" stroke="#f04b26" stroke-width="1.51"/><path d="M1112,772L1053,849L1171,905Z" fill="#f55429" stroke="#f55429" stroke-width="1.51"/><path d="M1023,1107L1029,1207L1096,1231Z" fill="#cf4a2f" stroke="#cf4a2f" stroke-width="1.51"/><path d="M984,-168L993,-26L1128,-179Z" fill="#ffbc77" stroke="#ffbc77" stroke-width="1.51"/><path d="M1023,1107L1096,1231L1134,1088Z" fill="#d6462e" stroke="#d6462e" stroke-width="1.51"/><path d="M1109,284L1024,321L1160,397Z" fill="#ff9541" stroke="#ff9541" stroke-width="1.51"/><path d="M1024,321L988,393L1160,397Z" fill="#fe9540" stroke="#fe9540" stroke-width="1.51"/><path d="M1002,67L1103,102L1148,-4Z" fill="#ffaf61" stroke="#ffaf61" stroke-width="1.51"/><path d="M1023,1107L1134,1088L1153,1002Z" fill="#e1472c" stroke="#e1472c" stroke-width="1.51"/><path d="M982,977L1023,1107L1153,1002Z" fill="#e54f2c" stroke="#e54f2c" stroke-width="1.51"/><path d="M993,-26L1002,67L1148,-4Z" fill="#ffb467" stroke="#ffb467" stroke-width="1.51"/><path d="M1096,551L1032,656L1139,617Z" fill="#fd7634" stroke="#fd7634" stroke-width="1.51"/><path d="M1103,102L1013,194L1125,200Z" fill="#ffa954" stroke="#ffa954" stroke-width="1.51"/><path d="M1013,194L1109,284L1125,200Z" fill="#ffa34e" stroke="#ffa34e" stroke-width="1.51"/><path d="M1032,656L998,780L1112,772Z" fill="#fc662f" stroke="#fc662f" stroke-width="1.51"/><path d="M98,-169L234,-151L289,-150Z" fill="#ffefa8" stroke="#ffefa8" stroke-width="1.51"/><path d="M1013,194L1024,321L1109,284Z" fill="#ffa14b" stroke="#ffa14b" stroke-width="1.51"/><path d="M998,780L1053,849L1112,772Z" fill="#f85f2d" stroke="#f85f2d" stroke-width="1.51"/><path d="M1002,67L1013,194L1103,102Z" fill="#ffaf5b" stroke="#ffaf5b" stroke-width="1.51"/><path d="M999,508L1032,656L1096,551Z" fill="#fd8138" stroke="#fd8138" stroke-width="1.51"/><path d="M984,-168L933,-65L993,-26Z" fill="#ffc075" stroke="#ffc075" stroke-width="1.51"/><path d="M1002,67L938,167L1013,194Z" fill="#ffb35a" stroke="#ffb35a" stroke-width="1.51"/><path d="M999,508L928,527L1032,656Z" fill="#fd873a" stroke="#fd873a" stroke-width="1.51"/><path d="M998,780L875,883L1053,849Z" fill="#f6652e" stroke="#f6652e" stroke-width="1.51"/><path d="M875,883L982,977L1053,849Z" fill="#f25f2b" stroke="#f25f2b" stroke-width="1.51"/><path d="M875,883L916,969L982,977Z" fill="#ee612d" stroke="#ee612d" stroke-width="1.51"/><path d="M902,659L906,768L998,780Z" fill="#fd7133" stroke="#fd7133" stroke-width="1.51"/><path d="M988,393L913,451L999,508Z" fill="#fe9640" stroke="#fe9640" stroke-width="1.51"/><path d="M916,117L938,167L1002,67Z" fill="#ffb75e" stroke="#ffb75e" stroke-width="1.51"/><path d="M938,167L938,337L1013,194Z" fill="#ffac51" stroke="#ffac51" stroke-width="1.51"/><path d="M982,977L916,969L1023,1107Z" fill="#e6592e" stroke="#e6592e" stroke-width="1.51"/><path d="M1013,194L938,337L1024,321Z" fill="#ffa54b" stroke="#ffa54b" stroke-width="1.51"/><path d="M1023,1107L880,1150L1029,1207Z" fill="#d45331" stroke="#d45331" stroke-width="1.51"/><path d="M880,1150L884,1203L1029,1207Z" fill="#cf5532" stroke="#cf5532" stroke-width="1.51"/><path d="M902,659L998,780L1032,656Z" fill="#fd7334" stroke="#fd7334" stroke-width="1.51"/><path d="M928,527L902,659L1032,656Z" fill="#fd8338" stroke="#fd8338" stroke-width="1.51"/><path d="M916,969L880,1150L1023,1107Z" fill="#e05a31" stroke="#e05a31" stroke-width="1.51"/><path d="M938,337L988,393L1024,321Z" fill="#fe9e43" stroke="#fe9e43" stroke-width="1.51"/><path d="M906,768L875,883L998,780Z" fill="#f86b30" stroke="#f86b30" stroke-width="1.51"/><path d="M912,-173L933,-65L984,-168Z" fill="#ffc47c" stroke="#ffc47c" stroke-width="1.51"/><path d="M933,-65L916,117L993,-26Z" fill="#ffbd6b" stroke="#ffbd6b" stroke-width="1.51"/><path d="M913,451L928,527L999,508Z" fill="#fd933e" stroke="#fd933e" stroke-width="1.51"/><path d="M993,-26L916,117L1002,67Z" fill="#ffb965" stroke="#ffb965" stroke-width="1.51"/><path d="M938,337L913,451L988,393Z" fill="#fe9d42" stroke="#fe9d42" stroke-width="1.51"/><path d="M822,93L916,117L933,-65Z" fill="#ffbf68" stroke="#ffbf68" stroke-width="1.51"/><path d="M794,1019L880,1150L916,969Z" fill="#e46132" stroke="#e46132" stroke-width="1.51"/><path d="M757,536L902,659L928,527Z" fill="#fe8f3d" stroke="#fe8f3d" stroke-width="1.51"/><path d="M760,-61L822,93L933,-65Z" fill="#ffc571" stroke="#ffc571" stroke-width="1.51"/><path d="M912,-173L790,-175L933,-65Z" fill="#ffc87e" stroke="#ffc87e" stroke-width="1.51"/><path d="M790,-175L760,-61L933,-65Z" fill="#ffca7b" stroke="#ffca7b" stroke-width="1.51"/><path d="M916,117L822,93L938,167Z" fill="#ffba5f" stroke="#ffba5f" stroke-width="1.51"/><path d="M822,93L752,214L938,167Z" fill="#ffbc5d" stroke="#ffbc5d" stroke-width="1.51"/><path d="M780,391L913,451L938,337Z" fill="#fea145" stroke="#fea145" stroke-width="1.51"/><path d="M781,348L780,391L938,337Z" fill="#fea847" stroke="#fea847" stroke-width="1.51"/><path d="M938,167L752,214L938,337Z" fill="#ffb153" stroke="#ffb153" stroke-width="1.51"/><path d="M752,214L781,348L938,337Z" fill="#ffae4d" stroke="#ffae4d" stroke-width="1.51"/><path d="M757,536L754,631L902,659Z" fill="#fe8d3d" stroke="#fe8d3d" stroke-width="1.51"/><path d="M913,451L757,536L928,527Z" fill="#fe9740" stroke="#fe9740" stroke-width="1.51"/><path d="M902,659L786,790L906,768Z" fill="#fd7634" stroke="#fd7634" stroke-width="1.51"/><path d="M786,790L875,883L906,768Z" fill="#f87032" stroke="#f87032" stroke-width="1.51"/><path d="M875,883L794,1019L916,969Z" fill="#ed652f" stroke="#ed652f" stroke-width="1.51"/><path d="M586,-142L678,-136L790,-175Z" fill="#ffd585" stroke="#ffd585" stroke-width="1.51"/><path d="M780,391L757,536L913,451Z" fill="#fe9f43" stroke="#fe9f43" stroke-width="1.51"/><path d="M794,1019L750,1099L880,1150Z" fill="#e06335" stroke="#e06335" stroke-width="1.51"/><path d="M754,631L786,790L902,659Z" fill="#fe8038" stroke="#fe8038" stroke-width="1.51"/><path d="M761,868L794,1019L875,883Z" fill="#f16a2f" stroke="#f16a2f" stroke-width="1.51"/><path d="M786,790L761,868L875,883Z" fill="#f77132" stroke="#f77132" stroke-width="1.51"/><path d="M880,1150L819,1222L884,1203Z" fill="#cf5a34" stroke="#cf5a34" stroke-width="1.51"/><path d="M750,1099L819,1222L880,1150Z" fill="#d55f35" stroke="#d55f35" stroke-width="1.51"/><path d="M576,1206L332,1260L679,1238Z" fill="#ca7043" stroke="#ca7043" stroke-width="1.51"/><path d="M662,-18L696,104L760,-61Z" fill="#ffcc72" stroke="#ffcc72" stroke-width="1.51"/><path d="M697,516L757,536L780,391Z" fill="#fea144" stroke="#fea144" stroke-width="1.51"/><path d="M754,631L682,670L786,790Z" fill="#fe843a" stroke="#fe843a" stroke-width="1.51"/><path d="M750,1099L679,1238L819,1222Z" fill="#d06237" stroke="#d06237" stroke-width="1.51"/><path d="M760,-61L696,104L822,93Z" fill="#ffc76c" stroke="#ffc76c" stroke-width="1.51"/><path d="M696,104L752,214L822,93Z" fill="#ffc262" stroke="#ffc262" stroke-width="1.51"/><path d="M696,104L697,204L752,214Z" fill="#ffc25f" stroke="#ffc25f" stroke-width="1.51"/><path d="M645,865L675,1037L761,868Z" fill="#f27232" stroke="#f27232" stroke-width="1.51"/><path d="M667,405L697,516L780,391Z" fill="#fea847" stroke="#fea847" stroke-width="1.51"/><path d="M752,214L661,329L781,348Z" fill="#ffb551" stroke="#ffb551" stroke-width="1.51"/><path d="M682,670L648,763L786,790Z" fill="#fe8139" stroke="#fe8139" stroke-width="1.51"/><path d="M678,-136L760,-61L790,-175Z" fill="#ffd080" stroke="#ffd080" stroke-width="1.51"/><path d="M761,868L675,1037L794,1019Z" fill="#ed6d33" stroke="#ed6d33" stroke-width="1.51"/><path d="M675,1037L750,1099L794,1019Z" fill="#e46a35" stroke="#e46a35" stroke-width="1.51"/><path d="M648,763L761,868L786,790Z" fill="#f97a36" stroke="#f97a36" stroke-width="1.51"/><path d="M697,204L661,329L752,214Z" fill="#ffbb57" stroke="#ffbb57" stroke-width="1.51"/><path d="M648,763L645,865L761,868Z" fill="#f87b35" stroke="#f87b35" stroke-width="1.51"/><path d="M667,405L780,391L781,348Z" fill="#feab49" stroke="#feab49" stroke-width="1.51"/><path d="M661,329L667,405L781,348Z" fill="#feb04a" stroke="#feb04a" stroke-width="1.51"/><path d="M656,1077L679,1238L750,1099Z" fill="#d96938" stroke="#d96938" stroke-width="1.51"/><path d="M697,516L682,670L754,631Z" fill="#fe943f" stroke="#fe943f" stroke-width="1.51"/><path d="M697,516L754,631L757,536Z" fill="#fe9941" stroke="#fe9941" stroke-width="1.51"/><path d="M678,-136L662,-18L760,-61Z" fill="#ffd07b" stroke="#ffd07b" stroke-width="1.51"/><path d="M434,1204L332,1260L576,1206Z" fill="#cc7648" stroke="#cc7648" stroke-width="1.51"/><path d="M675,1037L656,1077L750,1099Z" fill="#e36c37" stroke="#e36c37" stroke-width="1.51"/><path d="M583,1087L576,1206L656,1077Z" fill="#dc703d" stroke="#dc703d" stroke-width="1.51"/><path d="M645,865L528,1003L675,1037Z" fill="#ee7738" stroke="#ee7738" stroke-width="1.51"/><path d="M569,-74L662,-18L678,-136Z" fill="#ffd47f" stroke="#ffd47f" stroke-width="1.51"/><path d="M656,1077L576,1206L679,1238Z" fill="#d36b3b" stroke="#d36b3b" stroke-width="1.51"/><path d="M534,546L531,638L682,670Z" fill="#ff9b46" stroke="#ff9b46" stroke-width="1.51"/><path d="M662,-18L562,116L696,104Z" fill="#ffcd6f" stroke="#ffcd6f" stroke-width="1.51"/><path d="M667,405L527,452L697,516Z" fill="#feab4a" stroke="#feab4a" stroke-width="1.51"/><path d="M527,452L534,546L697,516Z" fill="#fea94c" stroke="#fea94c" stroke-width="1.51"/><path d="M534,546L682,670L697,516Z" fill="#fe9d44" stroke="#fe9d44" stroke-width="1.51"/><path d="M593,330L661,329L697,204Z" fill="#ffbb55" stroke="#ffbb55" stroke-width="1.51"/><path d="M545,181L593,330L697,204Z" fill="#ffc25e" stroke="#ffc25e" stroke-width="1.51"/><path d="M696,104L562,116L697,204Z" fill="#ffc966" stroke="#ffc966" stroke-width="1.51"/><path d="M562,116L545,181L697,204Z" fill="#fecb67" stroke="#fecb67" stroke-width="1.51"/><path d="M586,-142L569,-74L678,-136Z" fill="#ffd886" stroke="#ffd886" stroke-width="1.51"/><path d="M531,638L648,763L682,670Z" fill="#ff8e40" stroke="#ff8e40" stroke-width="1.51"/><path d="M661,329L593,330L667,405Z" fill="#feb44f" stroke="#feb44f" stroke-width="1.51"/><path d="M528,1003L583,1087L675,1037Z" fill="#e6753b" stroke="#e6753b" stroke-width="1.51"/><path d="M526,866L528,1003L645,865Z" fill="#f57c3a" stroke="#f57c3a" stroke-width="1.51"/><path d="M583,1087L656,1077L675,1037Z" fill="#e3713a" stroke="#e3713a" stroke-width="1.51"/><path d="M569,-74L562,116L662,-18Z" fill="#ffd379" stroke="#ffd379" stroke-width="1.51"/><path d="M593,330L527,452L667,405Z" fill="#feb350" stroke="#feb350" stroke-width="1.51"/><path d="M525,783L645,865L648,763Z" fill="#fb833c" stroke="#fb833c" stroke-width="1.51"/><path d="M531,638L525,783L648,763Z" fill="#ff8c41" stroke="#ff8c41" stroke-width="1.51"/><path d="M525,783L526,866L645,865Z" fill="#f9833d" stroke="#f9833d" stroke-width="1.51"/><path d="M462,113L562,116L569,-74Z" fill="#ffd579" stroke="#ffd579" stroke-width="1.51"/><path d="M433,-56L462,113L569,-74Z" fill="#ffdb82" stroke="#ffdb82" stroke-width="1.51"/><path d="M449,1146L576,1206L583,1087Z" fill="#d97442" stroke="#d97442" stroke-width="1.51"/><path d="M447,392L527,452L593,330Z" fill="#ffb956" stroke="#ffb956" stroke-width="1.51"/><path d="M435,322L447,392L593,330Z" fill="#ffbf5a" stroke="#ffbf5a" stroke-width="1.51"/><path d="M545,181L435,322L593,330Z" fill="#ffc460" stroke="#ffc460" stroke-width="1.51"/><path d="M414,-137L569,-74L586,-142Z" fill="#ffde8d" stroke="#ffde8d" stroke-width="1.51"/><path d="M526,866L470,883L528,1003Z" fill="#f5813e" stroke="#f5813e" stroke-width="1.51"/><path d="M528,1003L449,1146L583,1087Z" fill="#e37942" stroke="#e37942" stroke-width="1.51"/><path d="M414,-137L433,-56L569,-74Z" fill="#ffe08d" stroke="#ffe08d" stroke-width="1.51"/><path d="M449,1146L434,1204L576,1206Z" fill="#d37545" stroke="#d37545" stroke-width="1.51"/><path d="M428,668L525,783L531,638Z" fill="#ff9649" stroke="#ff9649" stroke-width="1.51"/><path d="M433,175L435,322L545,181Z" fill="#ffcd6a" stroke="#ffcd6a" stroke-width="1.51"/><path d="M470,883L443,985L528,1003Z" fill="#f18141" stroke="#f18141" stroke-width="1.51"/><path d="M462,113L545,181L562,116Z" fill="#ffd170" stroke="#ffd170" stroke-width="1.51"/><path d="M428,668L412,748L525,783Z" fill="#ff954a" stroke="#ff954a" stroke-width="1.51"/><path d="M443,985L449,1146L528,1003Z" fill="#e87d44" stroke="#e87d44" stroke-width="1.51"/><path d="M421,515L428,668L531,638Z" fill="#ffa650" stroke="#ffa650" stroke-width="1.51"/><path d="M421,515L531,638L534,546Z" fill="#ffa84f" stroke="#ffa84f" stroke-width="1.51"/><path d="M527,452L421,515L534,546Z" fill="#ffaf52" stroke="#ffaf52" stroke-width="1.51"/><path d="M462,113L433,175L545,181Z" fill="#ffd370" stroke="#ffd370" stroke-width="1.51"/><path d="M525,783L470,883L526,866Z" fill="#f98741" stroke="#f98741" stroke-width="1.51"/><path d="M412,748L470,883L525,783Z" fill="#fd8d45" stroke="#fd8d45" stroke-width="1.51"/><path d="M447,392L421,515L527,452Z" fill="#ffb756" stroke="#ffb756" stroke-width="1.51"/><path d="M421,515L350,639L428,668Z" fill="#ffaa54" stroke="#ffaa54" stroke-width="1.51"/><path d="M301,-30L337,111L433,-56Z" fill="#ffe28a" stroke="#ffe28a" stroke-width="1.51"/><path d="M433,175L346,172L435,322Z" fill="#ffd26e" stroke="#ffd26e" stroke-width="1.51"/><path d="M443,985L324,1094L449,1146Z" fill="#e58149" stroke="#e58149" stroke-width="1.51"/><path d="M433,-56L337,111L462,113Z" fill="#ffdd81" stroke="#ffdd81" stroke-width="1.51"/><path d="M340,911L443,985L470,883Z" fill="#f48745" stroke="#f48745" stroke-width="1.51"/><path d="M412,748L340,911L470,883Z" fill="#fa8e48" stroke="#fa8e48" stroke-width="1.51"/><path d="M346,172L295,300L435,322Z" fill="#ffd06d" stroke="#ffd06d" stroke-width="1.51"/><path d="M312,1000L324,1094L443,985Z" fill="#ea864c" stroke="#ea864c" stroke-width="1.51"/><path d="M328,417L421,515L447,392Z" fill="#ffbc5c" stroke="#ffbc5c" stroke-width="1.51"/><path d="M337,111L433,175L462,113Z" fill="#fed978" stroke="#fed978" stroke-width="1.51"/><path d="M295,755L340,911L412,748Z" fill="#fd944e" stroke="#fd944e" stroke-width="1.51"/><path d="M337,111L346,172L433,175Z" fill="#feda79" stroke="#feda79" stroke-width="1.51"/><path d="M435,322L328,417L447,392Z" fill="#ffc25f" stroke="#ffc25f" stroke-width="1.51"/><path d="M324,1094L434,1204L449,1146Z" fill="#d97d4a" stroke="#d97d4a" stroke-width="1.51"/><path d="M340,911L312,1000L443,985Z" fill="#f18849" stroke="#f18849" stroke-width="1.51"/><path d="M291,575L350,639L421,515Z" fill="#ffb059" stroke="#ffb059" stroke-width="1.51"/><path d="M350,639L412,748L428,668Z" fill="#ff9f50" stroke="#ff9f50" stroke-width="1.51"/><path d="M414,-137L301,-30L433,-56Z" fill="#ffe592" stroke="#ffe592" stroke-width="1.51"/><path d="M324,1094L332,1260L434,1204Z" fill="#d37d4d" stroke="#d37d4d" stroke-width="1.51"/><path d="M295,300L328,417L435,322Z" fill="#ffc765" stroke="#ffc765" stroke-width="1.51"/><path d="M350,639L295,755L412,748Z" fill="#ff9d52" stroke="#ff9d52" stroke-width="1.51"/><path d="M289,-150L301,-30L414,-137Z" fill="#ffe899" stroke="#ffe899" stroke-width="1.51"/><path d="M328,417L291,575L421,515Z" fill="#ffb95d" stroke="#ffb95d" stroke-width="1.51"/><path d="M295,300L238,408L328,417Z" fill="#ffc767" stroke="#ffc767" stroke-width="1.51"/><path d="M238,408L291,575L328,417Z" fill="#ffbe64" stroke="#ffbe64" stroke-width="1.51"/><path d="M211,1196L67,1217L332,1260Z" fill="#ce8058" stroke="#ce8058" stroke-width="1.51"/><path d="M324,1094L211,1196L332,1260Z" fill="#d58052" stroke="#d58052" stroke-width="1.51"/><path d="M301,-30L211,-16L337,111Z" fill="#ffe48e" stroke="#ffe48e" stroke-width="1.51"/><path d="M211,-16L195,116L337,111Z" fill="#ffe38b" stroke="#ffe38b" stroke-width="1.51"/><path d="M295,755L217,792L340,911Z" fill="#fd9652" stroke="#fd9652" stroke-width="1.51"/><path d="M217,792L182,875L340,911Z" fill="#fb9453" stroke="#fb9453" stroke-width="1.51"/><path d="M239,282L295,300L346,172Z" fill="#ffd374" stroke="#ffd374" stroke-width="1.51"/><path d="M198,206L239,282L346,172Z" fill="#ffd879" stroke="#ffd879" stroke-width="1.51"/><path d="M234,658L295,755L350,639Z" fill="#ffa358" stroke="#ffa358" stroke-width="1.51"/><path d="M291,575L234,658L350,639Z" fill="#ffab5b" stroke="#ffab5b" stroke-width="1.51"/><path d="M337,111L195,116L346,172Z" fill="#ffde81" stroke="#ffde81" stroke-width="1.51"/><path d="M195,116L198,206L346,172Z" fill="#ffde80" stroke="#ffde80" stroke-width="1.51"/><path d="M199,966L312,1000L340,911Z" fill="#f38c4f" stroke="#f38c4f" stroke-width="1.51"/><path d="M182,875L199,966L340,911Z" fill="#f78f51" stroke="#f78f51" stroke-width="1.51"/><path d="M186,1132L211,1196L324,1094Z" fill="#dd8455" stroke="#dd8455" stroke-width="1.51"/><path d="M238,408L193,570L291,575Z" fill="#ffbb64" stroke="#ffbb64" stroke-width="1.51"/><path d="M289,-150L234,-151L301,-30Z" fill="#ffeb9e" stroke="#ffeb9e" stroke-width="1.51"/><path d="M199,966L186,1132L312,1000Z" fill="#eb8a54" stroke="#eb8a54" stroke-width="1.51"/><path d="M312,1000L186,1132L324,1094Z" fill="#e68652" stroke="#e68652" stroke-width="1.51"/><path d="M239,282L238,408L295,300Z" fill="#ffcd6d" stroke="#ffcd6d" stroke-width="1.51"/><path d="M234,-151L211,-16L301,-30Z" fill="#ffe99b" stroke="#ffe99b" stroke-width="1.51"/><path d="M234,658L217,792L295,755Z" fill="#ff9e58" stroke="#ff9e58" stroke-width="1.51"/><path d="M193,570L234,658L291,575Z" fill="#ffb160" stroke="#ffb160" stroke-width="1.51"/><path d="M93,1005L186,1132L199,966Z" fill="#ec8c59" stroke="#ec8c59" stroke-width="1.51"/><path d="M103,89L195,116L211,-16Z" fill="#ffe692" stroke="#ffe692" stroke-width="1.51"/><path d="M81,732L217,792L234,658Z" fill="#ffa15d" stroke="#ffa15d" stroke-width="1.51"/><path d="M92,-54L211,-16L234,-151Z" fill="#ffeca0" stroke="#ffeca0" stroke-width="1.51"/><path d="M98,-169L92,-54L234,-151Z" fill="#fff0a9" stroke="#fff0a9" stroke-width="1.51"/><path d="M85,511L193,570L238,408Z" fill="#ffbf6a" stroke="#ffbf6a" stroke-width="1.51"/><path d="M120,390L85,511L238,408Z" fill="#ffc66f" stroke="#ffc66f" stroke-width="1.51"/><path d="M116,329L120,390L238,408Z" fill="#ffcc71" stroke="#ffcc71" stroke-width="1.51"/><path d="M116,329L238,408L239,282Z" fill="#ffce70" stroke="#ffce70" stroke-width="1.51"/><path d="M198,206L116,329L239,282Z" fill="#ffd579" stroke="#ffd579" stroke-width="1.51"/><path d="M193,570L65,658L234,658Z" fill="#ffaf64" stroke="#ffaf64" stroke-width="1.51"/><path d="M65,658L81,732L234,658Z" fill="#ffa964" stroke="#ffa964" stroke-width="1.51"/><path d="M93,1005L65,1079L186,1132Z" fill="#e88c5d" stroke="#e88c5d" stroke-width="1.51"/><path d="M82,227L116,329L198,206Z" fill="#ffd97f" stroke="#ffd97f" stroke-width="1.51"/><path d="M98,882L182,875L217,792Z" fill="#fd9759" stroke="#fd9759" stroke-width="1.51"/><path d="M81,732L98,882L217,792Z" fill="#ff9d5d" stroke="#ff9d5d" stroke-width="1.51"/><path d="M92,-54L103,89L211,-16Z" fill="#ffea9b" stroke="#ffea9b" stroke-width="1.51"/><path d="M186,1132L67,1217L211,1196Z" fill="#d6845b" stroke="#d6845b" stroke-width="1.51"/><path d="M-113,-132L-46,-123L98,-169Z" fill="#fff6b7" stroke="#fff6b7" stroke-width="1.51"/><path d="M195,116L103,89L198,206Z" fill="#ffe28a" stroke="#ffe28a" stroke-width="1.51"/><path d="M103,89L82,227L198,206Z" fill="#ffe188" stroke="#ffe188" stroke-width="1.51"/><path d="M182,875L98,882L199,966Z" fill="#f99357" stroke="#f99357" stroke-width="1.51"/><path d="M98,882L93,1005L199,966Z" fill="#f59159" stroke="#f59159" stroke-width="1.51"/><path d="M85,511L65,658L193,570Z" fill="#ffb86b" stroke="#ffb86b" stroke-width="1.51"/><path d="M65,1079L67,1217L186,1132Z" fill="#dd885e" stroke="#dd885e" stroke-width="1.51"/><path d="M65,1079L3,1096L67,1217Z" fill="#e08b63" stroke="#e08b63" stroke-width="1.51"/><path d="M-42,569L65,658L85,511Z" fill="#ffba70" stroke="#ffba70" stroke-width="1.51"/><path d="M81,732L-11,750L98,882Z" fill="#ffa063" stroke="#ffa063" stroke-width="1.51"/><path d="M-15,912L93,1005L98,882Z" fill="#f8945e" stroke="#f8945e" stroke-width="1.51"/><path d="M16,-70L92,-54L98,-169Z" fill="#fff1ab" stroke="#fff1ab" stroke-width="1.51"/><path d="M92,-54L5,75L103,89Z" fill="#ffeb9c" stroke="#ffeb9c" stroke-width="1.51"/><path d="M5,75L82,227L103,89Z" fill="#ffe692" stroke="#ffe692" stroke-width="1.51"/><path d="M82,227L18,328L116,329Z" fill="#ffd67f" stroke="#ffd67f" stroke-width="1.51"/><path d="M0,424L85,511L120,390Z" fill="#ffc874" stroke="#ffc874" stroke-width="1.51"/><path d="M116,329L18,328L120,390Z" fill="#ffd178" stroke="#ffd178" stroke-width="1.51"/><path d="M18,328L0,424L120,390Z" fill="#ffcf79" stroke="#ffcf79" stroke-width="1.51"/><path d="M16,-70L5,75L92,-54Z" fill="#ffefa4" stroke="#ffefa4" stroke-width="1.51"/><path d="M5,75L-41,228L82,227Z" fill="#ffe491" stroke="#ffe491" stroke-width="1.51"/><path d="M-15,912L-17,1016L93,1005Z" fill="#f39462" stroke="#f39462" stroke-width="1.51"/><path d="M-11,750L-15,912L98,882Z" fill="#fe9c63" stroke="#fe9c63" stroke-width="1.51"/><path d="M-46,-123L16,-70L98,-169Z" fill="#fff4b2" stroke="#fff4b2" stroke-width="1.51"/><path d="M-42,569L-27,651L65,658Z" fill="#ffb570" stroke="#ffb570" stroke-width="1.51"/><path d="M-17,1016L65,1079L93,1005Z" fill="#ed9061" stroke="#ed9061" stroke-width="1.51"/><path d="M3,1096L-29,1214L67,1217Z" fill="#d88965" stroke="#d88965" stroke-width="1.51"/><path d="M65,658L-11,750L81,732Z" fill="#ffa868" stroke="#ffa868" stroke-width="1.51"/><path d="M-41,228L18,328L82,227Z" fill="#ffdb87" stroke="#ffdb87" stroke-width="1.51"/><path d="M0,424L-42,569L85,511Z" fill="#ffc476" stroke="#ffc476" stroke-width="1.51"/><path d="M-27,651L-11,750L65,658Z" fill="#ffad6c" stroke="#ffad6c" stroke-width="1.51"/><path d="M-17,1016L3,1096L65,1079Z" fill="#ea8f64" stroke="#ea8f64" stroke-width="1.51"/><path d="M-135,887L-15,912L-11,750Z" fill="#ff9e69" stroke="#ff9e69" stroke-width="1.51"/><path d="M-163,793L-135,887L-11,750Z" fill="#ffa46f" stroke="#ffa46f" stroke-width="1.51"/><path d="M-95,537L-42,569L0,424Z" fill="#ffc57a" stroke="#ffc57a" stroke-width="1.51"/><path d="M-136,105L-41,228L5,75Z" fill="#ffe99b" stroke="#ffe99b" stroke-width="1.51"/><path d="M-148,-35L5,75L16,-70Z" fill="#fff1aa" stroke="#fff1aa" stroke-width="1.51"/><path d="M-46,-123L-148,-35L16,-70Z" fill="#fff4b2" stroke="#fff4b2" stroke-width="1.51"/><path d="M-41,228L-168,298L18,328Z" fill="#ffdb8b" stroke="#ffdb8b" stroke-width="1.51"/><path d="M-144,415L0,424L18,328Z" fill="#ffd17f" stroke="#ffd17f" stroke-width="1.51"/><path d="M-168,298L-144,415L18,328Z" fill="#ffd686" stroke="#ffd686" stroke-width="1.51"/><path d="M-148,-35L-136,105L5,75Z" fill="#ffefa7" stroke="#ffefa7" stroke-width="1.51"/><path d="M-144,415L-95,537L0,424Z" fill="#ffcb7f" stroke="#ffcb7f" stroke-width="1.51"/><path d="M-17,1016L-157,1124L3,1096Z" fill="#e9916a" stroke="#e9916a" stroke-width="1.51"/><path d="M-157,1124L-29,1214L3,1096Z" fill="#de8d6a" stroke="#de8d6a" stroke-width="1.51"/><path d="M-157,1124L-129,1217L-29,1214Z" fill="#d88c6d" stroke="#d88c6d" stroke-width="1.51"/><path d="M-164,984L-17,1016L-15,912Z" fill="#f59668" stroke="#f59668" stroke-width="1.51"/><path d="M-164,984L-157,1124L-17,1016Z" fill="#ee946c" stroke="#ee946c" stroke-width="1.51"/><path d="M-135,887L-164,984L-15,912Z" fill="#fa9a6a" stroke="#fa9a6a" stroke-width="1.51"/><path d="M-27,651L-159,671L-11,750Z" fill="#ffae71" stroke="#ffae71" stroke-width="1.51"/><path d="M-159,671L-163,793L-11,750Z" fill="#ffaa72" stroke="#ffaa72" stroke-width="1.51"/><path d="M-113,-132L-148,-35L-46,-123Z" fill="#fff6b8" stroke="#fff6b8" stroke-width="1.51"/><path d="M-157,233L-168,298L-41,228Z" fill="#ffe193" stroke="#ffe193" stroke-width="1.51"/><path d="M-136,105L-157,233L-41,228Z" fill="#ffe799" stroke="#ffe799" stroke-width="1.51"/><path d="M-42,569L-159,671L-27,651Z" fill="#ffb776" stroke="#ffb776" stroke-width="1.51"/><path d="M-95,537L-159,671L-42,569Z" fill="#ffbc7a" stroke="#ffbc7a" stroke-width="1.51"/><path d="M-144,415L-159,671L-95,537Z" fill="#ffc57f" stroke="#ffc57f" stroke-width="1.51"/><path d="M-163,793L-164,984L-135,887Z" fill="#fe9e6e" stroke="#fe9e6e" stroke-width="1.51"/><path d="M-148,-35L-157,233L-136,105Z" fill="#ffeea5" stroke="#ffeea5" stroke-width="1.51"/><path d="M-168,298L-159,671L-144,415Z" fill="#ffcd85" stroke="#ffcd85" stroke-width="1.51"/><path d="M-168,298L-157,233L-148,-35Z" fill="#ffeb9f" stroke="#ffeb9f" stroke-width="1.51"/><path d="M-168,298L-163,793L-159,671Z" fill="#ffbf7f" stroke="#ffbf7f" stroke-width="1.51"/></svg>