<svg xmlns="http://www.w3.org/2000/svg" width="1920" height="1080"><path d="M162,1321L-70,1308L334,1340Z" fill="#753933" stroke="#753933" stroke-width="1.51"/><path d="M188,-263L680,-179L854,-179Z" fill="#c3695d" stroke="#c3695d" stroke-width="1.51"/><path d="M1179,1296L632,1326L1374,1304Z" fill="#878787" stroke="#878787" stroke-width="1.51"/><path d="M854,-179L1083,-181L1655,-264Z" fill="#bd7d7c" stroke="#bd7d7c" stroke-width="1.51"/><path d="M188,-263L854,-179L1655,-264Z" fill="#c48482" stroke="#c48482" stroke-width="1.51"/><path d="M1083,-181L1230,-183L1655,-264Z" fill="#b37373" stroke="#b37373" stroke-width="1.51"/><path d="M1646,1240L1374,1304L1833,1276Z" fill="#626262" stroke="#626262" stroke-width="1.51"/><path d="M1825,-243L1887,-211L2065,-194Z" fill="#6e3637" stroke="#6e3637" stroke-width="1.51"/><path d="M1945,1108L1924,1269L2101,1111Z" fill="#4b4b4b" stroke="#4b4b4b" stroke-width="1.51"/><path d="M2091,395L1963,380L2104,557Z" fill="#908781" stroke="#908781" stroke-width="1.51"/><path d="M1963,380L1902,529L2104,557Z" fill="#989390" stroke="#989390" stroke-width="1.51"/><path d="M2051,72L1966,263L2105,267Z" fill="#8d6757" stroke="#8d6757" stroke-width="1.51"/><path d="M2091,395L2104,557L2105,267Z" fill="#8a7d76" stroke="#8a7d76" stroke-width="1.51"/><path d="M1911,859L2071,979L2106,795Z" fill="#737373" stroke="#737373" stroke-width="1.51"/><path d="M2071,979L2101,1111L2106,795Z" fill="#5f5f5f" stroke="#5f5f5f" stroke-width="1.51"/><path d="M2104,557L1972,643L2108,685Z" fill="#888888" stroke="#888888" stroke-width="1.51"/><path d="M2065,-194L1982,-45L2121,-35Z" fill="#743430" stroke="#743430" stroke-width="1.51"/><path d="M2051,72L2105,267L2121,-35Z" fill="#814f43" stroke="#814f43" stroke-width="1.51"/><path d="M2104,557L2108,685L2121,-35Z" fill="#897c74" stroke="#897c74" stroke-width="1.51"/><path d="M2105,267L2104,557L2121,-35Z" fill="#87685b" stroke="#87685b" stroke-width="1.51"/><path d="M1833,1276L1374,1304L2127,1273Z" fill="#4f4f4f" stroke="#4f4f4f" stroke-width="1.51"/><path d="M1924,1269L1833,1276L2127,1273Z" fill="#3d3d3d" stroke="#3d3d3d" stroke-width="1.51"/><path d="M2101,1111L1924,1269L2127,1273Z" fill="#3b3b3b" stroke="#3b3b3b" stroke-width="1.51"/><path d="M2106,795L2101,1111L2127,1273Z" fill="#4f4f4f" stroke="#4f4f4f" stroke-width="1.51"/><path d="M2108,685L2106,795L2127,1273Z" fill="#636363" stroke="#636363" stroke-width="1.51"/><path d="M2121,-35L2108,685L2127,1273Z" fill="#7f7f7f" stroke="#7f7f7f" stroke-width="1.51"/><path d="M1963,380L2091,395L2105,267Z" fill="#907c72" stroke="#907c72" stroke-width="1.51"/><path d="M1966,263L1963,380L2105,267Z" fill="#947b6f" stroke="#947b6f" stroke-width="1.51"/><path d="M1972,643L2106,795L2108,685Z" fill="#818181" stroke="#818181" stroke-width="1.51"/><path d="M1982,-45L2051,72L2121,-35Z" fill="#7d423a" stroke="#7d423a" stroke-width="1.51"/><path d="M2071,979L1945,1108L2101,1111Z" fill="#565656" stroke="#565656" stroke-width="1.51"/><path d="M1972,643L1911,859L2106,795Z" fill="#838383" stroke="#838383" stroke-width="1.51"/><path d="M1902,529L1972,643L2104,557Z" fill="#959595" stroke="#959595" stroke-width="1.51"/><path d="M1230,-183L1302,-180L1655,-264Z" fill="#ae6e6e" stroke="#ae6e6e" stroke-width="1.51"/><path d="M1915,77L1966,263L2051,72Z" fill="#926355" stroke="#926355" stroke-width="1.51"/><path d="M1911,859L1910,964L2071,979Z" fill="#737373" stroke="#737373" stroke-width="1.51"/><path d="M1302,-180L1465,-197L1655,-264Z" fill="#a56867" stroke="#a56867" stroke-width="1.51"/><path d="M1887,-211L1982,-45L2065,-194Z" fill="#763634" stroke="#763634" stroke-width="1.51"/><path d="M1910,964L1945,1108L2071,979Z" fill="#656565" stroke="#656565" stroke-width="1.51"/><path d="M1982,-45L1915,77L2051,72Z" fill="#8a5045" stroke="#8a5045" stroke-width="1.51"/><path d="M1802,1188L1924,1269L1945,1108Z" fill="#525252" stroke="#525252" stroke-width="1.51"/><path d="M1915,77L1748,199L1966,263Z" fill="#a27868" stroke="#a27868" stroke-width="1.51"/><path d="M1794,356L1963,380L1966,263Z" fill="#a28c81" stroke="#a28c81" stroke-width="1.51"/><path d="M1815,834L1911,859L1972,643Z" fill="#8e8e8e" stroke="#8e8e8e" stroke-width="1.51"/><path d="M1747,687L1815,834L1972,643Z" fill="#9b9b9b" stroke="#9b9b9b" stroke-width="1.51"/><path d="M1811,-57L1915,77L1982,-45Z" fill="#91524a" stroke="#91524a" stroke-width="1.51"/><path d="M1887,-211L1811,-57L1982,-45Z" fill="#894540" stroke="#894540" stroke-width="1.51"/><path d="M714,1302L632,1326L1179,1296Z" fill="#8d8581" stroke="#8d8581" stroke-width="1.51"/><path d="M1801,500L1902,529L1963,380Z" fill="#a59e9a" stroke="#a59e9a" stroke-width="1.51"/><path d="M1794,356L1801,500L1963,380Z" fill="#aa9d96" stroke="#aa9d96" stroke-width="1.51"/><path d="M1902,529L1747,687L1972,643Z" fill="#a1a1a1" stroke="#a1a1a1" stroke-width="1.51"/><path d="M1748,199L1794,356L1966,263Z" fill="#ab8c7e" stroke="#ab8c7e" stroke-width="1.51"/><path d="M1775,72L1748,199L1915,77Z" fill="#a77365" stroke="#a77365" stroke-width="1.51"/><path d="M1802,1188L1833,1276L1924,1269Z" fill="#4e4e4e" stroke="#4e4e4e" stroke-width="1.51"/><path d="M1910,964L1752,970L1945,1108Z" fill="#727272" stroke="#727272" stroke-width="1.51"/><path d="M1752,970L1802,1188L1945,1108Z" fill="#6a6a6a" stroke="#6a6a6a" stroke-width="1.51"/><path d="M1801,500L1747,687L1902,529Z" fill="#acacac" stroke="#acacac" stroke-width="1.51"/><path d="M1815,834L1910,964L1911,859Z" fill="#848484" stroke="#848484" stroke-width="1.51"/><path d="M1811,-57L1775,72L1915,77Z" fill="#9d6156" stroke="#9d6156" stroke-width="1.51"/><path d="M1815,834L1752,970L1910,964Z" fill="#858585" stroke="#858585" stroke-width="1.51"/><path d="M1825,-243L1811,-57L1887,-211Z" fill="#834442" stroke="#834442" stroke-width="1.51"/><path d="M1653,499L1747,687L1801,500Z" fill="#b8b8b8" stroke="#b8b8b8" stroke-width="1.51"/><path d="M1794,356L1683,435L1801,500Z" fill="#b6aba5" stroke="#b6aba5" stroke-width="1.51"/><path d="M1752,970L1661,1042L1802,1188Z" fill="#797979" stroke="#797979" stroke-width="1.51"/><path d="M1661,1042L1639,1115L1802,1188Z" fill="#767676" stroke="#767676" stroke-width="1.51"/><path d="M1655,-264L1656,-24L1811,-57Z" fill="#a15955" stroke="#a15955" stroke-width="1.51"/><path d="M1655,-264L1811,-57L1825,-243Z" fill="#894b4a" stroke="#894b4a" stroke-width="1.51"/><path d="M1802,1188L1646,1240L1833,1276Z" fill="#5a5a5a" stroke="#5a5a5a" stroke-width="1.51"/><path d="M1656,-24L1775,72L1811,-57Z" fill="#a6665c" stroke="#a6665c" stroke-width="1.51"/><path d="M1596,847L1752,970L1815,834Z" fill="#999999" stroke="#999999" stroke-width="1.51"/><path d="M1747,687L1596,847L1815,834Z" fill="#a4a4a4" stroke="#a4a4a4" stroke-width="1.51"/><path d="M1748,199L1660,206L1794,356Z" fill="#b89687" stroke="#b89687" stroke-width="1.51"/><path d="M1685,88L1748,199L1775,72Z" fill="#b17e6f" stroke="#b17e6f" stroke-width="1.51"/><path d="M1639,1115L1646,1240L1802,1188Z" fill="#6b6b6b" stroke="#6b6b6b" stroke-width="1.51"/><path d="M1683,435L1653,499L1801,500Z" fill="#bdb6b3" stroke="#bdb6b3" stroke-width="1.51"/><path d="M1656,-24L1685,88L1775,72Z" fill="#b07367" stroke="#b07367" stroke-width="1.51"/><path d="M1660,206L1683,435L1794,356Z" fill="#bda59a" stroke="#bda59a" stroke-width="1.51"/><path d="M188,-263L419,-196L680,-179Z" fill="#bb574b" stroke="#bb574b" stroke-width="1.51"/><path d="M1653,499L1588,652L1747,687Z" fill="#bdbdbd" stroke="#bdbdbd" stroke-width="1.51"/><path d="M1588,652L1596,847L1747,687Z" fill="#b4b4b4" stroke="#b4b4b4" stroke-width="1.51"/><path d="M1685,88L1660,206L1748,199Z" fill="#ba8b7b" stroke="#ba8b7b" stroke-width="1.51"/><path d="M1596,847L1661,1042L1752,970Z" fill="#949494" stroke="#949494" stroke-width="1.51"/><path d="M1588,652L1503,717L1596,847Z" fill="#bcbcbc" stroke="#bcbcbc" stroke-width="1.51"/><path d="M1433,1237L1374,1304L1646,1240Z" fill="#727272" stroke="#727272" stroke-width="1.51"/><path d="M1655,-264L1465,-197L1656,-24Z" fill="#a4605e" stroke="#a4605e" stroke-width="1.51"/><path d="M1465,-197L1474,-23L1656,-24Z" fill="#b9716a" stroke="#b9716a" stroke-width="1.51"/><path d="M1480,238L1487,339L1660,206Z" fill="#cfad9e" stroke="#cfad9e" stroke-width="1.51"/><path d="M1596,847L1529,1014L1661,1042Z" fill="#9a9a9a" stroke="#9a9a9a" stroke-width="1.51"/><path d="M1660,206L1487,339L1683,435Z" fill="#c8b0a4" stroke="#c8b0a4" stroke-width="1.51"/><path d="M1656,-24L1474,-23L1685,88Z" fill="#b9796e" stroke="#b9796e" stroke-width="1.51"/><path d="M1474,-23L1453,140L1685,88Z" fill="#c68a7c" stroke="#c68a7c" stroke-width="1.51"/><path d="M1453,140L1660,206L1685,88Z" fill="#c49282" stroke="#c49282" stroke-width="1.51"/><path d="M1487,339L1653,499L1683,435Z" fill="#c9bdb6" stroke="#c9bdb6" stroke-width="1.51"/><path d="M1487,1193L1433,1237L1646,1240Z" fill="#757575" stroke="#757575" stroke-width="1.51"/><path d="M1639,1115L1487,1193L1646,1240Z" fill="#767676" stroke="#767676" stroke-width="1.51"/><path d="M1436,529L1588,652L1653,499Z" fill="#cdcdcd" stroke="#cdcdcd" stroke-width="1.51"/><path d="M1487,339L1436,529L1653,499Z" fill="#d3cac5" stroke="#d3cac5" stroke-width="1.51"/><path d="M1453,140L1480,238L1660,206Z" fill="#cea392" stroke="#cea392" stroke-width="1.51"/><path d="M1529,1014L1639,1115L1661,1042Z" fill="#8a8a8a" stroke="#8a8a8a" stroke-width="1.51"/><path d="M1529,1014L1487,1193L1639,1115Z" fill="#878787" stroke="#878787" stroke-width="1.51"/><path d="M1443,834L1529,1014L1596,847Z" fill="#acacac" stroke="#acacac" stroke-width="1.51"/><path d="M1503,717L1443,834L1596,847Z" fill="#bababa" stroke="#bababa" stroke-width="1.51"/><path d="M1436,529L1503,717L1588,652Z" fill="#cbcbcb" stroke="#cbcbcb" stroke-width="1.51"/><path d="M1436,529L1302,672L1503,717Z" fill="#d5d5d5" stroke="#d5d5d5" stroke-width="1.51"/><path d="M1372,1018L1487,1193L1529,1014Z" fill="#969696" stroke="#969696" stroke-width="1.51"/><path d="M1443,834L1372,1018L1529,1014Z" fill="#ababab" stroke="#ababab" stroke-width="1.51"/><path d="M1030,1254L714,1302L1179,1296Z" fill="#919191" stroke="#919191" stroke-width="1.51"/><path d="M1309,40L1453,140L1474,-23Z" fill="#d19285" stroke="#d19285" stroke-width="1.51"/><path d="M1465,-197L1332,-78L1474,-23Z" fill="#c47972" stroke="#c47972" stroke-width="1.51"/><path d="M1323,385L1436,529L1487,339Z" fill="#ded1c9" stroke="#ded1c9" stroke-width="1.51"/><path d="M1372,1018L1294,1125L1487,1193Z" fill="#969696" stroke="#969696" stroke-width="1.51"/><path d="M1302,672L1443,834L1503,717Z" fill="#cbcbcb" stroke="#cbcbcb" stroke-width="1.51"/><path d="M1453,140L1341,237L1480,238Z" fill="#dbb09e" stroke="#dbb09e" stroke-width="1.51"/><path d="M1480,238L1341,237L1487,339Z" fill="#dcbaab" stroke="#dcbaab" stroke-width="1.51"/><path d="M1341,237L1323,385L1487,339Z" fill="#e0c6ba" stroke="#e0c6ba" stroke-width="1.51"/><path d="M1294,1125L1433,1237L1487,1193Z" fill="#878787" stroke="#878787" stroke-width="1.51"/><path d="M1302,672L1285,804L1443,834Z" fill="#cdcdcd" stroke="#cdcdcd" stroke-width="1.51"/><path d="M1302,-180L1332,-78L1465,-197Z" fill="#be7673" stroke="#be7673" stroke-width="1.51"/><path d="M1332,-78L1309,40L1474,-23Z" fill="#cf8a7f" stroke="#cf8a7f" stroke-width="1.51"/><path d="M1285,804L1372,1018L1443,834Z" fill="#bdbdbd" stroke="#bdbdbd" stroke-width="1.51"/><path d="M1323,385L1293,526L1436,529Z" fill="#e3ddd9" stroke="#e3ddd9" stroke-width="1.51"/><path d="M1293,526L1302,672L1436,529Z" fill="#e0e0e0" stroke="#e0e0e0" stroke-width="1.51"/><path d="M1309,40L1341,237L1453,140Z" fill="#dba797" stroke="#dba797" stroke-width="1.51"/><path d="M1294,1125L1374,1304L1433,1237Z" fill="#838383" stroke="#838383" stroke-width="1.51"/><path d="M1285,804L1231,838L1372,1018Z" fill="#c3c3c3" stroke="#c3c3c3" stroke-width="1.51"/><path d="M1309,40L1185,140L1341,237Z" fill="#e3ae9e" stroke="#e3ae9e" stroke-width="1.51"/><path d="M1229,338L1323,385L1341,237Z" fill="#e7cdc0" stroke="#e7cdc0" stroke-width="1.51"/><path d="M1231,838L1172,988L1372,1018Z" fill="#bcbcbc" stroke="#bcbcbc" stroke-width="1.51"/><path d="M1294,1125L1179,1296L1374,1304Z" fill="#858585" stroke="#858585" stroke-width="1.51"/><path d="M1172,988L1294,1125L1372,1018Z" fill="#ababab" stroke="#ababab" stroke-width="1.51"/><path d="M1169,1175L1179,1296L1294,1125Z" fill="#929292" stroke="#929292" stroke-width="1.51"/><path d="M1293,526L1193,633L1302,672Z" fill="#e4e4e4" stroke="#e4e4e4" stroke-width="1.51"/><path d="M1191,-57L1309,40L1332,-78Z" fill="#d68f85" stroke="#d68f85" stroke-width="1.51"/><path d="M1185,140L1229,257L1341,237Z" fill="#eabfad" stroke="#eabfad" stroke-width="1.51"/><path d="M1229,257L1229,338L1341,237Z" fill="#e9c8b9" stroke="#e9c8b9" stroke-width="1.51"/><path d="M1229,338L1293,526L1323,385Z" fill="#e9dbd4" stroke="#e9dbd4" stroke-width="1.51"/><path d="M1302,-180L1230,-183L1332,-78Z" fill="#c67c78" stroke="#c67c78" stroke-width="1.51"/><path d="M1230,-183L1191,-57L1332,-78Z" fill="#d1847e" stroke="#d1847e" stroke-width="1.51"/><path d="M1229,338L1147,527L1293,526Z" fill="#eee5e1" stroke="#eee5e1" stroke-width="1.51"/><path d="M1193,633L1231,838L1285,804Z" fill="#d7d7d7" stroke="#d7d7d7" stroke-width="1.51"/><path d="M1193,633L1285,804L1302,672Z" fill="#dbdbdb" stroke="#dbdbdb" stroke-width="1.51"/><path d="M1191,-57L1185,140L1309,40Z" fill="#e09e91" stroke="#e09e91" stroke-width="1.51"/><path d="M1172,988L1169,1175L1294,1125Z" fill="#a6a6a6" stroke="#a6a6a6" stroke-width="1.51"/><path d="M859,1244L714,1302L1030,1254Z" fill="#958e8b" stroke="#958e8b" stroke-width="1.51"/><path d="M1147,527L1193,633L1293,526Z" fill="#ececec" stroke="#ececec" stroke-width="1.51"/><path d="M1056,55L1185,140L1191,-57Z" fill="#e6a597" stroke="#e6a597" stroke-width="1.51"/><path d="M1185,140L1067,337L1229,257Z" fill="#f1cbba" stroke="#f1cbba" stroke-width="1.51"/><path d="M1229,257L1067,337L1229,338Z" fill="#f1d5c7" stroke="#f1d5c7" stroke-width="1.51"/><path d="M1067,337L1147,527L1229,338Z" fill="#f3e4db" stroke="#f3e4db" stroke-width="1.51"/><path d="M1083,-181L1191,-57L1230,-183Z" fill="#d08581" stroke="#d08581" stroke-width="1.51"/><path d="M1050,939L1172,988L1231,838Z" fill="#c8c8c8" stroke="#c8c8c8" stroke-width="1.51"/><path d="M1007,890L1050,939L1231,838Z" fill="#d0d0d0" stroke="#d0d0d0" stroke-width="1.51"/><path d="M1193,633L1009,647L1231,838Z" fill="#e3e3e3" stroke="#e3e3e3" stroke-width="1.51"/><path d="M1009,647L1007,890L1231,838Z" fill="#dddddd" stroke="#dddddd" stroke-width="1.51"/><path d="M1000,245L1067,337L1185,140Z" fill="#f6cfbe" stroke="#f6cfbe" stroke-width="1.51"/><path d="M989,1099L1169,1175L1172,988Z" fill="#aeaeae" stroke="#aeaeae" stroke-width="1.51"/><path d="M1169,1175L1030,1254L1179,1296Z" fill="#8f8f8f" stroke="#8f8f8f" stroke-width="1.51"/><path d="M1083,-181L1040,-109L1191,-57Z" fill="#db8c86" stroke="#db8c86" stroke-width="1.51"/><path d="M1040,-109L1056,55L1191,-57Z" fill="#e29a90" stroke="#e29a90" stroke-width="1.51"/><path d="M1147,527L1045,551L1193,633Z" fill="#f1f1f1" stroke="#f1f1f1" stroke-width="1.51"/><path d="M1045,551L1009,647L1193,633Z" fill="#f0f0f0" stroke="#f0f0f0" stroke-width="1.51"/><path d="M1050,939L989,1099L1172,988Z" fill="#bfbfbf" stroke="#bfbfbf" stroke-width="1.51"/><path d="M1056,55L1000,245L1185,140Z" fill="#f1bdac" stroke="#f1bdac" stroke-width="1.51"/><path d="M1067,337L1045,551L1147,527Z" fill="#f7f0ec" stroke="#f7f0ec" stroke-width="1.51"/><path d="M989,1099L1030,1254L1169,1175Z" fill="#a0a0a0" stroke="#a0a0a0" stroke-width="1.51"/><path d="M882,824L1007,890L1009,647Z" fill="#e5e5e5" stroke="#e5e5e5" stroke-width="1.51"/><path d="M937,945L989,1099L1050,939Z" fill="#c6c6c6" stroke="#c6c6c6" stroke-width="1.51"/><path d="M924,118L1000,245L1056,55Z" fill="#f7c1b1" stroke="#f7c1b1" stroke-width="1.51"/><path d="M1040,-109L940,-108L1056,55Z" fill="#e69c93" stroke="#e69c93" stroke-width="1.51"/><path d="M857,409L904,496L1067,337Z" fill="#ffefe7" stroke="#ffefe7" stroke-width="1.51"/><path d="M904,496L1045,551L1067,337Z" fill="#fcf3ee" stroke="#fcf3ee" stroke-width="1.51"/><path d="M940,-108L1040,-109L1083,-181Z" fill="#dc8f8a" stroke="#dc8f8a" stroke-width="1.51"/><path d="M854,-179L940,-108L1083,-181Z" fill="#da908c" stroke="#da908c" stroke-width="1.51"/><path d="M1000,245L857,409L1067,337Z" fill="#fee4d8" stroke="#fee4d8" stroke-width="1.51"/><path d="M884,258L857,409L1000,245Z" fill="#fedece" stroke="#fedece" stroke-width="1.51"/><path d="M940,-108L924,118L1056,55Z" fill="#efab9e" stroke="#efab9e" stroke-width="1.51"/><path d="M844,690L882,824L1009,647Z" fill="#edeae8" stroke="#edeae8" stroke-width="1.51"/><path d="M989,1099L859,1244L1030,1254Z" fill="#a1a1a1" stroke="#a1a1a1" stroke-width="1.51"/><path d="M1007,890L937,945L1050,939Z" fill="#d1d1d1" stroke="#d1d1d1" stroke-width="1.51"/><path d="M904,496L1009,647L1045,551Z" fill="#fbfbfb" stroke="#fbfbfb" stroke-width="1.51"/><path d="M937,945L835,1088L989,1099Z" fill="#c0bdbb" stroke="#c0bdbb" stroke-width="1.51"/><path d="M924,118L884,258L1000,245Z" fill="#fdcfbc" stroke="#fdcfbc" stroke-width="1.51"/><path d="M882,824L937,945L1007,890Z" fill="#d9d8d7" stroke="#d9d8d7" stroke-width="1.51"/><path d="M904,496L844,690L1009,647Z" fill="#f9f5f4" stroke="#f9f5f4" stroke-width="1.51"/><path d="M835,1088L859,1244L989,1099Z" fill="#aca7a5" stroke="#aca7a5" stroke-width="1.51"/><path d="M769,633L844,690L904,496Z" fill="#f9f0ea" stroke="#f9f0ea" stroke-width="1.51"/><path d="M882,824L761,893L937,945Z" fill="#dad2ce" stroke="#dad2ce" stroke-width="1.51"/><path d="M761,893L835,1088L937,945Z" fill="#cbc3be" stroke="#cbc3be" stroke-width="1.51"/><path d="M854,-179L720,-114L940,-108Z" fill="#de8a80" stroke="#de8a80" stroke-width="1.51"/><path d="M700,49L924,118L940,-108Z" fill="#eea494" stroke="#eea494" stroke-width="1.51"/><path d="M720,-114L700,49L940,-108Z" fill="#e69282" stroke="#e69282" stroke-width="1.51"/><path d="M758,521L769,633L904,496Z" fill="#fef2ec" stroke="#fef2ec" stroke-width="1.51"/><path d="M734,250L884,258L924,118Z" fill="#fcc9b2" stroke="#fcc9b2" stroke-width="1.51"/><path d="M700,49L734,250L924,118Z" fill="#f6b69f" stroke="#f6b69f" stroke-width="1.51"/><path d="M761,893L706,989L835,1088Z" fill="#c9bbb3" stroke="#c9bbb3" stroke-width="1.51"/><path d="M835,1088L785,1100L859,1244Z" fill="#aca39e" stroke="#aca39e" stroke-width="1.51"/><path d="M734,250L857,409L884,258Z" fill="#fdd7c4" stroke="#fdd7c4" stroke-width="1.51"/><path d="M857,409L758,521L904,496Z" fill="#ffefe6" stroke="#ffefe6" stroke-width="1.51"/><path d="M734,250L700,393L857,409Z" fill="#fddac7" stroke="#fddac7" stroke-width="1.51"/><path d="M844,690L761,893L882,824Z" fill="#e4dad4" stroke="#e4dad4" stroke-width="1.51"/><path d="M419,-196L559,-158L680,-179Z" fill="#ca6a5b" stroke="#ca6a5b" stroke-width="1.51"/><path d="M706,989L785,1100L835,1088Z" fill="#bcafa8" stroke="#bcafa8" stroke-width="1.51"/><path d="M769,633L761,893L844,690Z" fill="#ebdfd8" stroke="#ebdfd8" stroke-width="1.51"/><path d="M700,393L758,521L857,409Z" fill="#ffe6d8" stroke="#ffe6d8" stroke-width="1.51"/><path d="M785,1100L714,1302L859,1244Z" fill="#9e938c" stroke="#9e938c" stroke-width="1.51"/><path d="M680,-179L720,-114L854,-179Z" fill="#d58176" stroke="#d58176" stroke-width="1.51"/><path d="M620,866L761,893L769,633Z" fill="#e4d3c9" stroke="#e4d3c9" stroke-width="1.51"/><path d="M622,643L620,866L769,633Z" fill="#eed7cb" stroke="#eed7cb" stroke-width="1.51"/><path d="M551,1090L714,1302L785,1100Z" fill="#a79489" stroke="#a79489" stroke-width="1.51"/><path d="M706,989L551,1090L785,1100Z" fill="#bca79c" stroke="#bca79c" stroke-width="1.51"/><path d="M551,1090L632,1326L714,1302Z" fill="#998074" stroke="#998074" stroke-width="1.51"/><path d="M700,49L571,258L734,250Z" fill="#f7b599" stroke="#f7b599" stroke-width="1.51"/><path d="M700,393L631,502L758,521Z" fill="#fee3d4" stroke="#fee3d4" stroke-width="1.51"/><path d="M631,502L622,643L758,521Z" fill="#fde6da" stroke="#fde6da" stroke-width="1.51"/><path d="M758,521L622,643L769,633Z" fill="#f9e7dd" stroke="#f9e7dd" stroke-width="1.51"/><path d="M536,96L571,258L700,49Z" fill="#f1a387" stroke="#f1a387" stroke-width="1.51"/><path d="M620,866L706,989L761,893Z" fill="#d4c0b6" stroke="#d4c0b6" stroke-width="1.51"/><path d="M620,866L588,944L706,989Z" fill="#d1b7ab" stroke="#d1b7ab" stroke-width="1.51"/><path d="M561,-100L700,49L720,-114Z" fill="#e28774" stroke="#e28774" stroke-width="1.51"/><path d="M571,258L700,393L734,250Z" fill="#fbc9af" stroke="#fbc9af" stroke-width="1.51"/><path d="M571,258L571,406L700,393Z" fill="#fbcbb2" stroke="#fbcbb2" stroke-width="1.51"/><path d="M680,-179L561,-100L720,-114Z" fill="#d97a6b" stroke="#d97a6b" stroke-width="1.51"/><path d="M551,1090L482,1268L632,1326Z" fill="#9a7b6c" stroke="#9a7b6c" stroke-width="1.51"/><path d="M588,944L551,1090L706,989Z" fill="#c5a99c" stroke="#c5a99c" stroke-width="1.51"/><path d="M561,-100L536,96L700,49Z" fill="#e78c74" stroke="#e78c74" stroke-width="1.51"/><path d="M571,406L631,502L700,393Z" fill="#fdd8c4" stroke="#fdd8c4" stroke-width="1.51"/><path d="M482,1268L334,1340L632,1326Z" fill="#896555" stroke="#896555" stroke-width="1.51"/><path d="M559,-158L561,-100L680,-179Z" fill="#d37263" stroke="#d37263" stroke-width="1.51"/><path d="M452,854L620,866L622,643Z" fill="#e5c3b3" stroke="#e5c3b3" stroke-width="1.51"/><path d="M382,661L452,854L622,643Z" fill="#ecc2af" stroke="#ecc2af" stroke-width="1.51"/><path d="M422,563L622,643L631,502Z" fill="#fbd8c8" stroke="#fbd8c8" stroke-width="1.51"/><path d="M571,406L422,563L631,502Z" fill="#fdd3c0" stroke="#fdd3c0" stroke-width="1.51"/><path d="M422,563L382,661L622,643Z" fill="#f5c9b7" stroke="#f5c9b7" stroke-width="1.51"/><path d="M460,1112L482,1268L551,1090Z" fill="#a78271" stroke="#a78271" stroke-width="1.51"/><path d="M452,854L588,944L620,866Z" fill="#d8b5a6" stroke="#d8b5a6" stroke-width="1.51"/><path d="M380,-9L536,96L561,-100Z" fill="#e17c62" stroke="#e17c62" stroke-width="1.51"/><path d="M536,96L412,189L571,258Z" fill="#f2a280" stroke="#f2a280" stroke-width="1.51"/><path d="M571,258L422,412L571,406Z" fill="#fac2a7" stroke="#fac2a7" stroke-width="1.51"/><path d="M422,412L422,563L571,406Z" fill="#fcc8b1" stroke="#fcc8b1" stroke-width="1.51"/><path d="M461,934L551,1090L588,944Z" fill="#c7a393" stroke="#c7a393" stroke-width="1.51"/><path d="M452,854L461,934L588,944Z" fill="#d3ac9b" stroke="#d3ac9b" stroke-width="1.51"/><path d="M380,-9L438,110L536,96Z" fill="#e68367" stroke="#e68367" stroke-width="1.51"/><path d="M438,110L412,189L536,96Z" fill="#ed9373" stroke="#ed9373" stroke-width="1.51"/><path d="M461,934L460,1112L551,1090Z" fill="#bd9584" stroke="#bd9584" stroke-width="1.51"/><path d="M412,189L422,412L571,258Z" fill="#f6b090" stroke="#f6b090" stroke-width="1.51"/><path d="M559,-158L419,-196L561,-100Z" fill="#cf6757" stroke="#cf6757" stroke-width="1.51"/><path d="M419,-196L380,-9L561,-100Z" fill="#d56654" stroke="#d56654" stroke-width="1.51"/><path d="M188,-263L245,-205L419,-196Z" fill="#af403c" stroke="#af403c" stroke-width="1.51"/><path d="M412,189L276,283L422,412Z" fill="#f1a486" stroke="#f1a486" stroke-width="1.51"/><path d="M382,661L283,731L452,854Z" fill="#e4af9f" stroke="#e4af9f" stroke-width="1.51"/><path d="M241,1042L299,1136L460,1112Z" fill="#ac7769" stroke="#ac7769" stroke-width="1.51"/><path d="M241,1042L460,1112L461,934Z" fill="#bc8b7b" stroke="#bc8b7b" stroke-width="1.51"/><path d="M322,892L241,1042L461,934Z" fill="#c59081" stroke="#c59081" stroke-width="1.51"/><path d="M460,1112L299,1136L482,1268Z" fill="#a07465" stroke="#a07465" stroke-width="1.51"/><path d="M299,1136L334,1340L482,1268Z" fill="#906153" stroke="#906153" stroke-width="1.51"/><path d="M380,-9L339,41L438,110Z" fill="#e0765d" stroke="#e0765d" stroke-width="1.51"/><path d="M283,731L322,892L452,854Z" fill="#daa394" stroke="#daa394" stroke-width="1.51"/><path d="M452,854L322,892L461,934Z" fill="#d3a392" stroke="#d3a392" stroke-width="1.51"/><path d="M276,283L264,375L422,412Z" fill="#f1a78d" stroke="#f1a78d" stroke-width="1.51"/><path d="M245,-205L258,-16L380,-9Z" fill="#cd5246" stroke="#cd5246" stroke-width="1.51"/><path d="M245,-205L380,-9L419,-196Z" fill="#c85146" stroke="#c85146" stroke-width="1.51"/><path d="M230,519L422,563L422,412Z" fill="#f7bca9" stroke="#f7bca9" stroke-width="1.51"/><path d="M339,41L412,189L438,110Z" fill="#e78568" stroke="#e78568" stroke-width="1.51"/><path d="M230,519L382,661L422,563Z" fill="#f4bbab" stroke="#f4bbab" stroke-width="1.51"/><path d="M264,375L230,519L422,412Z" fill="#f3ae99" stroke="#f3ae99" stroke-width="1.51"/><path d="M339,41L172,138L412,189Z" fill="#e27b60" stroke="#e27b60" stroke-width="1.51"/><path d="M172,138L276,283L412,189Z" fill="#e8886b" stroke="#e8886b" stroke-width="1.51"/><path d="M230,519L283,731L382,661Z" fill="#ecafa0" stroke="#ecafa0" stroke-width="1.51"/><path d="M258,-16L339,41L380,-9Z" fill="#d86651" stroke="#d86651" stroke-width="1.51"/><path d="M283,731L155,882L322,892Z" fill="#d49587" stroke="#d49587" stroke-width="1.51"/><path d="M299,1136L162,1321L334,1340Z" fill="#875145" stroke="#875145" stroke-width="1.51"/><path d="M258,-16L172,138L339,41Z" fill="#d86550" stroke="#d86550" stroke-width="1.51"/><path d="M230,519L103,636L283,731Z" fill="#e8a497" stroke="#e8a497" stroke-width="1.51"/><path d="M155,882L241,1042L322,892Z" fill="#c38478" stroke="#c38478" stroke-width="1.51"/><path d="M131,1125L162,1321L299,1136Z" fill="#91554b" stroke="#91554b" stroke-width="1.51"/><path d="M245,-205L101,-40L258,-16Z" fill="#c5423c" stroke="#c5423c" stroke-width="1.51"/><path d="M172,138L138,238L276,283Z" fill="#e37f65" stroke="#e37f65" stroke-width="1.51"/><path d="M241,1042L131,1125L299,1136Z" fill="#a5695d" stroke="#a5695d" stroke-width="1.51"/><path d="M155,882L118,986L241,1042Z" fill="#ba796e" stroke="#ba796e" stroke-width="1.51"/><path d="M103,636L155,882L283,731Z" fill="#da968a" stroke="#da968a" stroke-width="1.51"/><path d="M91,515L230,519L264,375Z" fill="#eea393" stroke="#eea393" stroke-width="1.51"/><path d="M95,334L91,515L264,375Z" fill="#e99786" stroke="#e99786" stroke-width="1.51"/><path d="M95,334L264,375L276,283Z" fill="#ea937d" stroke="#ea937d" stroke-width="1.51"/><path d="M138,238L95,334L276,283Z" fill="#e58770" stroke="#e58770" stroke-width="1.51"/><path d="M101,-40L172,138L258,-16Z" fill="#d05546" stroke="#d05546" stroke-width="1.51"/><path d="M103,636L24,826L155,882Z" fill="#d0887f" stroke="#d0887f" stroke-width="1.51"/><path d="M91,515L103,636L230,519Z" fill="#eba399" stroke="#eba399" stroke-width="1.51"/><path d="M188,-263L101,-40L245,-205Z" fill="#b43436" stroke="#b43436" stroke-width="1.51"/><path d="M118,986L131,1125L241,1042Z" fill="#ac6b61" stroke="#ac6b61" stroke-width="1.51"/><path d="M35,372L91,515L95,334Z" fill="#e48e7f" stroke="#e48e7f" stroke-width="1.51"/><path d="M131,1125L-70,1308L162,1321Z" fill="#7e3e39" stroke="#7e3e39" stroke-width="1.51"/><path d="M101,-40L12,52L172,138Z" fill="#cc4f43" stroke="#cc4f43" stroke-width="1.51"/><path d="M-56,-248L101,-40L188,-263Z" fill="#a9242e" stroke="#a9242e" stroke-width="1.51"/><path d="M-56,-248L-56,-76L101,-40Z" fill="#b1182b" stroke="#b1182b" stroke-width="1.51"/><path d="M-28,1110L-70,1308L131,1125Z" fill="#88433f" stroke="#88433f" stroke-width="1.51"/><path d="M-27,195L138,238L172,138Z" fill="#da6e58" stroke="#da6e58" stroke-width="1.51"/><path d="M12,52L-27,195L172,138Z" fill="#d15b4c" stroke="#d15b4c" stroke-width="1.51"/><path d="M24,826L118,986L155,882Z" fill="#c17b73" stroke="#c17b73" stroke-width="1.51"/><path d="M-53,721L24,826L103,636Z" fill="#d3867f" stroke="#d3867f" stroke-width="1.51"/><path d="M24,826L-32,983L118,986Z" fill="#b96f69" stroke="#b96f69" stroke-width="1.51"/><path d="M118,986L-28,1110L131,1125Z" fill="#a25d56" stroke="#a25d56" stroke-width="1.51"/><path d="M-27,195L95,334L138,238Z" fill="#dd7762" stroke="#dd7762" stroke-width="1.51"/><path d="M-32,983L-28,1110L118,986Z" fill="#a85f5a" stroke="#a85f5a" stroke-width="1.51"/><path d="M91,515L-67,538L103,636Z" fill="#e59790" stroke="#e59790" stroke-width="1.51"/><path d="M35,372L-67,538L91,515Z" fill="#e39086" stroke="#e39086" stroke-width="1.51"/><path d="M-27,195L35,372L95,334Z" fill="#dc7a68" stroke="#dc7a68" stroke-width="1.51"/><path d="M-67,538L-53,721L103,636Z" fill="#da8c86" stroke="#da8c86" stroke-width="1.51"/><path d="M-56,-76L12,52L101,-40Z" fill="#bf3636" stroke="#bf3636" stroke-width="1.51"/><path d="M-127,1259L-70,1308L-28,1110Z" fill="#743736" stroke="#743736" stroke-width="1.51"/><path d="M-116,1130L-127,1259L-28,1110Z" fill="#7c3f3f" stroke="#7c3f3f" stroke-width="1.51"/><path d="M-130,838L-32,983L24,826Z" fill="#b66f6b" stroke="#b66f6b" stroke-width="1.51"/><path d="M-167,372L-67,538L35,372Z" fill="#d4837a" stroke="#d4837a" stroke-width="1.51"/><path d="M-27,195L-144,247L35,372Z" fill="#d16e5f" stroke="#d16e5f" stroke-width="1.51"/><path d="M-144,247L-167,372L35,372Z" fill="#cc7569" stroke="#cc7569" stroke-width="1.51"/><path d="M-151,103L-27,195L12,52Z" fill="#c34f44" stroke="#c34f44" stroke-width="1.51"/><path d="M-53,721L-130,838L24,826Z" fill="#c07874" stroke="#c07874" stroke-width="1.51"/><path d="M-56,-76L-148,-35L12,52Z" fill="#b23033" stroke="#b23033" stroke-width="1.51"/><path d="M-148,-35L-151,103L12,52Z" fill="#b43b38" stroke="#b43b38" stroke-width="1.51"/><path d="M-182,-189L-56,-76L-56,-248Z" fill="#960f27" stroke="#960f27" stroke-width="1.51"/><path d="M-67,538L-175,683L-53,721Z" fill="#c88481" stroke="#c88481" stroke-width="1.51"/><path d="M-213,984L-116,1130L-32,983Z" fill="#925454" stroke="#925454" stroke-width="1.51"/><path d="M-130,838L-213,984L-32,983Z" fill="#a06262" stroke="#a06262" stroke-width="1.51"/><path d="M-32,983L-116,1130L-28,1110Z" fill="#93514f" stroke="#93514f" stroke-width="1.51"/><path d="M-151,103L-144,247L-27,195Z" fill="#c05a4d" stroke="#c05a4d" stroke-width="1.51"/><path d="M-167,372L-210,580L-67,538Z" fill="#c88582" stroke="#c88582" stroke-width="1.51"/><path d="M-210,580L-175,683L-67,538Z" fill="#c38484" stroke="#c38484" stroke-width="1.51"/><path d="M-182,-189L-148,-35L-56,-76Z" fill="#9f182a" stroke="#9f182a" stroke-width="1.51"/><path d="M-175,683L-130,838L-53,721Z" fill="#ba7977" stroke="#ba7977" stroke-width="1.51"/><path d="M-213,984L-127,1259L-116,1130Z" fill="#7b4344" stroke="#7b4344" stroke-width="1.51"/><path d="M-175,683L-213,984L-130,838Z" fill="#a66c6c" stroke="#a66c6c" stroke-width="1.51"/><path d="M-151,103L-167,372L-144,247Z" fill="#bc6256" stroke="#bc6256" stroke-width="1.51"/><path d="M-182,-189L-151,103L-148,-35Z" fill="#a1262f" stroke="#a1262f" stroke-width="1.51"/><path d="M-210,580L-167,372L-151,103Z" fill="#be726a" stroke="#be726a" stroke-width="1.51"/><path d="M-182,-189L-210,580L-151,103Z" fill="#b25248" stroke="#b25248" stroke-width="1.51"/><path d="M-210,580L-213,984L-175,683Z" fill="#ac7375" stroke="#ac7375" stroke-width="1.51"/></svg>