<svg xmlns="http://www.w3.org/2000/svg" width="1920" height="1080"><path d="M162,1321L-70,1308L334,1340Z" fill="#81445a" stroke="#81445a" stroke-width="1.51"/><path d="M188,-263L680,-179L854,-179Z" fill="#c3695d" stroke="#c3695d" stroke-width="1.51"/><path d="M1179,1296L632,1326L1374,1304Z" fill="#8393b6" stroke="#8393b6" stroke-width="1.51"/><path d="M854,-179L1083,-181L1655,-264Z" fill="#b97f83" stroke="#b97f83" stroke-width="1.51"/><path d="M188,-263L854,-179L1655,-264Z" fill="#c1817f" stroke="#c1817f" stroke-width="1.51"/><path d="M1083,-181L1230,-183L1655,-264Z" fill="#ac787f" stroke="#ac787f" stroke-width="1.51"/><path d="M1646,1240L1374,1304L1833,1276Z" fill="#3c75aa" stroke="#3c75aa" stroke-width="1.51"/><path d="M1825,-243L1887,-211L2065,-194Z" fill="#734264" stroke="#734264" stroke-width="1.51"/><path d="M1945,1108L1924,1269L2101,1111Z" fill="#2263a3" stroke="#2263a3" stroke-width="1.51"/><path d="M2091,395L1963,380L2104,557Z" fill="#9192af" stroke="#9192af" stroke-width="1.51"/><path d="M1963,380L1902,529L2104,557Z" fill="#959ebf" stroke="#959ebf" stroke-width="1.51"/><path d="M2051,72L1966,263L2105,267Z" fill="#957384" stroke="#957384" stroke-width="1.51"/><path d="M2091,395L2104,557L2105,267Z" fill="#8e89a1" stroke="#8e89a1" stroke-width="1.51"/><path d="M1911,859L2071,979L2106,795Z" fill="#5885b2" stroke="#5885b2" stroke-width="1.51"/><path d="M2071,979L2101,1111L2106,795Z" fill="#4071a1" stroke="#4071a1" stroke-width="1.51"/><path d="M2104,557L1972,643L2108,685Z" fill="#8294b8" stroke="#8294b8" stroke-width="1.51"/><path d="M2065,-194L1982,-45L2121,-35Z" fill="#7f3f59" stroke="#7f3f59" stroke-width="1.51"/><path d="M2051,72L2105,267L2121,-35Z" fill="#8b5b6c" stroke="#8b5b6c" stroke-width="1.51"/><path d="M2104,557L2108,685L2121,-35Z" fill="#8d889f" stroke="#8d889f" stroke-width="1.51"/><path d="M2105,267L2104,557L2121,-35Z" fill="#8f7585" stroke="#8f7585" stroke-width="1.51"/><path d="M1833,1276L1374,1304L2127,1273Z" fill="#26649f" stroke="#26649f" stroke-width="1.51"/><path d="M1924,1269L1833,1276L2127,1273Z" fill="#185494" stroke="#185494" stroke-width="1.51"/><path d="M2101,1111L1924,1269L2127,1273Z" fill="#185493" stroke="#185493" stroke-width="1.51"/><path d="M2106,795L2101,1111L2127,1273Z" fill="#276297" stroke="#276297" stroke-width="1.51"/><path d="M2108,685L2106,795L2127,1273Z" fill="#4975a1" stroke="#4975a1" stroke-width="1.51"/><path d="M2121,-35L2108,685L2127,1273Z" fill="#7c8dae" stroke="#7c8dae" stroke-width="1.51"/><path d="M1963,380L2091,395L2105,267Z" fill="#94899f" stroke="#94899f" stroke-width="1.51"/><path d="M1966,263L1963,380L2105,267Z" fill="#98889d" stroke="#98889d" stroke-width="1.51"/><path d="M1972,643L2106,795L2108,685Z" fill="#7890b6" stroke="#7890b6" stroke-width="1.51"/><path d="M1982,-45L2051,72L2121,-35Z" fill="#874e64" stroke="#874e64" stroke-width="1.51"/><path d="M2071,979L1945,1108L2101,1111Z" fill="#2a69a2" stroke="#2a69a2" stroke-width="1.51"/><path d="M1972,643L1911,859L2106,795Z" fill="#7293be" stroke="#7293be" stroke-width="1.51"/><path d="M1902,529L1972,643L2104,557Z" fill="#8ea0c5" stroke="#8ea0c5" stroke-width="1.51"/><path d="M1230,-183L1302,-180L1655,-264Z" fill="#a4747c" stroke="#a4747c" stroke-width="1.51"/><path d="M1915,77L1966,263L2051,72Z" fill="#997083" stroke="#997083" stroke-width="1.51"/><path d="M1911,859L1910,964L2071,979Z" fill="#4f85b9" stroke="#4f85b9" stroke-width="1.51"/><path d="M1302,-180L1465,-197L1655,-264Z" fill="#9a6e79" stroke="#9a6e79" stroke-width="1.51"/><path d="M1887,-211L1982,-45L2065,-194Z" fill="#7e4160" stroke="#7e4160" stroke-width="1.51"/><path d="M1910,964L1945,1108L2071,979Z" fill="#3778b0" stroke="#3778b0" stroke-width="1.51"/><path d="M1982,-45L1915,77L2051,72Z" fill="#925b73" stroke="#925b73" stroke-width="1.51"/><path d="M1802,1188L1924,1269L1945,1108Z" fill="#256aaf" stroke="#256aaf" stroke-width="1.51"/><path d="M1915,77L1748,199L1966,263Z" fill="#a38396" stroke="#a38396" stroke-width="1.51"/><path d="M1794,356L1963,380L1966,263Z" fill="#a298b2" stroke="#a298b2" stroke-width="1.51"/><path d="M1815,834L1911,859L1972,643Z" fill="#779ecb" stroke="#779ecb" stroke-width="1.51"/><path d="M1747,687L1815,834L1972,643Z" fill="#85a9d1" stroke="#85a9d1" stroke-width="1.51"/><path d="M1811,-57L1915,77L1982,-45Z" fill="#965e78" stroke="#965e78" stroke-width="1.51"/><path d="M1887,-211L1811,-57L1982,-45Z" fill="#8f506d" stroke="#8f506d" stroke-width="1.51"/><path d="M714,1302L632,1326L1179,1296Z" fill="#8f90ac" stroke="#8f90ac" stroke-width="1.51"/><path d="M1801,500L1902,529L1963,380Z" fill="#9ea9c9" stroke="#9ea9c9" stroke-width="1.51"/><path d="M1794,356L1801,500L1963,380Z" fill="#a2a7c3" stroke="#a2a7c3" stroke-width="1.51"/><path d="M1902,529L1747,687L1972,643Z" fill="#91abd2" stroke="#91abd2" stroke-width="1.51"/><path d="M1748,199L1794,356L1966,263Z" fill="#a696a9" stroke="#a696a9" stroke-width="1.51"/><path d="M1775,72L1748,199L1915,77Z" fill="#a37d8d" stroke="#a37d8d" stroke-width="1.51"/><path d="M1802,1188L1833,1276L1924,1269Z" fill="#2364a4" stroke="#2364a4" stroke-width="1.51"/><path d="M1910,964L1752,970L1945,1108Z" fill="#3e84bc" stroke="#3e84bc" stroke-width="1.51"/><path d="M1752,970L1802,1188L1945,1108Z" fill="#357db8" stroke="#357db8" stroke-width="1.51"/><path d="M1801,500L1747,687L1902,529Z" fill="#9ab4d6" stroke="#9ab4d6" stroke-width="1.51"/><path d="M1815,834L1910,964L1911,859Z" fill="#6096c6" stroke="#6096c6" stroke-width="1.51"/><path d="M1811,-57L1775,72L1915,77Z" fill="#9d6b7f" stroke="#9d6b7f" stroke-width="1.51"/><path d="M1815,834L1752,970L1910,964Z" fill="#5a95c5" stroke="#5a95c5" stroke-width="1.51"/><path d="M1825,-243L1811,-57L1887,-211Z" fill="#834e6a" stroke="#834e6a" stroke-width="1.51"/><path d="M1653,499L1747,687L1801,500Z" fill="#a0bdda" stroke="#a0bdda" stroke-width="1.51"/><path d="M1794,356L1683,435L1801,500Z" fill="#a6b3ca" stroke="#a6b3ca" stroke-width="1.51"/><path d="M1752,970L1661,1042L1802,1188Z" fill="#3d89be" stroke="#3d89be" stroke-width="1.51"/><path d="M1661,1042L1639,1115L1802,1188Z" fill="#3b86bd" stroke="#3b86bd" stroke-width="1.51"/><path d="M1655,-264L1656,-24L1811,-57Z" fill="#986173" stroke="#986173" stroke-width="1.51"/><path d="M1655,-264L1811,-57L1825,-243Z" fill="#83546d" stroke="#83546d" stroke-width="1.51"/><path d="M1802,1188L1646,1240L1833,1276Z" fill="#2b6fab" stroke="#2b6fab" stroke-width="1.51"/><path d="M1656,-24L1775,72L1811,-57Z" fill="#9f6e7f" stroke="#9f6e7f" stroke-width="1.51"/><path d="M1596,847L1752,970L1815,834Z" fill="#68a6ce" stroke="#68a6ce" stroke-width="1.51"/><path d="M1747,687L1596,847L1815,834Z" fill="#7dafd3" stroke="#7dafd3" stroke-width="1.51"/><path d="M1748,199L1660,206L1794,356Z" fill="#ac9eaa" stroke="#ac9eaa" stroke-width="1.51"/><path d="M1685,88L1748,199L1775,72Z" fill="#a78591" stroke="#a78591" stroke-width="1.51"/><path d="M1639,1115L1646,1240L1802,1188Z" fill="#357db9" stroke="#357db9" stroke-width="1.51"/><path d="M1683,435L1653,499L1801,500Z" fill="#a6bbd3" stroke="#a6bbd3" stroke-width="1.51"/><path d="M1656,-24L1685,88L1775,72Z" fill="#a57a86" stroke="#a57a86" stroke-width="1.51"/><path d="M1660,206L1683,435L1794,356Z" fill="#acadbb" stroke="#acadbb" stroke-width="1.51"/><path d="M188,-263L419,-196L680,-179Z" fill="#bb574b" stroke="#bb574b" stroke-width="1.51"/><path d="M1653,499L1588,652L1747,687Z" fill="#9ec2dd" stroke="#9ec2dd" stroke-width="1.51"/><path d="M1588,652L1596,847L1747,687Z" fill="#91bcda" stroke="#91bcda" stroke-width="1.51"/><path d="M1685,88L1660,206L1748,199Z" fill="#ac929b" stroke="#ac929b" stroke-width="1.51"/><path d="M1596,847L1661,1042L1752,970Z" fill="#5ca0ca" stroke="#5ca0ca" stroke-width="1.51"/><path d="M1588,652L1503,717L1596,847Z" fill="#9bc4de" stroke="#9bc4de" stroke-width="1.51"/><path d="M1433,1237L1374,1304L1646,1240Z" fill="#5485b4" stroke="#5485b4" stroke-width="1.51"/><path d="M1655,-264L1465,-197L1656,-24Z" fill="#996776" stroke="#996776" stroke-width="1.51"/><path d="M1465,-197L1474,-23L1656,-24Z" fill="#af7880" stroke="#af7880" stroke-width="1.51"/><path d="M1480,238L1487,339L1660,206Z" fill="#c0b3b5" stroke="#c0b3b5" stroke-width="1.51"/><path d="M1596,847L1529,1014L1661,1042Z" fill="#65a5ce" stroke="#65a5ce" stroke-width="1.51"/><path d="M1660,206L1487,339L1683,435Z" fill="#b6b6bf" stroke="#b6b6bf" stroke-width="1.51"/><path d="M1656,-24L1474,-23L1685,88Z" fill="#ad7f87" stroke="#ad7f87" stroke-width="1.51"/><path d="M1474,-23L1453,140L1685,88Z" fill="#ba9092" stroke="#ba9092" stroke-width="1.51"/><path d="M1453,140L1660,206L1685,88Z" fill="#b6989c" stroke="#b6989c" stroke-width="1.51"/><path d="M1487,339L1653,499L1683,435Z" fill="#b4c2d0" stroke="#b4c2d0" stroke-width="1.51"/><path d="M1487,1193L1433,1237L1646,1240Z" fill="#5288bb" stroke="#5288bb" stroke-width="1.51"/><path d="M1639,1115L1487,1193L1646,1240Z" fill="#4987be" stroke="#4987be" stroke-width="1.51"/><path d="M1436,529L1588,652L1653,499Z" fill="#b3d0e4" stroke="#b3d0e4" stroke-width="1.51"/><path d="M1487,339L1436,529L1653,499Z" fill="#beced9" stroke="#beced9" stroke-width="1.51"/><path d="M1453,140L1480,238L1660,206Z" fill="#c1a9a9" stroke="#c1a9a9" stroke-width="1.51"/><path d="M1529,1014L1639,1115L1661,1042Z" fill="#4f97c6" stroke="#4f97c6" stroke-width="1.51"/><path d="M1529,1014L1487,1193L1639,1115Z" fill="#5696c5" stroke="#5696c5" stroke-width="1.51"/><path d="M1443,834L1529,1014L1596,847Z" fill="#80b7d7" stroke="#80b7d7" stroke-width="1.51"/><path d="M1503,717L1443,834L1596,847Z" fill="#96c4de" stroke="#96c4de" stroke-width="1.51"/><path d="M1436,529L1503,717L1588,652Z" fill="#b2d1e5" stroke="#b2d1e5" stroke-width="1.51"/><path d="M1436,529L1302,672L1503,717Z" fill="#bddaea" stroke="#bddaea" stroke-width="1.51"/><path d="M1372,1018L1487,1193L1529,1014Z" fill="#67a3cc" stroke="#67a3cc" stroke-width="1.51"/><path d="M1443,834L1372,1018L1529,1014Z" fill="#7eb7d7" stroke="#7eb7d7" stroke-width="1.51"/><path d="M1030,1254L714,1302L1179,1296Z" fill="#8d9bbd" stroke="#8d9bbd" stroke-width="1.51"/><path d="M1309,40L1453,140L1474,-23Z" fill="#c79895" stroke="#c79895" stroke-width="1.51"/><path d="M1465,-197L1332,-78L1474,-23Z" fill="#ba7f82" stroke="#ba7f82" stroke-width="1.51"/><path d="M1323,385L1436,529L1487,339Z" fill="#ced5da" stroke="#ced5da" stroke-width="1.51"/><path d="M1372,1018L1294,1125L1487,1193Z" fill="#70a4cd" stroke="#70a4cd" stroke-width="1.51"/><path d="M1302,672L1443,834L1503,717Z" fill="#afd3e6" stroke="#afd3e6" stroke-width="1.51"/><path d="M1453,140L1341,237L1480,238Z" fill="#ceb6af" stroke="#ceb6af" stroke-width="1.51"/><path d="M1480,238L1341,237L1487,339Z" fill="#cec0bd" stroke="#cec0bd" stroke-width="1.51"/><path d="M1341,237L1323,385L1487,339Z" fill="#d3cbc9" stroke="#d3cbc9" stroke-width="1.51"/><path d="M1294,1125L1433,1237L1487,1193Z" fill="#6898c8" stroke="#6898c8" stroke-width="1.51"/><path d="M1302,672L1285,804L1443,834Z" fill="#b3d5e7" stroke="#b3d5e7" stroke-width="1.51"/><path d="M1302,-180L1332,-78L1465,-197Z" fill="#b67c81" stroke="#b67c81" stroke-width="1.51"/><path d="M1332,-78L1309,40L1474,-23Z" fill="#c68f8e" stroke="#c68f8e" stroke-width="1.51"/><path d="M1285,804L1372,1018L1443,834Z" fill="#99c7df" stroke="#99c7df" stroke-width="1.51"/><path d="M1323,385L1293,526L1436,529Z" fill="#d4dfe5" stroke="#d4dfe5" stroke-width="1.51"/><path d="M1293,526L1302,672L1436,529Z" fill="#cee2ed" stroke="#cee2ed" stroke-width="1.51"/><path d="M1309,40L1341,237L1453,140Z" fill="#d2ada6" stroke="#d2ada6" stroke-width="1.51"/><path d="M1294,1125L1374,1304L1433,1237Z" fill="#6a94c2" stroke="#6a94c2" stroke-width="1.51"/><path d="M1285,804L1231,838L1372,1018Z" fill="#a2cce2" stroke="#a2cce2" stroke-width="1.51"/><path d="M1309,40L1185,140L1341,237Z" fill="#dbb2a9" stroke="#dbb2a9" stroke-width="1.51"/><path d="M1229,338L1323,385L1341,237Z" fill="#ddd1cc" stroke="#ddd1cc" stroke-width="1.51"/><path d="M1231,838L1172,988L1372,1018Z" fill="#9bc5df" stroke="#9bc5df" stroke-width="1.51"/><path d="M1294,1125L1179,1296L1374,1304Z" fill="#7496c1" stroke="#7496c1" stroke-width="1.51"/><path d="M1172,988L1294,1125L1372,1018Z" fill="#85b5d6" stroke="#85b5d6" stroke-width="1.51"/><path d="M1169,1175L1179,1296L1294,1125Z" fill="#82a2ce" stroke="#82a2ce" stroke-width="1.51"/><path d="M1293,526L1193,633L1302,672Z" fill="#d4e6f0" stroke="#d4e6f0" stroke-width="1.51"/><path d="M1191,-57L1309,40L1332,-78Z" fill="#cf938f" stroke="#cf938f" stroke-width="1.51"/><path d="M1185,140L1229,257L1341,237Z" fill="#e3c2b7" stroke="#e3c2b7" stroke-width="1.51"/><path d="M1229,257L1229,338L1341,237Z" fill="#e1ccc4" stroke="#e1ccc4" stroke-width="1.51"/><path d="M1229,338L1293,526L1323,385Z" fill="#dededf" stroke="#dededf" stroke-width="1.51"/><path d="M1302,-180L1230,-183L1332,-78Z" fill="#bf8083" stroke="#bf8083" stroke-width="1.51"/><path d="M1230,-183L1191,-57L1332,-78Z" fill="#cb8887" stroke="#cb8887" stroke-width="1.51"/><path d="M1229,338L1147,527L1293,526Z" fill="#e4e6e8" stroke="#e4e6e8" stroke-width="1.51"/><path d="M1193,633L1231,838L1285,804Z" fill="#c3ddeb" stroke="#c3ddeb" stroke-width="1.51"/><path d="M1193,633L1285,804L1302,672Z" fill="#cae1ee" stroke="#cae1ee" stroke-width="1.51"/><path d="M1191,-57L1185,140L1309,40Z" fill="#dba29a" stroke="#dba29a" stroke-width="1.51"/><path d="M1172,988L1169,1175L1294,1125Z" fill="#8ab1d5" stroke="#8ab1d5" stroke-width="1.51"/><path d="M859,1244L714,1302L1030,1254Z" fill="#9399b9" stroke="#9399b9" stroke-width="1.51"/><path d="M1147,527L1193,633L1293,526Z" fill="#e0ecf3" stroke="#e0ecf3" stroke-width="1.51"/><path d="M1056,55L1185,140L1191,-57Z" fill="#e2a69c" stroke="#e2a69c" stroke-width="1.51"/><path d="M1185,140L1067,337L1229,257Z" fill="#ecccc0" stroke="#ecccc0" stroke-width="1.51"/><path d="M1229,257L1067,337L1229,338Z" fill="#ebd7ce" stroke="#ebd7ce" stroke-width="1.51"/><path d="M1067,337L1147,527L1229,338Z" fill="#ece4e0" stroke="#ece4e0" stroke-width="1.51"/><path d="M1083,-181L1191,-57L1230,-183Z" fill="#cc8787" stroke="#cc8787" stroke-width="1.51"/><path d="M1050,939L1172,988L1231,838Z" fill="#accfe4" stroke="#accfe4" stroke-width="1.51"/><path d="M1007,890L1050,939L1231,838Z" fill="#b7d6e7" stroke="#b7d6e7" stroke-width="1.51"/><path d="M1193,633L1009,647L1231,838Z" fill="#d6e7f1" stroke="#d6e7f1" stroke-width="1.51"/><path d="M1009,647L1007,890L1231,838Z" fill="#cbe1ed" stroke="#cbe1ed" stroke-width="1.51"/><path d="M1000,245L1067,337L1185,140Z" fill="#f1cfc0" stroke="#f1cfc0" stroke-width="1.51"/><path d="M989,1099L1169,1175L1172,988Z" fill="#94b6d8" stroke="#94b6d8" stroke-width="1.51"/><path d="M1169,1175L1030,1254L1179,1296Z" fill="#869ec5" stroke="#869ec5" stroke-width="1.51"/><path d="M1083,-181L1040,-109L1191,-57Z" fill="#d68c89" stroke="#d68c89" stroke-width="1.51"/><path d="M1040,-109L1056,55L1191,-57Z" fill="#de9a93" stroke="#de9a93" stroke-width="1.51"/><path d="M1147,527L1045,551L1193,633Z" fill="#e6eff4" stroke="#e6eff4" stroke-width="1.51"/><path d="M1045,551L1009,647L1193,633Z" fill="#e6eff3" stroke="#e6eff3" stroke-width="1.51"/><path d="M1050,939L989,1099L1172,988Z" fill="#a1c4de" stroke="#a1c4de" stroke-width="1.51"/><path d="M1056,55L1000,245L1185,140Z" fill="#edbdaf" stroke="#edbdaf" stroke-width="1.51"/><path d="M1067,337L1045,551L1147,527Z" fill="#efedeb" stroke="#efedeb" stroke-width="1.51"/><path d="M989,1099L1030,1254L1169,1175Z" fill="#92abd2" stroke="#92abd2" stroke-width="1.51"/><path d="M882,824L1007,890L1009,647Z" fill="#d5e6ef" stroke="#d5e6ef" stroke-width="1.51"/><path d="M937,945L989,1099L1050,939Z" fill="#aac9e0" stroke="#aac9e0" stroke-width="1.51"/><path d="M924,118L1000,245L1056,55Z" fill="#f3beaf" stroke="#f3beaf" stroke-width="1.51"/><path d="M1040,-109L940,-108L1056,55Z" fill="#e29a91" stroke="#e29a91" stroke-width="1.51"/><path d="M857,409L904,496L1067,337Z" fill="#faebe2" stroke="#faebe2" stroke-width="1.51"/><path d="M904,496L1045,551L1067,337Z" fill="#f6efeb" stroke="#f6efeb" stroke-width="1.51"/><path d="M940,-108L1040,-109L1083,-181Z" fill="#d88d89" stroke="#d88d89" stroke-width="1.51"/><path d="M854,-179L940,-108L1083,-181Z" fill="#d68d88" stroke="#d68d88" stroke-width="1.51"/><path d="M1000,245L857,409L1067,337Z" fill="#fae1d5" stroke="#fae1d5" stroke-width="1.51"/><path d="M884,258L857,409L1000,245Z" fill="#fbdbcb" stroke="#fbdbcb" stroke-width="1.51"/><path d="M940,-108L924,118L1056,55Z" fill="#eca89c" stroke="#eca89c" stroke-width="1.51"/><path d="M844,690L882,824L1009,647Z" fill="#e2eaee" stroke="#e2eaee" stroke-width="1.51"/><path d="M989,1099L859,1244L1030,1254Z" fill="#98abd2" stroke="#98abd2" stroke-width="1.51"/><path d="M1007,890L937,945L1050,939Z" fill="#b8d4e6" stroke="#b8d4e6" stroke-width="1.51"/><path d="M904,496L1009,647L1045,551Z" fill="#f2f4f6" stroke="#f2f4f6" stroke-width="1.51"/><path d="M937,945L835,1088L989,1099Z" fill="#a5c0d9" stroke="#a5c0d9" stroke-width="1.51"/><path d="M924,118L884,258L1000,245Z" fill="#faccb8" stroke="#faccb8" stroke-width="1.51"/><path d="M882,824L937,945L1007,890Z" fill="#c3dae7" stroke="#c3dae7" stroke-width="1.51"/><path d="M904,496L844,690L1009,647Z" fill="#f0f1f2" stroke="#f0f1f2" stroke-width="1.51"/><path d="M835,1088L859,1244L989,1099Z" fill="#9fb0cf" stroke="#9fb0cf" stroke-width="1.51"/><path d="M769,633L844,690L904,496Z" fill="#f2ede9" stroke="#f2ede9" stroke-width="1.51"/><path d="M882,824L761,893L937,945Z" fill="#c5d5df" stroke="#c5d5df" stroke-width="1.51"/><path d="M761,893L835,1088L937,945Z" fill="#b5c7d7" stroke="#b5c7d7" stroke-width="1.51"/><path d="M854,-179L720,-114L940,-108Z" fill="#dc887e" stroke="#dc887e" stroke-width="1.51"/><path d="M700,49L924,118L940,-108Z" fill="#eca292" stroke="#eca292" stroke-width="1.51"/><path d="M720,-114L700,49L940,-108Z" fill="#e49181" stroke="#e49181" stroke-width="1.51"/><path d="M758,521L769,633L904,496Z" fill="#f8eee8" stroke="#f8eee8" stroke-width="1.51"/><path d="M734,250L884,258L924,118Z" fill="#fac7b0" stroke="#fac7b0" stroke-width="1.51"/><path d="M700,49L734,250L924,118Z" fill="#f5b69e" stroke="#f5b69e" stroke-width="1.51"/><path d="M761,893L706,989L835,1088Z" fill="#b4c0ce" stroke="#b4c0ce" stroke-width="1.51"/><path d="M835,1088L785,1100L859,1244Z" fill="#a1acc9" stroke="#a1acc9" stroke-width="1.51"/><path d="M734,250L857,409L884,258Z" fill="#fbd5c3" stroke="#fbd5c3" stroke-width="1.51"/><path d="M857,409L758,521L904,496Z" fill="#fbeae1" stroke="#fbeae1" stroke-width="1.51"/><path d="M734,250L700,393L857,409Z" fill="#fcd9c6" stroke="#fcd9c6" stroke-width="1.51"/><path d="M844,690L761,893L882,824Z" fill="#d6dde1" stroke="#d6dde1" stroke-width="1.51"/><path d="M419,-196L559,-158L680,-179Z" fill="#ca6a5b" stroke="#ca6a5b" stroke-width="1.51"/><path d="M706,989L785,1100L835,1088Z" fill="#a9b5ca" stroke="#a9b5ca" stroke-width="1.51"/><path d="M769,633L761,893L844,690Z" fill="#e2e1e1" stroke="#e2e1e1" stroke-width="1.51"/><path d="M700,393L758,521L857,409Z" fill="#fce3d5" stroke="#fce3d5" stroke-width="1.51"/><path d="M785,1100L714,1302L859,1244Z" fill="#9c9fbd" stroke="#9c9fbd" stroke-width="1.51"/><path d="M680,-179L720,-114L854,-179Z" fill="#d58175" stroke="#d58175" stroke-width="1.51"/><path d="M620,866L761,893L769,633Z" fill="#d9d7d6" stroke="#d9d7d6" stroke-width="1.51"/><path d="M622,643L620,866L769,633Z" fill="#e8dad3" stroke="#e8dad3" stroke-width="1.51"/><path d="M551,1090L714,1302L785,1100Z" fill="#a3a0b8" stroke="#a3a0b8" stroke-width="1.51"/><path d="M706,989L551,1090L785,1100Z" fill="#abaebe" stroke="#abaebe" stroke-width="1.51"/><path d="M551,1090L632,1326L714,1302Z" fill="#9c8da4" stroke="#9c8da4" stroke-width="1.51"/><path d="M700,49L571,258L734,250Z" fill="#f7b599" stroke="#f7b599" stroke-width="1.51"/><path d="M700,393L631,502L758,521Z" fill="#fce0d1" stroke="#fce0d1" stroke-width="1.51"/><path d="M631,502L622,643L758,521Z" fill="#f9e2d7" stroke="#f9e2d7" stroke-width="1.51"/><path d="M758,521L622,643L769,633Z" fill="#f5e6dd" stroke="#f5e6dd" stroke-width="1.51"/><path d="M536,96L571,258L700,49Z" fill="#f1a387" stroke="#f1a387" stroke-width="1.51"/><path d="M620,866L706,989L761,893Z" fill="#c4c7cb" stroke="#c4c7cb" stroke-width="1.51"/><path d="M620,866L588,944L706,989Z" fill="#c1bec2" stroke="#c1bec2" stroke-width="1.51"/><path d="M561,-100L700,49L720,-114Z" fill="#e28774" stroke="#e28774" stroke-width="1.51"/><path d="M571,258L700,393L734,250Z" fill="#fbc9af" stroke="#fbc9af" stroke-width="1.51"/><path d="M571,258L571,406L700,393Z" fill="#fbcbb2" stroke="#fbcbb2" stroke-width="1.51"/><path d="M680,-179L561,-100L720,-114Z" fill="#d97a6b" stroke="#d97a6b" stroke-width="1.51"/><path d="M551,1090L482,1268L632,1326Z" fill="#9e879d" stroke="#9e879d" stroke-width="1.51"/><path d="M588,944L551,1090L706,989Z" fill="#b3afb8" stroke="#b3afb8" stroke-width="1.51"/><path d="M561,-100L536,96L700,49Z" fill="#e78c74" stroke="#e78c74" stroke-width="1.51"/><path d="M571,406L631,502L700,393Z" fill="#fcd6c3" stroke="#fcd6c3" stroke-width="1.51"/><path d="M482,1268L334,1340L632,1326Z" fill="#927180" stroke="#927180" stroke-width="1.51"/><path d="M559,-158L561,-100L680,-179Z" fill="#d37263" stroke="#d37263" stroke-width="1.51"/><path d="M452,854L620,866L622,643Z" fill="#dbc7c0" stroke="#dbc7c0" stroke-width="1.51"/><path d="M382,661L452,854L622,643Z" fill="#e6c4b8" stroke="#e6c4b8" stroke-width="1.51"/><path d="M422,563L622,643L631,502Z" fill="#f7d5c6" stroke="#f7d5c6" stroke-width="1.51"/><path d="M571,406L422,563L631,502Z" fill="#fad1bd" stroke="#fad1bd" stroke-width="1.51"/><path d="M422,563L382,661L622,643Z" fill="#f0c9b9" stroke="#f0c9b9" stroke-width="1.51"/><path d="M460,1112L482,1268L551,1090Z" fill="#a58d9e" stroke="#a58d9e" stroke-width="1.51"/><path d="M452,854L588,944L620,866Z" fill="#cabbb9" stroke="#cabbb9" stroke-width="1.51"/><path d="M380,-9L536,96L561,-100Z" fill="#e17c62" stroke="#e17c62" stroke-width="1.51"/><path d="M536,96L412,189L571,258Z" fill="#f2a280" stroke="#f2a280" stroke-width="1.51"/><path d="M571,258L422,412L571,406Z" fill="#fac2a7" stroke="#fac2a7" stroke-width="1.51"/><path d="M422,412L422,563L571,406Z" fill="#f9c6af" stroke="#f9c6af" stroke-width="1.51"/><path d="M461,934L551,1090L588,944Z" fill="#b7aaae" stroke="#b7aaae" stroke-width="1.51"/><path d="M452,854L461,934L588,944Z" fill="#c6b2b0" stroke="#c6b2b0" stroke-width="1.51"/><path d="M380,-9L438,110L536,96Z" fill="#e68367" stroke="#e68367" stroke-width="1.51"/><path d="M438,110L412,189L536,96Z" fill="#ed9373" stroke="#ed9373" stroke-width="1.51"/><path d="M461,934L460,1112L551,1090Z" fill="#af9ca4" stroke="#af9ca4" stroke-width="1.51"/><path d="M412,189L422,412L571,258Z" fill="#f6b090" stroke="#f6b090" stroke-width="1.51"/><path d="M559,-158L419,-196L561,-100Z" fill="#cf6757" stroke="#cf6757" stroke-width="1.51"/><path d="M419,-196L380,-9L561,-100Z" fill="#d56654" stroke="#d56654" stroke-width="1.51"/><path d="M188,-263L245,-205L419,-196Z" fill="#af403c" stroke="#af403c" stroke-width="1.51"/><path d="M412,189L276,283L422,412Z" fill="#f1a486" stroke="#f1a486" stroke-width="1.51"/><path d="M382,661L283,731L452,854Z" fill="#ddb2a9" stroke="#ddb2a9" stroke-width="1.51"/><path d="M241,1042L299,1136L460,1112Z" fill="#a5808e" stroke="#a5808e" stroke-width="1.51"/><path d="M241,1042L460,1112L461,934Z" fill="#ad9199" stroke="#ad9199" stroke-width="1.51"/><path d="M322,892L241,1042L461,934Z" fill="#b89699" stroke="#b89699" stroke-width="1.51"/><path d="M460,1112L299,1136L482,1268Z" fill="#a27f93" stroke="#a27f93" stroke-width="1.51"/><path d="M299,1136L334,1340L482,1268Z" fill="#976e81" stroke="#976e81" stroke-width="1.51"/><path d="M380,-9L339,41L438,110Z" fill="#e0765d" stroke="#e0765d" stroke-width="1.51"/><path d="M283,731L322,892L452,854Z" fill="#d0a9a3" stroke="#d0a9a3" stroke-width="1.51"/><path d="M452,854L322,892L461,934Z" fill="#c6a9a6" stroke="#c6a9a6" stroke-width="1.51"/><path d="M276,283L264,375L422,412Z" fill="#f1a78d" stroke="#f1a78d" stroke-width="1.51"/><path d="M245,-205L258,-16L380,-9Z" fill="#cd5246" stroke="#cd5246" stroke-width="1.51"/><path d="M245,-205L380,-9L419,-196Z" fill="#c85146" stroke="#c85146" stroke-width="1.51"/><path d="M230,519L422,563L422,412Z" fill="#f4b9a7" stroke="#f4b9a7" stroke-width="1.51"/><path d="M339,41L412,189L438,110Z" fill="#e78568" stroke="#e78568" stroke-width="1.51"/><path d="M230,519L382,661L422,563Z" fill="#f0b9aa" stroke="#f0b9aa" stroke-width="1.51"/><path d="M264,375L230,519L422,412Z" fill="#f2ac98" stroke="#f2ac98" stroke-width="1.51"/><path d="M339,41L172,138L412,189Z" fill="#e27b60" stroke="#e27b60" stroke-width="1.51"/><path d="M172,138L276,283L412,189Z" fill="#e8886b" stroke="#e8886b" stroke-width="1.51"/><path d="M230,519L283,731L382,661Z" fill="#e8afa3" stroke="#e8afa3" stroke-width="1.51"/><path d="M258,-16L339,41L380,-9Z" fill="#d86651" stroke="#d86651" stroke-width="1.51"/><path d="M283,731L155,882L322,892Z" fill="#ca9a97" stroke="#ca9a97" stroke-width="1.51"/><path d="M299,1136L162,1321L334,1340Z" fill="#905c71" stroke="#905c71" stroke-width="1.51"/><path d="M258,-16L172,138L339,41Z" fill="#d86550" stroke="#d86550" stroke-width="1.51"/><path d="M230,519L103,636L283,731Z" fill="#e4a39a" stroke="#e4a39a" stroke-width="1.51"/><path d="M155,882L241,1042L322,892Z" fill="#b88b8e" stroke="#b88b8e" stroke-width="1.51"/><path d="M131,1125L162,1321L299,1136Z" fill="#97617a" stroke="#97617a" stroke-width="1.51"/><path d="M245,-205L101,-40L258,-16Z" fill="#c5423c" stroke="#c5423c" stroke-width="1.51"/><path d="M172,138L138,238L276,283Z" fill="#e37f65" stroke="#e37f65" stroke-width="1.51"/><path d="M241,1042L131,1125L299,1136Z" fill="#a07282" stroke="#a07282" stroke-width="1.51"/><path d="M155,882L118,986L241,1042Z" fill="#af7f87" stroke="#af7f87" stroke-width="1.51"/><path d="M103,636L155,882L283,731Z" fill="#d39994" stroke="#d39994" stroke-width="1.51"/><path d="M91,515L230,519L264,375Z" fill="#eba191" stroke="#eba191" stroke-width="1.51"/><path d="M95,334L91,515L264,375Z" fill="#e89785" stroke="#e89785" stroke-width="1.51"/><path d="M95,334L264,375L276,283Z" fill="#ea937d" stroke="#ea937d" stroke-width="1.51"/><path d="M138,238L95,334L276,283Z" fill="#e58770" stroke="#e58770" stroke-width="1.51"/><path d="M101,-40L172,138L258,-16Z" fill="#d05546" stroke="#d05546" stroke-width="1.51"/><path d="M103,636L24,826L155,882Z" fill="#c98d8c" stroke="#c98d8c" stroke-width="1.51"/><path d="M91,515L103,636L230,519Z" fill="#e7a096" stroke="#e7a096" stroke-width="1.51"/><path d="M188,-263L101,-40L245,-205Z" fill="#b43436" stroke="#b43436" stroke-width="1.51"/><path d="M118,986L131,1125L241,1042Z" fill="#a17380" stroke="#a17380" stroke-width="1.51"/><path d="M35,372L91,515L95,334Z" fill="#e38e7e" stroke="#e38e7e" stroke-width="1.51"/><path d="M131,1125L-70,1308L162,1321Z" fill="#884a64" stroke="#884a64" stroke-width="1.51"/><path d="M101,-40L12,52L172,138Z" fill="#cc4f43" stroke="#cc4f43" stroke-width="1.51"/><path d="M-56,-248L101,-40L188,-263Z" fill="#a9242e" stroke="#a9242e" stroke-width="1.51"/><path d="M-56,-248L-56,-76L101,-40Z" fill="#b1182b" stroke="#b1182b" stroke-width="1.51"/><path d="M-28,1110L-70,1308L131,1125Z" fill="#8e4e6c" stroke="#8e4e6c" stroke-width="1.51"/><path d="M-27,195L138,238L172,138Z" fill="#da6e58" stroke="#da6e58" stroke-width="1.51"/><path d="M12,52L-27,195L172,138Z" fill="#d15b4c" stroke="#d15b4c" stroke-width="1.51"/><path d="M24,826L118,986L155,882Z" fill="#b78186" stroke="#b78186" stroke-width="1.51"/><path d="M-53,721L24,826L103,636Z" fill="#ce8a88" stroke="#ce8a88" stroke-width="1.51"/><path d="M24,826L-32,983L118,986Z" fill="#ae767e" stroke="#ae767e" stroke-width="1.51"/><path d="M118,986L-28,1110L131,1125Z" fill="#9a6577" stroke="#9a6577" stroke-width="1.51"/><path d="M-27,195L95,334L138,238Z" fill="#dd7762" stroke="#dd7762" stroke-width="1.51"/><path d="M-32,983L-28,1110L118,986Z" fill="#9c6676" stroke="#9c6676" stroke-width="1.51"/><path d="M91,515L-67,538L103,636Z" fill="#e0948d" stroke="#e0948d" stroke-width="1.51"/><path d="M35,372L-67,538L91,515Z" fill="#e08d83" stroke="#e08d83" stroke-width="1.51"/><path d="M-27,195L35,372L95,334Z" fill="#dc7a68" stroke="#dc7a68" stroke-width="1.51"/><path d="M-67,538L-53,721L103,636Z" fill="#d68c88" stroke="#d68c88" stroke-width="1.51"/><path d="M-56,-76L12,52L101,-40Z" fill="#bf3636" stroke="#bf3636" stroke-width="1.51"/><path d="M-127,1259L-70,1308L-28,1110Z" fill="#7b4161" stroke="#7b4161" stroke-width="1.51"/><path d="M-116,1130L-127,1259L-28,1110Z" fill="#7f4a69" stroke="#7f4a69" stroke-width="1.51"/><path d="M-130,838L-32,983L24,826Z" fill="#ac757d" stroke="#ac757d" stroke-width="1.51"/><path d="M-167,372L-67,538L35,372Z" fill="#d38279" stroke="#d38279" stroke-width="1.51"/><path d="M-27,195L-144,247L35,372Z" fill="#d16e5f" stroke="#d16e5f" stroke-width="1.51"/><path d="M-144,247L-167,372L35,372Z" fill="#cc7569" stroke="#cc7569" stroke-width="1.51"/><path d="M-151,103L-27,195L12,52Z" fill="#c34f44" stroke="#c34f44" stroke-width="1.51"/><path d="M-53,721L-130,838L24,826Z" fill="#b87d81" stroke="#b87d81" stroke-width="1.51"/><path d="M-56,-76L-148,-35L12,52Z" fill="#b23033" stroke="#b23033" stroke-width="1.51"/><path d="M-148,-35L-151,103L12,52Z" fill="#b43b38" stroke="#b43b38" stroke-width="1.51"/><path d="M-182,-189L-56,-76L-56,-248Z" fill="#960f27" stroke="#960f27" stroke-width="1.51"/><path d="M-67,538L-175,683L-53,721Z" fill="#c38485" stroke="#c38485" stroke-width="1.51"/><path d="M-213,984L-116,1130L-32,983Z" fill="#855b6f" stroke="#855b6f" stroke-width="1.51"/><path d="M-130,838L-213,984L-32,983Z" fill="#956876" stroke="#956876" stroke-width="1.51"/><path d="M-32,983L-116,1130L-28,1110Z" fill="#8c596f" stroke="#8c596f" stroke-width="1.51"/><path d="M-151,103L-144,247L-27,195Z" fill="#c05a4d" stroke="#c05a4d" stroke-width="1.51"/><path d="M-167,372L-210,580L-67,538Z" fill="#c58280" stroke="#c58280" stroke-width="1.51"/><path d="M-210,580L-175,683L-67,538Z" fill="#bf8384" stroke="#bf8384" stroke-width="1.51"/><path d="M-182,-189L-148,-35L-56,-76Z" fill="#9f182a" stroke="#9f182a" stroke-width="1.51"/><path d="M-175,683L-130,838L-53,721Z" fill="#b47d81" stroke="#b47d81" stroke-width="1.51"/><path d="M-213,984L-127,1259L-116,1130Z" fill="#784c69" stroke="#784c69" stroke-width="1.51"/><path d="M-175,683L-213,984L-130,838Z" fill="#9d717b" stroke="#9d717b" stroke-width="1.51"/><path d="M-151,103L-167,372L-144,247Z" fill="#bc6256" stroke="#bc6256" stroke-width="1.51"/><path d="M-182,-189L-151,103L-148,-35Z" fill="#a1262f" stroke="#a1262f" stroke-width="1.51"/><path d="M-210,580L-167,372L-151,103Z" fill="#be726a" stroke="#be726a" stroke-width="1.51"/><path d="M-182,-189L-210,580L-151,103Z" fill="#b25248" stroke="#b25248" stroke-width="1.51"/><path d="M-210,580L-213,984L-175,683Z" fill="#a5767e" stroke="#a5767e" stroke-width="1.51"/></svg>